<?xml version="1.0" encoding="utf-8"?>
<!-- Generator: Adobe Illustrator 24.2.0, SVG Export Plug-In . SVG Version: 6.00 Build 0)  -->
<svg version="1.0" id="Layer_1" xmlns="http://www.w3.org/2000/svg" xmlns:xlink="http://www.w3.org/1999/xlink" x="0px" y="0px"
	 viewBox="0 0 317.983 275.112" style="enable-background:new 0 0 317.983 275.112;" xml:space="preserve">
<style type="text/css">
	.st0{fill:#FFFFFF;}
</style>
<path class="st0" d="M132.243,77.145c1.737,2.659,4.158,4.819,5.725,7.596c0.891,1.58,1.248,3.194,1.375,4.993
	c0.136,1.926,0.271,3.871,1.524,5.441c1.24,1.553,3.118,2.581,4.738,3.679c2.051,1.39,4.1,2.784,6.154,4.171
	c1.589,1.073,3.34,2.226,5.337,2.194c1.318-0.021,2.539-0.594,3.495-1.484c2.164-2.016,2.999-5.362,2.508-8.216
	c-0.645-3.754-3.387-6.808-6.091-9.296c-3.475-3.196-7.118-6.223-10.681-9.321c-0.861-0.749-1.722-1.497-2.583-2.246
	c-0.782-0.68-1.705-1.367-2.025-2.399c-0.316-1.02-0.105-2.203-0.031-3.248c0.092-1.294,0.185-2.589,0.278-3.883
	c0.162-2.269,0.325-4.538,0.487-6.808c2.585-1.341,5.473,1.978,7.322,3.396c2.305,1.767,5.076,2.651,7.939,2.966
	c3.093,0.34,6.221,0.044,9.296-0.334c3.139-0.386,6.351-0.749,9.292-1.983c1.231-0.516,2.356-1.239,3.56-1.811
	c1.088-0.517,2.202-0.991,3.246-1.594c1.529-0.883,3.12-2.286,2.467-4.237c-0.512-1.528-1.944-2.866-3.154-3.852
	c-1.417-1.155-3.237-2.265-5.143-2.099c-0.947,0.082-1.81,0.504-2.488,1.166c-0.779,0.76-1.188,1.793-1.985,2.542
	c-1.351,1.27-3.22,1.521-4.998,1.318c-4.424-0.507-8.525-3.035-12.436-4.985c-0.869-0.433-1.742-0.859-2.635-1.242
	c-0.697-0.299-1.86-0.48-2.372-1.033c-0.85-0.919-0.792-2.387-0.424-3.496c0.487-1.467,1.624-2.444,3.059-2.959
	c1.477-0.531,3.07-0.586,4.624-0.613c1.887-0.032,3.775-0.051,5.662-0.076c3.616-0.049,7.255,0.009,10.86-0.308
	c5.945-0.523,11.961-2.541,15.473-7.67c0.763-1.115,1.363-2.352,1.746-3.649c0.319-1.08,0.522-2.172,1.041-3.184
	c0.376-0.733,0.982-1.655-0.292-1.788c-0.781-0.081-1.553-0.143-2.328-0.273c-0.88-0.868-1.722-1.459-3.055-1.188
	c-1.516,0.307-2.843,1.466-3.675,2.726c-0.457,0.691-0.661,0.978-1.473,1.272c-0.96,0.348-1.979,0.544-2.982,0.718
	c-2.583,0.448-5.202,0.676-7.809,0.926c-2.057,0.197-4.179,0.303-6.201,0.758c-0.281,0.063-0.538,0.152-0.807,0.25
	c-1.186,0.434-2.344,0.332-3.574,0.139c-1.269-0.198-2.501-0.391-3.703-0.859c-1.745-0.679-3.279-1.801-5.032-2.456
	c-1.796-0.671-3.583-0.392-5.177,0.655c-1.182,0.777-2.192,1.802-3.113,2.867c-1.309,1.511-2.697,3.166-3.498,5.01
	c-1.357,3.124-0.629,6.426-0.122,9.648c0.281,1.785,0.467,3.619,0.161,5.414c-0.377,2.202-1.538,4.199-2.473,6.202
	c-1.05,2.248-2.1,4.496-3.15,6.743c-0.938,2.007-1.951,3.998-2.771,6.057c-0.726,1.824-1.137,3.746-0.798,5.703
	C130.786,74.559,131.442,75.918,132.243,77.145z M192.192,23.773C192.232,23.788,192.236,23.839,192.192,23.773L192.192,23.773z"/>
<path class="st0" d="M239.229,98.566c-0.772-3.598-2.129-7.06-3.531-10.452c-1.455-3.522-3.085-6.977-5.039-10.251
	c-0.937-1.57-1.949-3.141-2.515-4.892c-0.603-1.866-0.397-3.805-0.408-5.732c-0.023-3.744-1.959-7.012-2.72-10.611
	c-0.831-3.93-1.044-8.041-1.354-12.038c-0.139-1.793-0.029-3.487,0.167-5.272c0.168-1.535,0.359-3.151-0.036-4.668
	c-0.387-1.487-1.303-2.765-2.074-4.07c-0.714-1.208-1.208-2.416-1.411-3.803c-0.489-3.334-0.355-9.898-5.203-9.767
	c-5.514,0.149-8.815,5.695-10.878,10.117c-1.459,3.128-2.747,6.331-4.217,9.456c-1.676,3.563-3.579,7.109-4.931,10.811
	c-2.228,6.098,1.429,12.54,0.028,18.718c-1.36,5.997-7.463,9.496-9.356,15.275c-1.076,3.285-0.728,7.254-3.262,9.931
	c-0.924,0.976-2.103,1.669-3.175,2.464c-0.963,0.714-1.895,1.474-2.807,2.252c-0.547,0.468-1.115,0.944-1.624,1.468
	c-0.079-0.064-0.174-0.109-0.289-0.108c-1.794,0.009-3.398,1.595-2.854,3.45c0.582,1.985,2.686,2.434,4.463,1.919
	c2.245-0.651,3.017-2.476,4.103-4.344c1.252-2.154,3.6-3.216,5.733-4.3c1.028-0.523,2.072-1.294,3.255-1.36
	c1.04-0.058,2.064,0.353,3.074,0.542c0.902,0.168,1.895,0.327,2.769-0.04c0.722-0.303,1.174-0.918,1.611-1.54
	c0.696-0.991,1.385-1.928,2.436-2.572c0.979-0.6,2.077-0.945,3.152-1.328c1.069-0.381,2.142-0.8,3.065-1.473
	c0.938-0.685,1.686-1.569,2.356-2.511c0.765-1.076,1.433-2.215,2.214-3.28c0.798-1.089,1.703-2.058,2.615-3.048
	c0.772-0.839,1.436-1.772,2.157-2.653c0.663-0.81,1.392-1.724,2.354-2.189c1.57-0.759,3.243,0.078,4.49,1.07
	c1.511,1.201,2.741,2.759,3.838,4.335c0.958,1.376,1.765,2.841,2.677,4.245c1.312,2.02,2.809,3.92,3.996,6.02
	c1.176,2.08,2.03,4.419,1.632,6.838c-0.454,2.766-1.574,5.412-1.264,8.264c0.261,2.413,1.065,4.727,1.325,7.141
	c0.176,1.633,0.218,3.687,1.217,5.07c0.758,1.049,2.032,1.083,2.818,0.073c0.899-1.154,1.21-2.797,1.476-4.199
	c0.121-0.64,0.219-1.283,0.307-1.928c0.003-0.024-0.004-0.044-0.004-0.067c0.006-0.022,0.018-0.039,0.022-0.063
	C240.108,105.822,240,102.162,239.229,98.566z M211.582,63.99c-0.689,1.956-1.211,3.962-1.968,5.896
	c-0.679,1.734-1.558,4.119-3.308,5.062c-1.216,0.656-2.656,0.157-3.241-1.072c-0.728-1.53-0.505-3.481-0.311-5.104
	c0.18-1.5,0.553-2.99,0.67-4.495c0.137-1.763-0.035-3.542,0.009-5.308c0.019-0.759,0.063-1.245,0.379-1.888
	c0.717-1.46,1.434-2.92,2.151-4.38c0.253-0.515,0.679-1.112,0.82-1.669c0.075-0.297-0.007-0.532-0.029-0.912
	c-0.048-0.832-0.125-1.663-0.231-2.49c-0.352-2.749-1.35-5.365-1.653-8.112c-0.247-2.242,0.199-4.542,2.225-5.817
	c0.197-0.124,0.426-0.058,0.593,0.076c1.631,1.31,2.284,3.663,2.956,5.553c0.882,2.482,2.141,4.811,2.898,7.34
	C215.305,52.557,213.573,58.401,211.582,63.99z"/>
<g>
	<path class="st0" d="M134.421,105.009c-0.001-4.315-0.117-8.617-0.973-12.86c-0.595-2.95-1.384-6.166-3.152-8.658
		c-0.868-1.223-1.882-1.975-3.34-2.364c-0.932-0.249-1.826-0.445-2.693-0.887c-1.008-0.514-1.93-1.176-2.814-1.879
		c-3.142-2.499-6.226-4.975-9.851-6.759c-0.918-0.452-1.873-0.823-2.781-1.292c-0.923-0.476-1.804-1.027-2.712-1.53
		c-1.715-0.95-3.437-1.514-5.399-1.652c-3.674-0.26-7.356,0.332-11.027,0.348c-1.449,0.006-3.063-0.104-3.61-1.666
		c-0.431-1.23-0.437-3.161,0.577-4.129c0.678-0.647,1.758-0.787,2.596-1.138c0.756-0.316,1.396-0.79,1.894-1.442
		c0.508-0.664,0.792-1.447,1.236-2.149c0.407-0.643,0.96-1.121,1.614-1.504c2.648-1.549,6.115-1.719,9.107-1.744
		c1.707-0.014,3.411,0.107,5.117,0.149c2.329,0.057,4.659,0.049,6.987-0.007c1.958-0.048,3.912-0.16,5.87-0.174
		c1.53-0.011,3.172-0.014,4.622-0.567c2.812-1.071,3.073-4.689,3.209-7.277c0.213-4.037-1.268-7.679-3.033-11.224
		c-1.449-2.911-2.842-5.864-4.544-8.639c-1.47-2.399-3.31-5.225-5.952-6.459c-3.264-1.525-7.398-0.564-10.808-0.165
		c-1.883,0.22-3.758,0.348-5.568,0.961c-1.827,0.618-3.504,1.6-5.101,2.669c-1.576,1.055-3.089,2.205-4.707,3.197
		c-1.648,1.01-3.369,1.625-5.166,2.299c-2.974,1.115-5.882,2.824-7.514,5.648c-0.938,1.623-1.196,3.417-1.607,5.217
		c-0.456,1.996-0.999,3.972-1.396,5.982c-0.397,2.011-0.623,4.041-0.588,6.093c0.004,0.235,0.191,0.447,0.419,0.483
		c-0.233,2.192-0.056,4.367,0.154,6.566c0.11,1.147,0.22,2.291,0.209,3.445c-0.011,1.241-0.112,2.48-0.103,3.722
		c0.028,3.989,1.767,7.839,2.96,11.592c0.995,3.13,1.955,6.273,2.835,9.437c0.834,2.998,1.664,6.035,2.121,9.117
		c0.651,4.39,0.286,8.975-0.112,13.371c-0.212,2.341-0.443,4.683-0.692,7.021c-0.166,1.559-0.443,3.103-0.535,4.671
		c-0.084,1.44-0.087,3.021,0.534,4.356c0.675,1.451,2.208,2.013,3.664,2.391c2.539,0.66,5.983,1.619,8.482,0.415
		c3.003-1.447,1.29-5.89,0.985-8.375c-0.605-4.928-0.756-9.901-1.444-14.82c-0.21-1.504-0.466-2.959-0.948-4.399
		c-0.475-1.417-1.033-2.805-1.599-4.188c-1.192-2.91-2.493-5.782-3.553-8.744c-0.463-1.295-0.813-2.559-0.923-3.937
		c-0.155-1.941-0.238-4.192,0.288-6.088c0.361-1.301,1.196-1.919,2.542-1.77c1.417,0.157,2.785,0.765,4.136,1.184
		c7.139,2.211,15.372,2.51,21.176,7.763c1.526,1.381,2.846,3.034,4.1,4.659c1.319,1.708,2.589,3.523,3.473,5.5
		c0.913,2.041,0.481,4.173,0.531,6.329c0.04,1.716,0.452,3.523,1.953,4.538c0.619,0.419,1.336,0.67,1.956,1.087
		c0.518,0.348,0.924,0.85,1.313,1.331c0.922,1.142,1.717,2.404,2.752,3.45c0.583,0.59,1.634,1.48,2.461,0.819
		c0.779-0.624,1.498-1.658,2.036-2.498C134.933,108.51,134.439,106.475,134.421,105.009z M88.893,32.753
		c1.091-1.891,4.415-1.808,6.273-1.877c2.164-0.08,4.602,0.251,6.687-0.444c1.055-0.352,1.935-1.202,3.004-1.462
		c1.315-0.32,2.65,0.643,3.796,1.119c3.279,1.36,7.111,1.814,9.651,4.546c2.145,2.307,2.983,5.514,4.124,8.369
		c0.104,0.259-0.114,0.522-0.342,0.602c-2.907,1.02-6.166,1.151-9.217,1.025c-2.774-0.115-5.337-0.651-7.987-1.43
		c-2.447-0.719-4.971-1.255-7.286-2.357c-1.119-0.533-2.177-1.217-3.063-2.089c-0.818-0.804-1.846-2.031-2.108-3.176
		c-0.015-0.065-0.087-0.224-0.09-0.281c-0.087-0.071-0.211-0.121-0.308-0.177c-0.375-0.215-0.749-0.43-1.124-0.646
		c-0.611-0.351-1.222-0.702-1.833-1.053c-0.126-0.072-0.191-0.174-0.219-0.282c-0.001-0.002-0.001-0.003-0.002-0.004
		c-0.006-0.025-0.007-0.049-0.009-0.074C88.823,32.966,88.83,32.862,88.893,32.753z"/>
</g>
<g>
	<path class="st0" d="M66.208,72.653c-0.298-5.879-0.706-11.773-1.219-17.637c-0.256-2.679-0.908-5.336-1.979-7.808
		c-0.512-1.18-1.106-2.356-1.865-3.397c-0.784-1.077-1.571-2.101-2.238-3.259c-1.347-2.34-1.643-5.062-2.888-7.454
		c-0.559-1.074-1.229-2.17-1.901-3.175c-0.286-0.428-0.632-0.742-1.028-1.065c-0.507-0.414-0.874-0.941-1.321-1.412
		c-0.794-0.836-1.755-1.243-2.886-1.396c-0.581-0.079-1.174-0.207-1.76-0.179c-0.398,0.019-0.688,0.057-1.074-0.072
		c-0.313-0.104-0.581-0.261-0.914-0.303c-0.581-0.073-1.14,0.131-1.718,0.125c-0.751-0.008-1.589-0.392-2.261-0.698
		c-1.303-0.592-2.476-1.416-3.762-2.035c-1.197-0.577-2.471-0.976-3.726-1.405c-1.21-0.414-2.492-0.667-3.629-1.27
		c-1.24-0.657-2.296-1.665-3.418-2.502c-1.101-0.821-2.351-1.409-3.45-2.212c-0.985-0.72-1.686-1.8-2.835-2.282
		c-1.155-0.485-2.149-0.422-3.358-0.279c-0.822,0.097-1.689,0.043-2.41,0.518c-0.862,0.569-1.327,1.635-1.707,2.553
		c-0.509,1.226-0.733,2.544-1.264,3.759c-0.47,1.076-0.815,2.088-0.939,3.262c-0.156,1.476-0.275,2.931-0.503,4.4
		c-0.207,1.333-0.161,2.678-0.369,4.012c-0.09,0.579-0.2,1.155-0.267,1.737c-0.082,0.723,0.084,1.429-0.028,2.15
		c-0.097,0.627-0.324,1.221-0.488,1.831c-0.178,0.665-0.232,1.355-0.414,2.018c-0.351,1.285-0.881,2.437-1.07,3.775
		c-0.192,1.356-0.307,2.749-0.346,4.117c-0.084,2.916,0.612,5.718,0.775,8.608c0.155,2.759,0.205,5.53,0.561,8.274
		c0.384,2.954,0.705,5.91,1.063,8.867c0.357,2.943,0.99,5.844,1.42,8.776c0.41,2.788,0.345,5.614,0.755,8.395
		c0.406,2.753,0.711,5.503,1.28,8.23c0.305,1.461,0.587,2.922,0.682,4.415c0.018,0.292,0.244,0.459,0.476,0.472
		c-0.028,4.425-0.593,8.833-0.036,13.259c0.307,2.441,0.573,4.86,0.755,7.314c0.091,1.234,0.197,2.468,0.354,3.696
		c0.071,0.556,0.167,1.108,0.242,1.662c0.088,0.641,0.068,1.32,0.242,1.946c0.123,0.442,0.387,0.818,0.539,1.248
		c0.16,0.454,0.241,0.938,0.389,1.396c0.239,0.742,0.572,1.564,1.296,1.957c1.496,0.812,3.202-0.241,4.309-1.223
		c0.746-0.662,1.395-1.427,2.03-2.194c0.744-0.899,1.652-1.634,2.378-2.545c1.434-1.8,2.452-3.834,3.738-5.73
		c0.665-0.98,1.288-1.982,1.936-2.972c0.577-0.883,1.523-1.523,2.235-2.303c0.71-0.778,1.439-1.574,2.032-2.446
		c0.313-0.46,0.582-0.953,0.957-1.366c0.416-0.459,0.935-0.811,1.367-1.255c0.736-0.757,1.321-1.645,2.016-2.437
		c0.789-0.899,1.805-1.642,2.856-2.211c0.531-0.287,1.144-0.605,1.722-0.777c0.471-0.14,0.961-0.073,1.441-0.144
		c0.975-0.145,1.214-0.873,1.998-1.318c0.475-0.27,0.854-0.611,1.297-0.931c0.388-0.28,0.827-0.493,1.199-0.793
		c0.724-0.584,1.082-1.459,1.598-2.208c0.437-0.635,1.096-1.042,1.446-1.741c0.5-0.996,0.729-2.143,1.129-3.185
		c0.793-2.06,1.476-4.214,2.648-6.101c0.576-0.928,1.339-1.654,2.116-2.408c0.827-0.803,1.51-1.715,2.15-2.67
		c1.333-1.991,2.393-4.075,3.001-6.403C66.214,77.741,66.337,75.204,66.208,72.653z M56.026,76.626
		c0.166,1.576,0.12,3.206,0.399,4.766c0.341,1.906,1.082,4.053-0.94,5.228c-0.78,0.453-1.573,1.025-2.193,1.688
		c-0.683,0.73-0.475,1.902-1.334,2.497c-1.003,0.694-2.122,0.496-3.234,0.763c-0.686,0.165-1.299,0.579-1.96,0.821
		c-0.485,0.178-0.987,0.28-1.498,0.348c-1.041,0.138-2.174,0.308-3.224,0.184c-1.126-0.133-1.869-0.711-2.646-1.489
		c-0.905-0.905-2.026-1.427-3.139-2.023c-0.506-0.271-1.03-0.551-1.458-0.939c-0.411-0.372-0.734-0.799-1.218-1.094
		c-1.046-0.638-1.846-1.28-2.662-2.216c-0.742-0.852-1.285-1.866-1.825-2.852c-0.591-1.078-1.157-2.196-1.946-3.146
		c-0.709-0.853-1.596-1.547-2.22-2.473c-0.484-0.718-0.652-1.468-0.811-2.303c-0.051-0.268-0.241-1.809-0.634-1.674
		c-0.268,0.092-0.513-0.106-0.602-0.342c-0.211-0.562-0.55-1.172-0.661-1.761c-0.094-0.496,0.171-1.132,0.317-1.61
		c0.17-0.558,0.382-1.108,0.645-1.629c0.513-1.018,1.228-1.853,2.016-2.665c1.092-1.127,1.499-2.421,1.717-3.956
		c0.359-2.526,0.582-5.086,1.118-7.584c0.108-0.504,0.308-0.921,0.618-1.334c0.374-0.499,0.534-1.023,0.799-1.577
		c0.499-1.044,1.407-2.058,2.127-2.957c1.606-2.003,3.687-3.816,6.041-4.878c1.122-0.506,2.215-0.677,3.422-0.83
		c1.382-0.175,2.713-0.618,4.098-0.776c2.053-0.234,4.168-1.039,5.866,0.558c1.572,1.478,2.755,3.346,3.607,5.318
		c0.979,2.268,1.539,4.693,1.764,7.149c0.279,3.04,0.529,6.099,0.652,9.15c0.035,1.569-0.259,3.12-0.228,4.69
		c0.03,1.531-0.252,2.897-0.589,4.385C55.856,73.629,55.86,75.045,56.026,76.626z"/>
</g>
<path class="st0" d="M238.566,123.071c-0.2-0.15-0.49-0.129-0.692,0c-0.211,0.136-0.365,0.286-0.48,0.446
	c-0.171-0.144-0.458-0.198-0.673-0.011c-0.786,0.682-1.653,1.429-1.886,2.345c-0.153,0.602-0.155,1.472,0.517,1.913
	c0.789,0.518,1.917,0.013,2.404-0.54c0.477-0.541,0.429-1.233,0.364-1.85c-0.068-0.648-0.22-1.353,0.446-1.78
	C238.767,123.464,238.742,123.204,238.566,123.071z"/>
<path class="st0" d="M170.573,107.479c0.018-0.133,0.013-0.249-0.011-0.382c-0.035-0.195-0.134-0.371-0.254-0.526
	c-0.159-0.206-0.389-0.323-0.652-0.32c-0.054,0.001-0.102,0.019-0.151,0.031c-0.148-0.096-0.335-0.107-0.51-0.02
	c-0.304,0.151-0.585,0.344-0.889,0.495c-0.028,0.014-0.056,0.027-0.083,0.04c-0.017,0.008-0.016,0.008-0.023,0.012
	c-0.007,0.002-0.009,0.002-0.031,0.01c-0.081,0.03-0.162,0.061-0.239,0.098c-0.145,0.07-0.268,0.185-0.347,0.326
	c-0.083,0.149-0.104,0.316-0.147,0.477c-0.01,0.037-0.02,0.073-0.032,0.109c0,0.002-0.031,0.068-0.032,0.078
	c-0.009,0.016-0.018,0.031-0.018,0.031c-0.029,0.053-0.054,0.106-0.078,0.162c-0.181,0.428-0.018,0.869,0.361,1.122
	c0.281,0.188,0.62,0.177,0.943,0.16c0.163-0.008,0.328,0,0.486-0.052c0.023-0.008,0.045-0.017,0.068-0.026
	c0.022-0.008,0.148-0.041,0.029-0.023c0.143-0.021,0.271-0.025,0.403-0.093c0.075-0.039,0.136-0.096,0.204-0.145
	c0.012-0.006,0.038-0.02,0.048-0.026c0.028-0.015,0.056-0.028,0.085-0.041c0.139-0.064,0.268-0.14,0.371-0.258
	c0.04-0.047,0.08-0.101,0.116-0.153c0.002-0.003,0.004-0.006,0.005-0.008c0.063-0.083,0.132-0.163,0.187-0.252
	c0.1-0.163,0.189-0.407,0.145-0.601c0-0.001,0-0.003,0-0.004c0.002-0.007,0.003-0.008,0.006-0.022
	C170.553,107.613,170.564,107.547,170.573,107.479z M168.166,107.779C168.166,107.78,168.166,107.78,168.166,107.779
	C168.164,107.78,168.165,107.78,168.166,107.779z M168.006,108.414c0.004,0.001,0.008,0.002,0.012,0.003
	c-0.006,0-0.009-0.001-0.013-0.001C168.006,108.415,168.006,108.414,168.006,108.414z M167.953,108.395
	c-0.003-0.002-0.003-0.002-0.005-0.003c-0.003-0.004,0,0.001-0.005-0.008C167.934,108.366,167.899,108.303,167.953,108.395z
	 M167.969,108.482L167.969,108.482C167.959,108.501,167.952,108.51,167.969,108.482z M168.58,108.399
	C168.595,108.399,168.599,108.399,168.58,108.399L168.58,108.399z M168.541,108.405c-0.001-0.003,0.012-0.004,0.026-0.005
	C168.553,108.404,168.542,108.407,168.541,108.405z M169.347,108.065c-0.001,0-0.001,0.001-0.002,0.001
	c0.004-0.004,0.004-0.004,0.011-0.01C169.35,108.061,169.351,108.061,169.347,108.065z M169.556,107.776c0,0,0,0.001-0.001,0.001
	c0.001-0.005,0.002-0.011,0.004-0.012C169.558,107.768,169.557,107.772,169.556,107.776z M169.553,107.803
	C169.554,107.821,169.553,107.818,169.553,107.803L169.553,107.803z"/>
<path class="st0" d="M169.476,107.898c0.004-0.007,0.01-0.014,0.014-0.02C169.502,107.86,169.51,107.846,169.476,107.898z"/>
<path class="st0" d="M170.195,108.556c-0.002,0.003-0.005,0.006-0.007,0.01C170.173,108.587,170.147,108.626,170.195,108.556z"/>
<path class="st0" d="M237.91,54.37c0.096,1.667,0.071,3.491,0.934,4.982c0.808,1.396,2.294,2.224,3.108,3.612
	c1.691,2.886,0.605,6.665,0.907,9.824c0.61,6.392,4.745,11.567,7.924,16.892c1.799,3.013,3.237,6.151,3.967,9.6
	c0.771,3.645,0.835,7.405,0.59,11.11c-0.227,3.435-0.732,6.842-1.275,10.24c-0.21-0.112-0.49-0.097-0.65,0.163
	c-3.153,5.147-3.91,11.603-2.131,17.36c0.072,0.232,0.349,0.441,0.602,0.342c4.931-1.944,7.916-6.911,9.063-11.894
	c1.558-6.767,0.315-13.873-0.444-20.664c-0.393-3.516-0.785-7.031-1.178-10.547c-0.383-3.427-0.697-6.877-1.363-10.263
	c-0.618-3.148-1.654-6.143-3.084-9.013c-1.424-2.861-3.13-5.568-4.714-8.34c-3.305-5.784-6.288-12.813-4.121-19.479
	c4.451,5.019,9.344,9.677,13.363,15.063c2.044,2.739,3.831,5.667,5.223,8.791c0.68,1.527,1.243,3.078,1.682,4.69
	c0.37,1.357,0.711,2.791,1.414,4.024c0.736,1.291,1.95,2.488,3.017,3.506c1.292,1.232,2.684,1.852,4.315,2.529
	c1.939,0.805,3.871,1.626,5.816,2.416c1.556,0.632,3.324,1.187,4.941,0.432c2.689-1.256,3.215-4.832,2.58-7.415
	c-0.434-1.766-1.321-3.383-2.182-4.97c-0.895-1.648-1.732-3.324-2.458-5.053c-2.9-6.91-4.339-14.751-2.417-22.069
	c0.868,5.707,3.666,10.874,6.711,15.755c1.751,2.806,3.588,5.559,5.246,8.422c1.878,3.242,3.442,6.64,4.603,10.205
	c1.206,3.702,2.006,7.542,2.367,11.419c0.341,3.66-0.046,7.37,0.428,11.013c0.386,2.967,1.6,5.875,4.402,7.289
	c2.478,1.251,5.218,0.638,6.592-1.862c1.592-2.898,1.924-6.721,1.812-9.965c-0.122-3.557-0.932-7.061-2.093-10.414
	c-2.483-7.17-6.461-13.671-10.012-20.336c-3.733-7.005-7.026-14.243-9.858-21.658c-2.83-7.408-5.262-15.155-5.462-23.146
	c-0.1-3.986,0.631-7.849,1.053-11.794c0.37-3.457,0.419-7.217-1.353-10.329c-1.304-2.289-3.54-4.396-6.236-4.783
	c-2.596-0.373-4.912,1.178-6.07,3.442c-1.291,2.525-1.424,5.539-1.367,8.319c0.083,4.095,0.31,8.193,0.469,12.286
	c0.162,4.178,0.324,8.357,0.487,12.535c0.08,2.058,0.203,4.12,0.235,6.179c0.026,1.646-0.253,3.808-2.362,3.784
	c-1.81-0.021-3.704-1.287-5.244-2.124c-1.746-0.949-3.441-1.989-5.1-3.081c-2.941-1.936-5.852-3.994-8.302-6.54
	c-2.389-2.482-4.254-5.437-5.019-8.824c-0.74-3.276-0.45-6.851,1.443-9.696c0.813-1.222,1.821-2.435,1.788-3.989
	c-0.028-1.366-0.838-2.564-1.922-3.342c-2.337-1.677-5.398-1.036-7.562,0.606c-6,4.553-4.921,13.132-4.543,19.718
	C236.95,37.674,237.43,46.022,237.91,54.37z"/>
<g>
	<path class="st0" d="M152.464,212.571c-6.682-6.391-13.514-12.741-19.606-19.616c-1.588-1.794-1.605-4.817-2.159-7.271
		c-0.439-1.966,0.071-4.957-1-5.722c-7.342-5.277-8.762-12.228-9.859-20.366c-2.398-3.995-4.626-9.347-8.193-13.496
		c-2.796-3.252-7.304-5.025-10.973-7.478c-0.597,3.171-1.289,6.325-1.754,9.573c-0.152,1.058,0.179,2.339,0.499,3.498
		c3.189,11.511,1.473,21.14-3.679,30.763c-2.545,4.75-1.488,12.012-1.957,18.268c-0.568,7.28,1.07,16.009-2.077,21.864
		c-4.171,7.716-3.62,16.496-5.669,24.849c-0.51,2.052,2.951,5.473,4.61,8.257c2.299-1.598,5.554-2.665,6.618-4.915
		c1.334-2.821,0.646-6.654,1.212-9.908c1.772-10.262,2.922-20.504,5.544-29.889c1.232-4.399,3.116-8.029,1.168-12.991
		c-0.396-1.013-0.201-2.61,0.402-3.342c4.301-5.221,5.989-11.275,4.892-18.572c-0.12-0.81,0.929-1.885,1.771-2.207
		c0.48-0.184,2.247,0.84,2.415,1.416c1.726,5.96,3.305,11.959,4.864,17.986c0.115,0.443-0.473,0.954-0.768,1.41
		c-2.165,3.348-4.844,6.472-6.428,10.229c-0.909,2.156-0.152,5.289,0.239,8.002c0.066,0.472,2.862,1.583,3.052,1.333
		c1.299-1.7,2.294-3.634,3.237-5.557c0.406-0.829,0.354-1.913,0.731-2.758c1.717-3.85,5.015-4.306,8.831-1.226
		c3.733,3.012,7.19,6.444,11.197,9.068c6.272,4.096,7.709,9.047,7.779,15.185c0.03,2.558,2.011,5.749,4.026,7.977
		c3.883,4.308,7.232,3.661,8.891-1.118C163.35,227.083,159.838,219.635,152.464,212.571z"/>
</g>
<g>
	<g>
		<path class="st0" d="M229.456,195.511c-0.325-4.339-3.234-8.008-6.178-11.213c-6.197-6.745-14.807-13.264-23.685-11.01
			c-5.424,1.377-9.485,5.74-13.354,9.784c-1.37,1.431-2.835,2.898-4.723,3.499c-4.163,1.325-8.702-2.576-9.071-6.93
			c-0.369-4.354,2.486-8.472,6.144-10.862c3.658-2.39,8.025-3.385,12.289-4.338c6.909-1.544,13.817-3.087,20.726-4.631
			c3.804-0.85,8.264-2.292,9.305-6.048c1.218-4.393-3.177-8.21-7.198-10.358c-4.354-2.326-9.033-3.937-13.74-5.378
			c-3.838-1.176-7.55-2.929-11.649-2.817c-2.998,0.082-5.873,0.186-8.898-0.027c-5.184-0.365-10.338-1.103-15.519-1.468
			c-6.155-0.506-12.434-0.821-18.537-1.805c-4.329-0.698-8.788-1.526-13.052-0.504c0.741,4.158,4.181,7.701,8.316,8.563
			c1.061,0.221,2.196,0.296,3.102,0.89c2.003,1.312,1.811,4.351,0.826,6.535c-0.984,2.183-2.546,4.244-2.565,6.639
			c-0.028,3.487,3.117,6.025,5.739,8.323c11.132,9.755,17.188,24.308,19.296,38.958c2.108,14.65,0.622,29.561-1.195,44.25
			c-0.414,3.347-0.838,6.802,0.087,10.045c0.925,3.243,3.571,6.248,6.936,6.483c1.785,0.125,3.527-0.522,5.308-0.692
			c5.464-0.522,10.266,3.374,15.528,4.938c7.264,2.158,15.456-0.429,20.973-5.623c5.518-5.194,8.538-12.664,9.37-20.196
			c1.175-10.627-1.646-21.741,1.73-31.886C227.217,204.284,229.799,200.082,229.456,195.511z M169.436,157.651
			c-2.469-0.969-1.558-4.875-3.161-6.987c-0.925-1.219-2.534-1.632-3.942-2.229c-1.409-0.597-2.876-1.746-2.784-3.274
			c0.095-1.584,1.76-2.526,3.208-3.173c3.13-1.398,6.402-2.824,9.827-2.679c1.289,0.055,2.556,0.332,3.815,0.609
			c4.211,0.925,8.428,1.82,12.664,2.622c1.86,0.352,3.067,0.63,4.213,2.234c0.887,1.24,1.41,2.693,2.071,4.055
			c0.571,1.178,1.154,2.395,1.222,3.702c0.068,1.307-0.51,2.74-1.703,3.278c-0.661,0.298-1.414,0.29-2.139,0.283
			c-6.977-0.07-13.96,0.462-20.846,1.589C171.065,157.816,170.204,157.953,169.436,157.651z M217.621,227.918
			c-1.076,5.14-3.315,10.179-7.17,13.745c-1.227,1.135-2.659,2.133-4.299,2.454c-1.265,0.248-2.579,0.077-3.824-0.256
			c-5.929-1.586-10.563-7.162-11.038-13.281c-0.202-2.603,0.279-5.206,0.758-7.773c0.568-3.044,1.136-6.088,1.705-9.132
			c0.276-1.48,0.551-3.017,0.18-4.476c-0.824-3.24-4.519-5.087-5.455-8.296c-1-3.427,1.72-7.046,5.049-8.334
			c3.217-1.244,6.793-0.885,10.225-0.454c-0.355-0.317-0.757-0.498-1.256-0.405c0.499-0.094,0.901,0.088,1.256,0.405
			c0.12,0.015,0.239,0.03,0.359,0.045c-0.119-0.015-0.239-0.03-0.359-0.045c0.658,0.587,1.154,1.645,1.798,2.33
			c1.37,1.459,3.696,1.217,5.641,1.69c3.116,0.757,5.412,3.551,6.46,6.582c1.047,3.031,1.057,6.308,1.056,9.515
			C218.705,217.483,218.698,222.779,217.621,227.918z"/>
	</g>
</g>
<path class="st0" d="M293.526,184.805c0.301-0.924,0.504-1.886,0.859-2.791c0.388-0.987,0.539-1.917,0.783-2.942
	c0.234-0.984,0.551-1.938,0.693-2.943c0.163-1.151,0.205-2.312,0.418-3.457c0.391-2.107,0.876-4.197,1.172-6.321
	c0.307-2.201,0.447-4.423,0.767-6.622c0.3-2.068,0.447-4.09,0.517-6.178c0.066-1.958,0.105-3.958-0.441-5.858
	c-0.552-1.92-1.391-3.78-2.074-5.658c-0.53-1.461-1.256-3.36-2.781-4.05c-1.281-0.579-2.146,0.333-2.552,1.464
	c-0.205,0.572-0.301,1.175-0.486,1.753c-0.277,0.867-0.734,1.733-1.272,2.466c-0.55,0.749-1.124,1.427-1.56,2.257
	c-0.427,0.812-0.78,1.674-1.091,2.536c-0.744,2.059-1.121,4.205-1.69,6.312c-0.284,1.05-0.63,2.084-0.9,3.138
	c-0.276,1.077-0.359,2.187-0.604,3.27c-0.475,2.098-0.965,4.177-1.341,6.297c-0.764,4.31-1.589,8.609-2.355,12.917
	c-0.38,2.137-0.566,4.279-1.045,6.402c-0.494,2.189-0.735,4.42-1.326,6.588c-0.286,1.049-0.589,2.093-0.787,3.163
	c-0.179,0.965-0.434,1.974-0.511,2.952c-0.074,0.942,0.162,1.872-0.034,2.808c-0.209,1.001-0.331,1.869-0.4,2.893
	c-0.051,0.766-0.212,1.517-0.3,2.28c-0.032,0.275-0.036,0.796-0.377,0.863c-0.281,0.055-0.656-0.384-0.812-0.549
	c-0.948-1-1.641-2.379-2.234-3.605c-0.918-1.897-2.034-3.627-3.084-5.448c-0.949-1.648-2.266-3.13-2.938-4.926
	c-0.763-2.039-0.902-4.25-1.075-6.399c-0.173-2.152-0.187-4.277-0.254-6.433c-0.067-2.137-0.373-4.322-0.747-6.426
	c-0.186-1.046-0.424-2.082-0.596-3.131c-0.17-1.038-0.18-2.095-0.401-3.124c-0.768-3.571-3.346-6.875-5.794-9.488
	c-1.224-1.306-2.6-2.41-4.131-3.334c-0.664-0.4-1.357-0.743-2.041-1.106c-0.543-0.288-1.133-0.596-1.758-0.643
	c-0.473-0.502-0.887-1.055-1.357-1.564c-0.69-0.745-1.467-1.401-2.222-2.077c-0.707-0.633-1.314-1.237-1.853-2.017
	c-0.454-0.658-0.997-1.055-1.775-1.263c-0.926-0.247-1.764-0.429-2.653-0.82c-0.812-0.357-1.59-0.937-2.46-1.141
	c-0.768-0.181-1.568-0.043-2.344-0.003c-0.912,0.047-1.732,0.272-2.628,0.38c-0.704,0.085-1.312,0.141-1.882,0.611
	c-0.617,0.509-1.19,1.236-1.504,1.975c-0.233,0.549-0.236,1.142-0.603,1.635c-0.215,0.288-0.475,0.532-0.668,0.838
	c-0.266,0.42-0.433,0.891-0.67,1.325c-0.278,0.51-0.823,0.953-0.893,1.555c-0.072,0.613,0.389,1.077,0.961,1.217
	c0.613,0.15,1.304-0.072,1.869-0.295c0.316-0.125,0.613-0.275,0.908-0.443c0.539-0.306,0.965-0.375,1.574-0.456
	c0.974-0.13,1.899-0.513,2.879-0.638c0.487-0.062,0.978-0.054,1.464-0.128c0.504-0.076,0.965-0.178,1.478-0.118
	c2.043,0.236,3.278,1.669,4.15,3.41c0.304,0.608,0.575,1.135,1.133,1.541c0.729,0.529,1.378,1.025,2.044,1.636
	c0.591,0.543,1.23,0.869,1.992,1.108c1.019,0.32,1.803,0.697,2.495,1.538c0.6,0.73,1.105,1.57,1.504,2.425
	c0.209,0.449,0.41,0.929,0.514,1.417c0.13,0.609,0.024,1.234,0.111,1.847c0.059,0.413,0.207,0.803,0.277,1.212
	c0.087,0.507,0.039,1.039,0.034,1.552c-0.012,1.176-0.02,2.351-0.009,3.527c0.009,0.961,0.05,1.899,0.204,2.849
	c0.181,1.12,0.572,2.222,0.625,3.356c0.046,0.987-0.062,1.971,0.182,2.942c0.132,0.524,0.323,1.013,0.408,1.551
	c0.088,0.556,0.12,1.12,0.212,1.676c0.159,0.959,0.523,1.881,0.719,2.837c0.196,0.961,0.362,1.93,0.737,2.842
	c0.669,1.631,1.955,3.048,3.182,4.286c0.546,0.551,1.255,0.891,1.801,1.431c0.642,0.635,0.962,1.522,1.613,2.172
	c0.61,0.608,1.33,1.09,1.978,1.654c0.723,0.629,1.393,1.316,2.01,2.049c1.2,1.426,2.18,3.032,3.031,4.686
	c0.289,0.562,0.574,1.081,1.06,1.501c0.778,0.672,1.625,1.232,2.309,2.012c1.564,1.784,1.509,3.916,1.126,6.132
	c-0.16,0.924-0.288,1.866-0.545,2.77c-0.296,1.04-0.856,1.834-1.523,2.665c-0.515,0.642-1.054,1.287-1.42,2.03
	c-0.424,0.861-0.578,1.849-0.799,2.776c-0.493,2.06-0.659,4.011-0.652,6.125c0.013,4.433-0.197,8.911,0.045,13.338
	c0.236,4.3,1.405,8.364,2.203,12.567c0.175,0.924,0.403,1.768,0.778,2.631c0.439,1.011,0.743,2.027,1.072,3.078
	c0.266,0.849,0.52,1.712,1.072,2.423c0.498,0.641,1.094,1.284,1.713,1.809c1.94,1.647,5.537,2.336,7.684,0.642
	c1.271-1.003,1.324-2.625,1.25-4.118c-0.096-1.949-0.145-3.875-0.497-5.8c-0.194-1.059-0.282-2.084-0.36-3.155
	c-0.077-1.052-0.354-2.005-0.71-2.994c-0.306-0.85-0.554-1.715-0.948-2.53c-0.461-0.956-0.853-1.9-1.096-2.938
	c-0.22-0.941-0.27-1.88-0.575-2.805c-0.302-0.914-0.717-1.786-1.123-2.656c-0.451-0.967-0.703-1.876-0.941-2.91
	c-0.229-0.996-0.822-1.864-0.865-2.887c-0.088-2.055-0.972-3.937-1.112-5.98c-0.14-2.034,0.284-4.068-0.101-6.089
	c-0.187-0.982-0.246-1.905-0.247-2.904c-0.002-0.993,0.132-1.836,0.318-2.802c0.18-0.937-0.146-1.91,0.1-2.829
	c0.242-0.902,1.031-1.603,1.517-2.378c0.495-0.791,0.977-1.591,1.466-2.386c0.493-0.802,1.2-1.328,1.771-2.061
	c0.607-0.78,1.144-1.564,1.832-2.283c0.749-0.782,1.479-1.262,2.401-1.806c1.496-0.883,2.64-2.51,3.525-3.969
	c0.464-0.764,0.9-1.572,1.191-2.42c0.337-0.979,0.528-1.993,0.886-2.968c0.717-1.954,1.338-3.933,2.037-5.893
	C292.062,188.787,292.869,186.822,293.526,184.805z"/>
<g>
	<g>
		<path class="st0" d="M28.998,188.679c2.67-2.528,7.582-1.04,10.213-3.608c0.921-0.899,1.394-2.161,2.218-3.15
			c2.621-3.141,7.478-2.499,11.56-2.239c7.688,0.488,15.513-1.483,22.052-5.556c1.433-0.893,2.843-1.922,3.726-3.361
			c1.201-1.956,1.266-4.377,1.297-6.671c0.084-6.258-0.028-13.102-4.028-17.916c-1.753-2.11-4.109-3.622-6.474-5.012
			c-4.959-2.915-10.225-5.481-15.884-6.516s-11.79-0.413-16.645,2.672c-4.465,2.837-7.805,7.652-12.92,9.001
			c-1.654,0.436-3.389,0.47-5.058,0.843c-7.189,1.604-11.787,10.381-9.012,17.204l-0.355,1.209c-1.28,0.379-1.854,1.831-2.254,3.105
			c-5.041,16.038-10.121,33.137-5.809,49.386c1.518,5.722,4.166,11.12,5.369,16.916c1.239,5.97,0.904,12.163,1.884,18.18
			c0.899,5.519,2.914,10.854,5.888,15.589c1.269,2.02,3.064,4.124,5.449,4.147c1.511,0.014,3.114-0.824,4.459-0.133
			c0.778,0.4,1.251,1.229,1.996,1.687c0.767,0.472,1.718,0.493,2.619,0.501c5.867,0.049,11.734,0.098,17.601,0.147
			c6.228,0.052,12.997-0.072,17.872-3.949c6.756-5.372,6.959-15.314,9.756-23.48c0.806-2.352,1.863-4.613,2.672-6.964
			c3.829-11.13,1.573-24.152-5.778-33.344c-1.345-1.682-2.868-3.259-4.715-4.367c-4.344-2.606-9.805-2.282-14.802-1.449
			s-10.098,2.093-15.063,1.085s-9.764-5.177-9.428-10.232C27.494,191.025,27.994,189.63,28.998,188.679z M29.031,210.061
			c5.17-1.09,10.019,2.58,14.032,6.017c2.386,2.043,4.772,4.087,7.158,6.13c1.652,1.414,3.463,2.881,5.602,3.139
			c-0.019-0.201-0.042-0.401-0.054-0.603c0.013,0.201,0.036,0.402,0.054,0.603c0.096,0.012,0.188,0.034,0.285,0.041
			c-0.097-0.007-0.189-0.029-0.285-0.041c0.263,2.844,1.049,5.641,1.053,8.499c0.005,3.059-1.18,6.426-3.936,7.754
			c-1.389,0.669-2.982,0.731-4.524,0.78c-3.683,0.118-7.563,0.193-10.812-1.547c-4.186-2.241-6.339-6.926-8.208-11.291
			c-1.007-2.353-2.015-4.705-3.022-7.058c-0.916-2.14-1.846-4.336-1.972-6.661c-0.048-0.893,0.029-1.809,0.375-2.634
			C25.488,211.502,27.24,210.438,29.031,210.061z M27.02,168.894c-0.359,0.037-0.656,0.068-0.882,0.093
			c0.033-1.585,0.201-3.173,0.451-4.747c0.012-0.072,0.024-0.145,0.036-0.217c0.092-0.554,0.198-1.105,0.323-1.652
			c0.039-0.171,0.082-0.341,0.125-0.512c0.033-0.129,0.064-0.259,0.1-0.388c0.044-0.162,0.094-0.322,0.142-0.482
			c0.05-0.165,0.098-0.33,0.152-0.493c0.027-0.081,0.058-0.161,0.086-0.242c0.598-1.709,1.456-3.31,2.702-4.662
			c0.198-0.215,0.404-0.423,0.614-0.625c0.015-0.014,0.028-0.029,0.043-0.043c0.106-0.101,0.217-0.195,0.326-0.293
			c1.073-0.954,2.286-1.757,3.549-2.433c3.268-1.749,7.513-3.437,11.161-4.061c6.208-1.061,15.219,5.759,9.795,12.324
			C55.745,165.891,32.933,168.279,27.02,168.894z"/>
	</g>
</g>
<path class="st0" d="M303.018,230.076c-0.171,2.961,0.434,7.106,2.588,6.959c9.712-24.375,13.912-52.849,11.876-80.512
	c-0.358-4.86-3.831-15.734-7.692-8.013c-2.79,5.577-2.17,19.696-2.76,26.416C305.42,193.27,304.082,211.658,303.018,230.076z"/>
<path class="st0" d="M307.713,247.371c0.043-0.316,0.031-0.591-0.026-0.907c-0.083-0.463-0.318-0.881-0.603-1.249
	c-0.378-0.489-0.924-0.767-1.548-0.76c-0.128,0.002-0.242,0.045-0.359,0.074c-0.351-0.228-0.795-0.254-1.211-0.047
	c-0.722,0.359-1.389,0.817-2.111,1.175c-0.066,0.033-0.133,0.064-0.197,0.095c-0.04,0.019-0.038,0.019-0.055,0.028
	c-0.017,0.005-0.021,0.005-0.074,0.024c-0.192,0.071-0.385,0.145-0.568,0.233c-0.344,0.166-0.636,0.439-0.824,0.774
	c-0.197,0.354-0.247,0.75-0.349,1.133c-0.024,0.088-0.047,0.173-0.076,0.259c0,0.005-0.074,0.161-0.076,0.185
	c-0.021,0.038-0.043,0.074-0.043,0.074c-0.069,0.126-0.128,0.252-0.185,0.385c-0.43,1.016-0.043,2.063,0.857,2.664
	c0.667,0.446,1.472,0.42,2.239,0.38c0.387-0.019,0.779,0,1.154-0.123c0.055-0.019,0.107-0.04,0.161-0.062
	c0.052-0.019,0.351-0.097,0.069-0.055c0.34-0.05,0.643-0.059,0.957-0.221c0.178-0.093,0.323-0.228,0.484-0.344
	c0.028-0.014,0.09-0.047,0.114-0.062c0.066-0.036,0.133-0.066,0.202-0.097c0.33-0.152,0.636-0.332,0.881-0.613
	c0.095-0.112,0.19-0.24,0.275-0.363c0.005-0.007,0.009-0.014,0.012-0.019c0.15-0.197,0.313-0.387,0.444-0.598
	c0.237-0.387,0.449-0.966,0.344-1.427c0-0.002,0-0.007,0-0.009c0.005-0.017,0.007-0.019,0.014-0.052
	C307.666,247.689,307.692,247.533,307.713,247.371z M301.998,248.084C301.998,248.086,301.998,248.086,301.998,248.084
	C301.993,248.086,301.995,248.086,301.998,248.084z M301.618,249.591c0.009,0.002,0.019,0.005,0.028,0.007
	c-0.014,0-0.021-0.002-0.031-0.002C301.618,249.594,301.618,249.591,301.618,249.591z M301.492,249.546
	c-0.007-0.005-0.007-0.005-0.012-0.007c-0.007-0.009,0,0.002-0.012-0.019C301.447,249.477,301.364,249.328,301.492,249.546z
	 M301.53,249.753L301.53,249.753C301.506,249.798,301.49,249.819,301.53,249.753z M302.981,249.556
	C303.016,249.556,303.026,249.556,302.981,249.556L302.981,249.556z M302.888,249.57c-0.002-0.007,0.028-0.009,0.062-0.012
	C302.917,249.568,302.891,249.575,302.888,249.57z M304.802,248.763c-0.002,0-0.002,0.002-0.005,0.002
	c0.009-0.009,0.009-0.009,0.026-0.024C304.809,248.753,304.811,248.753,304.802,248.763z M305.298,248.076c0,0,0,0.002-0.002,0.002
	c0.002-0.012,0.005-0.026,0.009-0.029C305.303,248.058,305.301,248.067,305.298,248.076z M305.291,248.141
	C305.293,248.183,305.291,248.176,305.291,248.141L305.291,248.141z"/>
</svg>
