<?xml version="1.0" encoding="utf-8"?>
<!-- Generator: Adobe Illustrator 24.2.0, SVG Export Plug-In . SVG Version: 6.00 Build 0)  -->
<svg version="1.0" id="Layer_1" xmlns="http://www.w3.org/2000/svg" xmlns:xlink="http://www.w3.org/1999/xlink" x="0px" y="0px"
	 viewBox="0 0 237.826 138.555" style="enable-background:new 0 0 237.826 138.555;" xml:space="preserve">
<style type="text/css">
	.st0{fill:#FFFFFF;}
</style>
<path class="st0" d="M0,135.679c0.517-0.05,1.044-0.062,1.548-0.139c0.544-0.084,1.067-0.219,1.597-0.32
	c0.17-0.033,0.337-0.148,0.495-0.112c1.044,0.23,1.896-0.046,2.791-0.164c0.103-0.015,0.228,0.013,0.341,0.018
	c0.214,0.01,0.427,0.017,0.64,0.026c-0.082-0.171-0.109-0.366-0.255-0.516c-0.409-0.424-0.366-0.578,0.242-0.647
	c0.706-0.081,1.298-0.324,2.112-0.493c-0.527-0.187-0.885-0.293-1.219-0.453c-0.24-0.116-0.448-0.306-0.67-0.469
	c0.162-0.043,0.354-0.059,0.478-0.13c0.127-0.073,0.201-0.192,0.274-0.303c0.135-0.203,0.252-0.415,0.434-0.711
	c-0.078-0.052-0.341-0.211-0.576-0.398c-0.204-0.163-0.375-0.355-0.561-0.539c0.227-0.023,0.446-0.129,0.683-0.043
	c0.5,0.183,1.009,0.458,1.513,0.684c0.142-0.625,0.357-0.666,1.585-0.335c0.65,0.174,1.326,0.393,1.938,0.497
	c0.514,0.084,0.915,0.034,0.298-0.645c1.459,0.596,2.542,1.5,3.823,1.963c-0.141-0.577-0.787-1.149-1.758-1.652
	c-0.269-0.138-0.495-0.407-0.729-0.626c-0.109-0.102-0.182-0.256-0.287-0.31c-0.902-0.464-0.528-0.682-0.471-0.883
	c0.083-0.294,0.55,0.049,0.94,0.291c0.29,0.182,0.595,0.358,0.893,0.495c0.563,0.258,0.908,0.544,1.269,0.923
	c0.242,0.255,0.776,0.516,1.196,0.739c0.077,0.041,0.338,0.015,0.338-0.051c0.001-0.315,0.396-0.264,0.945-0.093
	c0.249,0.078,0.518,0.182,0.745,0.226c0.371,0.071,0.715,0.104,1.02,0.068c-2.073-0.668-4.103-1.394-6.151-2.518
	c-0.014-0.049-0.027-0.099-0.04-0.149c0.093-0.002,0.172-0.033,0.283-0.002c2.218,0.612,4.41,1.161,6.673,1.783
	c1.419,0.391,2.942,0.931,4.426,1.356c0.212,0.061,0.484,0.212,0.685,0.33c0.249,0.148,0.452,0.305,0.662,0.444
	c0.091,0.009,0.158,0.024,0.16,0.015c0.049-0.283,0.542-0.228,1.199-0.139c0.664,0.089,1.186,0.004,1.741-0.033
	c0.61-0.042,1.264-0.016,2.147,0.232c0.177,0.05,0.435,0.108,0.521,0.086c0.533-0.133,1.273,0.152,1.997,0.294
	c0.031,0.103,0.055,0.182,0.097,0.317c0.212-0.022,0.437-0.01,0.471-0.056c0.166-0.228,0.717-0.144,1.306-0.071
	c1.069,0.133,2.132,0.222,3.19,0.281c0.098,0.006,0.237-0.059,0.21-0.097c-0.189-0.266,0.05-0.357,0.675-0.314
	c0.092,0.007,0.169-0.024,0.213-0.031c-0.235-0.111-0.642-0.287-0.614-0.303c0.18-0.1,0.401-0.229,0.709-0.237
	c0.495-0.014,0.876-0.059,1.166-0.219c0.109-0.06,0.495-0.017,0.755-0.024c0.066,0.035,0.132,0.07,0.198,0.104
	c0.059-0.117,0.206-0.233,0.159-0.357c-0.092-0.245,0.091-0.394,0.447-0.531c0.566-0.22,1.069-0.487,1.647-0.731
	c0.2-0.085,0.531-0.126,0.825-0.139c0.551-0.026,1.117-0.022,1.81-0.05c0.011,0.014,0.099,0.114,0.166,0.215
	c0.282,0.419,1.121,0.612,1.981,0.448c1.308-0.254,2.354-0.103,2.901,0.425c0.146,0.14,0.354,0.262,0.524,0.39
	c0.083,0.064,0.253,0.149,0.199,0.196c-0.35,0.307,0.239,0.349,0.502,0.498c0.31,0.175,0.443,0.416,0.52,0.635
	c0.054,0.155-0.16,0.339-0.164,0.496c-0.003,0.116,0.049,0.252,0.235,0.319c0.874,0.305,0.845,0.394-0.395,0.719
	c0.917,0.19,0.863,0.381-0.193,0.673c-0.504,0.136-0.961,0.29-1.518,0.378c-0.475,0.076-1.07,0.106-1.599,0.107
	c-0.553,0.002-0.939,0.02-1.173,0.166c-0.242,0.15-0.129,0.266,0.392,0.328c0.553,0.065,1.176,0.095,1.77,0.13
	c0.347,0.02,0.695,0.038,1.198,0.06c-0.803,0.136-1.424,0.099-2.031,0.089c-0.314-0.006-0.605-0.042-0.919-0.046
	c-0.183-0.003-0.499,0.023-0.562,0.052c-0.082,0.039-0.064,0.116,0.063,0.134c0.722,0.107,1.43,0.213,2.497,0.094
	c0.345-0.039,0.784-0.041,1.179-0.064c-0.112,0.081-0.161,0.161-0.349,0.229c-0.706,0.258-0.992,0.462-0.564,0.618
	c0.088,0.032,0.427,0.047,0.663,0.066c0.091,0.007,0.288,0.006,0.316,0.015c0.329,0.106,1.404,0.064,2.262,0.057
	c0.405-0.004,0.879-0.033,1.309-0.045c0.254-0.008,0.483-0.002,0.69,0.007c0.72-0.023,1.327-0.199,2.242-0.13
	c0.298-0.048,0.575-0.095,0.891-0.153c0.651,0.034,1.326-0.03,2.094-0.132c0.432-0.058,1.018-0.105,1.477-0.126
	c0.217-0.01,0.3,0.058,0.491,0.098c0.178-0.014,0.502-0.046,0.809-0.065c0.19-0.011,0.356-0.001,0.532,0
	c-0.146,0.038-0.272,0.088-0.442,0.105c-0.375,0.036-0.804,0.069-1.156,0.08c-1.452,0.048-2.693,0.216-4.012,0.305
	c0.001,0.006,0.003,0.011,0.004,0.017c0.463-0.022,0.925-0.045,1.389-0.071c1.299-0.071,2.6-0.157,3.897-0.241
	c0.241-0.015,0.466,0.006,0.699,0.011c-0.212,0.034-0.407,0.077-0.635,0.095c-2.251,0.173-4.507,0.299-6.76,0.39
	c-0.659,0.027-1.314,0.053-1.983,0.074c0.012,0.004,0.001,0.006,0.025,0.006c0.541,0.014,0.501,0.012-0.873,0.036
	c-1.191,0.02-2.4,0.031-3.601,0.041c-1.374,0.011-2.671,0.011-3.927-0.007c-2.108-0.035-4.347-0.045-6.57-0.062
	c-0.237-0.002-0.507,0-0.711,0.002c-0.366,0.003-0.681,0.001-1.156-0.008c-0.206-0.003-0.554-0.004-0.804-0.007
	c-0.677-0.008-0.942-0.015-1.426-0.023c-0.63-0.014-0.78-0.012-1.681-0.025c-0.25-0.004-0.503-0.01-0.749-0.016
	c-0.504-0.015-0.891-0.024-1.26-0.018c-0.536,0.007-0.972,0.009-1.752-0.018c-0.477-0.019-0.822-0.023-1.284-0.018
	c-0.587,0.005-1.252,0.01-1.897,0.007c-1.849-0.009-3.705-0.017-5.559-0.023c-0.667-0.001-1.339-0.028-2.009-0.035
	c-0.631-0.007-1.261,0.002-1.892,0.007c-1.433,0.012-2.866,0.033-4.299,0.069c-0.155,0.003-0.306,0.022-0.459,0.034
	c-0.557,0-1.115,0-1.673,0c-1.844-0.176-3.687-0.423-5.531-0.761c0.174-0.096,0.356-0.128,0.543-0.129
	c0.99-0.001,1.983,0.018,2.972,0.02c0.221,0,0.427-0.069,0.64-0.103c-0.023-0.042-0.046-0.085-0.069-0.128
	c-1.129-0.082-2.258-0.168-3.387-0.259c-0.02-0.045-0.039-0.09-0.059-0.135c0.56-0.178,1.119-0.337,1.679-0.478
	c-0.039-0.053-0.078-0.107-0.117-0.161c-0.995,0.036-1.989,0.091-2.983,0.176c-0.478,0.04-0.943,0.128-1.431,0.146
	c-0.725,0.029-1.485-0.052-2.192,0.03c-1.756,0.22-3.438-0.156-5.124-0.809L0,135.679L0,135.679z"/>
<path class="st0" d="M88.581,97.541c0.357-0.342,0.707-0.741,1.073-1.023c1.438-1.106,2.506-2.758,3.786-4.136
	c0.319-0.344,0.645-0.7,0.981-0.994c0.429-0.375,0.815-0.653,1.108-1.307c0.156-0.347,0.646-0.823,0.992-1.089
	c1.413-1.084,2.096-2.53,2.738-4.029c0.083-0.192,0.103-0.399,0.215-0.567c0.364-0.548,0.474-0.986,0.143-1.024
	c-0.151-0.017-0.549,0.427-0.981,0.781c-0.308-0.018-0.245-0.489-0.029-1.094c0.214-0.597,0.576-0.777,0.961-1
	c0.999-0.582,2.02-1.053,2.939-2.483c0.196-0.306,0.419-0.628,0.548-0.932c0.487-1.146,1.181-1.996,2.069-2.582
	c0.536-0.353,0.894-0.771,1.01-1.439c0.035-0.202,0.146-0.454,0.244-0.687c0.595-1.425,1.236-2.818,2.563-3.496
	c0.047-0.133,0.092-0.22,0.08-0.234c-0.523-0.669-0.117-1.834,0.669-3.206c0.516-0.9,1.019-1.804,1.528-2.705
	c0.073-0.034,0.147-0.069,0.22-0.104c-0.395,1.798-0.789,3.595-1.21,5.504c0.215-0.276,0.472-0.531,0.6-0.789
	c0.214-0.432,0.444-0.928,0.495-1.289c0.204-1.422,0.553-2.937,0.307-4.077c-0.125-0.579,0.031-1.463,0.209-2.286
	c0.062-0.286,0.58-0.796,0.882-1.211c0.293-0.403,0.683-0.831,0.844-1.218c0.779-1.872,1.997-3.506,3.271-5.055
	c0.74-0.901,1.33-1.713,1.573-2.688c0.042-0.165,0.163-0.405,0.288-0.564c0.709-0.9,1.453-1.762,2.144-2.667
	c2.045-2.689,3.105-5.737,2.624-7.578c-0.362-1.393-0.68-2.849-0.464-4.67c0.123-1.042,0.342-2.142,0.663-3.246
	c0.085-0.292,0.695-0.819,1.083-1.092c0.176-0.124,0.464,0.024,0.584,0.171c0.457,0.561,0.843,1.188,1.304,1.725
	c0.221,0.258,0.317,0.506,0.208,1.074c-0.331,1.726-0.212,3.167,1.135,3.407c0.368,0.066,0.755-0.126,1.242-0.766
	c0.888-1.164,1.718-1.518,2.269-1.093c0.08,0.062,0.293,0.027,0.447-0.076c0.78-0.522,1.561-1.083,2.341-1.611
	c0.241-0.163,0.515-0.36,0.715-0.405c0.737-0.168,2.366-1.407,2.951-2.196c-0.237-0.41-0.473-0.771-0.662-1.174
	c-0.049-0.105-0.011-0.378,0.099-0.508c0.136-0.162,0.481-0.381,0.576-0.357c0.802,0.204,1.747-0.744,2.662-1.398
	c0.181-0.13,0.367-0.23,0.574-0.359c0.038,0.046,0.086,0.078,0.106,0.132c0.261,0.685,0.37,0.639,1.343-0.296
	c0.266-0.255,0.688-0.511,0.938-0.559c0.921-0.179,2.277-1.058,3.092-2.033c0.571-0.685,1.142-1.357,1.719-2.014
	c0.106-0.121,0.239-0.27,0.362-0.341c1.679-0.973,2.275-2.448,3.52-3.543c0.137-0.121,0.199-0.438,0.126-0.537
	c-0.476-0.647-0.473-1.466,0.477-2.635c0.687-0.842,1.075-1.608,1.224-2.305c0.066-0.308,0.188-0.635,0.353-0.961
	c0.739-1.444-0.002-2.047-0.995-2.589c-0.344-0.187-0.472-0.525-0.592-0.835c-0.097-0.249-0.304-0.326-0.887-0.187
	c-0.392,0.095-0.803,0.133-1.105,0.102c-0.438-0.045-0.857,0.042-1.401,0.32c-0.838,0.427-1.699,0.839-2.534,1.298
	c-0.414,0.228-0.725,0.387-1.027,0.251c-0.139-0.062-0.45,0.009-0.822,0.024c0.09,0.467,0.068,0.836-0.832,1.157
	c-0.021,0.007-0.059,0.029-0.063,0.038c-0.265,0.649-1.337,1.35-1.408,2.029c-0.089,0.858-0.641,1.481-1.88,2.143
	c-0.499,0.266-0.98,0.633-1.477,0.94c-0.813,0.502-1.627,1.028-2.45,1.485c-0.215,0.12-0.587,0.063-0.666-0.077
	c-0.097-0.169-0.073-0.512,0.094-0.77c0.479-0.739,1.09-1.453,1.578-2.153c0.17-0.242,0.133-0.495,0.192-0.741
	c0.105-0.435,0.211-0.865,0.334-1.355c0.252-0.018,0.398-0.029,0.597-0.044c0.226-0.719,0.503-1.412,0.643-2.052
	c0.1-0.461,0.325-0.872,0.821-1.311c0.262-0.231,0.45-0.487,0.765-0.823c-0.341,0.074-0.514,0.095-0.684,0.152
	c-1.829,0.612-3.658,1.273-5.487,1.9c-0.541,0.185-1.289,0.433-1.585,0.294c-0.547-0.257-1.227-0.299-1.829-0.476
	c-0.502-0.148-0.306-0.731-0.028-1.154c0.526-0.803,0.576-1.481,0.629-2.205c0.043-0.598,0.371-1.242,0.612-1.841
	c0.273-0.676-0.375-1.771-1.062-2.146c-0.514-0.275-0.906-0.703-1.222-1.139c-0.267-0.365-0.654-0.465-1.114-0.301
	c-0.978,0.354-2.111,0.447-2.89,1.233c-0.162,0.164-0.552,0.24-0.836,0.271c-1.83,0.208-2.922-0.664-3.764-1.929
	c-0.361-0.55,0.538-1.751,1.265-1.747c0.433-0.001,0.835,0.578,0.543,0.896c-0.403,0.444-0.099,0.665,0.207,0.895
	c0.184,0.139,0.402,0.246,0.616,0.349c1.086,0.52,1.43,0.377,2.062-0.555c0.174-0.257,0.485-0.455,0.82-0.748
	c-0.157-0.162-0.406-0.422-0.678-0.714c0.234-0.14,0.437-0.302,0.682-0.386c0.219-0.074,0.57-0.152,0.716-0.072
	c0.522,0.286,1.07,0.575,1.44,0.939c0.369,0.364,0.772,0.534,1.372,0.51c0.739-0.03,1.478-0.067,2.269-0.103
	c0.022,0.197,0.036,0.375,0.061,0.552c0.047,0.325,0.192,0.567,0.654,0.749c0.455,0.178,0.722,0.532,1.14,0.848
	c0-0.222,0-0.375,0-0.53c0.84-0.053,1.553,0.186,1.499,0.627c-0.125,1.035,0.791,1.58,1.794,2.039
	c0.502,0.236,1.138,0.405,0.923,0.996c0.099-0.014,0.187-0.009,0.22-0.032c1.013-0.715,2.057-0.725,3.069-0.711
	c0.997,0.02,1.962,0.041,3.093-0.198c0.317-0.066,0.67,0,0.925,0.063c1.142,0.282,2.31,0.502,2.984,1.035
	c0.314,0.253,1.807-0.073,2.404-0.507c1.147-0.828,2.445-1.113,3.854-1.275c0.286-0.032,0.594-0.08,0.846-0.081
	c1.899-0.01,4.202-0.39,5.788-0.147c0.2,0.031,0.568-0.027,0.874-0.066c0.901-0.114,1.81-0.235,2.715-0.345
	c0.065-0.008,0.157-0.019,0.178-0.006c0.272,0.159,0.756,0.194,1.328,0.2c0.325,0.003,0.478,0.131,0.751,0.182
	c0.64,0.122,0.659,0.161,0.098,0.599c-0.13,0.102-0.253,0.206-0.398,0.327c0.145,0.041,0.277,0.078,0.444,0.126
	c-0.251,0.147-0.488,0.29-0.614,0.368c0.208,0.339,0.26,0.73,0.625,0.989c0.472,0.334,1.116,0.618,1.828,0.858
	c0.847,0.286,1.835,0.507,2.781,0.779c0.432,0.126,0.531,0.339,0.162,0.685c-0.325,0.305-0.173,0.431,0.174,0.521
	c0.501,0.13,0.884,0.32,0.871,0.74c-0.003,0.1,0.358,0.181,0.594,0.159c0.564-0.053,0.789,0.079,0.911,0.355
	c0.32,0.726,0.692,1.474,1.034,2.273c0.043,0.103,0.041,0.223,0.044,0.339c0.021,0.633,0.454,0.81,1.494,0.712
	c0.337-0.03,0.644,0.088,1.046,0.158c0.051-0.775,0.14-1.525,0.123-2.227c-0.005-0.166-0.348-0.285-0.571-0.398
	c-0.166-0.084-0.388-0.128-0.441-0.249c-0.059-0.179-0.099-0.362-0.184-0.528c-0.089-0.176-0.307-0.319-0.318-0.503
	c-0.036-0.639-0.683-1.029-1.007-1.512c-0.327-0.487-0.443-1.022-0.646-1.502c-0.064-0.15-0.072-0.316-0.179-0.447
	c-0.064-0.078-0.237-0.156-0.415-0.151c-1.02,0.025-1.098-0.38-1.331-0.689c-0.098-0.133,0.686-0.506,1.182-0.582
	c0.51-0.081,0.623,0.046,0.564,0.225c-0.076,0.234,0.119,0.363,0.492,0.444c1.068,0.236,1.543,0.679,1.355,1.408
	c-0.12,0.47,0.892,0.885,1.86,0.79c1.227-0.121,1.768,0.316,2.375,0.686c0.302,0.185-0.229,0.269-0.505,0.272
	c-0.651,0.008-1.166,0.18-1.488,0.524c-0.126,0.135-0.173,0.359-0.06,0.457c0.393,0.341,0.896,0.646,1.307,1.008
	c0.184,0.16,0.306,0.369,0.356,0.579c0.266,1.11,0.376,2.336,0.803,3.56c0.177,0.505,1.007,0.86,1.548,1.308
	c0.053,0.043,0.188,0.034,0.239,0.078c0.539,0.464,1.208,0.662,2.262,0.311c-0.411,0.825-0.063,1.335,0.574,1.817
	c0.264,0.201,0.396,0.519,0.541,0.804c0.152,0.3,0.384,0.653-0.384,0.662c-0.128,0.002-0.338,0.217-0.351,0.344
	c-0.013,0.128,0.135,0.348,0.278,0.392c0.457,0.141,0.406,0.396,0.349,0.691c-0.143,0.75,0.028,1.477,0.187,2.269
	c0.259,1.287,0.478,2.721-0.587,4.044c-0.496,0.619-0.788,1.424-1.046,2.206c-0.34,1.031-0.894,1.901-1.65,2.784
	c-1.209,1.411-2.274,3.037-3.344,4.726c-0.498,0.786-0.889,1.663-1.276,2.545c-0.112,0.255-0.053,0.588-0.051,0.884
	c0.004,0.686,0.039,1.375,0.019,2.08c-0.005,0.168-0.155,0.459-0.277,0.512c-0.135,0.058-0.387-0.032-0.461-0.162
	c-0.302-0.532-0.615-0.528-1.139-0.079c-0.241,0.207-0.681,0.211-0.982,0.153c-0.692-0.135-1.453,0.439-1.445,1.282
	c0.006,0.609,0.292,1.16,0.487,1.724c0.131,0.377,0.306,0.732,0.492,1.073c0.169,0.31,0.343,0.639,0.582,0.867
	c0.322,0.306,0.692,0.561,1.074,0.774c0.219,0.122,0.501,0.157,0.762,0.14c0.605-0.036,0.758,0.338,0.592,1.003
	c-0.201,0.812-0.48,1.571-1.54,1.858c0.541,0.588,0.923,1.016,1.354,1.505c-0.096,0.246-0.244,0.56-0.339,0.894
	c-0.081,0.283-0.101,0.587,0.002,0.961c0.274-0.332,0.548-0.661,0.837-1.006c0.526,0.456,0.508,0.958,0.028,1.541
	c-0.036,0.043-0.068,0.096-0.108,0.129c-1.307,1.101-1.121,2.166-0.59,3.847c0.151,0.48,0.104,0.764-0.124,1.161
	c-0.733,1.284-0.848,2.551-0.357,3.935c0.187,0.53,0.131,1.297,0.098,1.97c-0.03,0.624,0.08,0.841,0.534,0.652
	c-0.52-1.43-0.314-2.131,0.793-3.039c0.277-0.226,0.482-0.645,0.718-0.976c0.387-0.546,0.758-1.111,1.167-1.61
	c0.11-0.133,0.357-0.167,0.492-0.095c0.078,0.041,0.069,0.379,0.081,0.588c0.005,0.088-0.045,0.184-0.059,0.278
	c-0.178,1.163-0.353,2.343-0.53,3.537c0.064,0.049,0.129,0.098,0.193,0.147c-0.312,0.083-0.623,0.167-1.133,0.312
	c0.313,0.226,0.516,0.312,0.658,0.493c0.317,0.406,0.58,0.905,0.908,1.3c0.539,0.65,1.055,1.413,1.683,1.865
	c1.084,0.782,2.239,1.299,3.532,1.008c1.239-0.275,2.218,0.699,3.17,1.836c0.416,0.497,0.965,0.808,1.481,1.064
	c0.393,0.195,0.618-0.126,0.645-0.804c0.057-1.399,0.202-1.598,1.171-1.593c0.847,0.009,1.735,0.34,2.409-0.554
	c0.056-0.073,0.171-0.089,0.259-0.071c1.049,0.215,1.993-0.085,2.93-0.448c0.304-0.118,0.675-0.072,1.013,0.033
	c0.166,0.051,0.399,0.374,0.464,0.615c0.041,0.15-0.142,0.452-0.282,0.559c-1.654,1.258-3.455,2.197-5.453,2.634
	c-0.137,0.03-0.256,0.163-0.472,0.308c0.632,0.66,1.096,0.324,1.571,0.134c0.639-0.256,1.29-0.449,1.921-0.699
	c0.424-0.169,0.882-0.309,1.221-0.65c0.88-0.887,1.911-1.075,3.029-0.957c0.662,0.07,1.286,0.08,1.341-1.12
	c0.009-0.202,0.288-0.321,0.47-0.392c0.501-0.196,1.017-0.336,1.527-0.479c0.246-0.069,0.48-0.199,0.741-0.188
	c1.06,0.045,2.138,0.231,3.189,0.341c0.79,0.084,1.526,0.12,2.194-0.293c0.541-0.335,1.501,0.092,2.303,0.463
	c0.763,0.352,1.402,0.496,2.003,0.327c0.308-0.086,0.776,0.189,1.179,0.344c0.318,0.123,0.65,0.313,0.97,0.452
	c0.286,0.123,0.563,0.108,0.846,0.338c1.751,1.422,3.331,2.075,4.955,3.096c0.396,0.249,0.869,0.855,1.338,1.465
	c-0.605,0.189-1.367-0.115-2.227-0.619c-1.959-1.148-4.066-2.826-5.921-2.996c-0.376-0.034-0.846-0.352-1.258-0.465
	c-0.34-0.094-0.712-0.206-0.976-0.099c-0.551,0.222-1.138,0.242-1.875-0.204c-0.573-0.347-1-0.208-1.492-0.133
	c-0.795,0.122-1.288,1.17-2.367,0.547c-0.06-0.034-0.127,0.126-0.173,0.177c0.651,0.394,1.275,0.847,1.896,1.162
	c0.232,0.118,0.475-0.074,0.678-0.194c0.187-0.112,0.327-0.322,0.52-0.518c0.445,1.869,0.538,1.932,1.716,2.297
	c0.724,0.232,1.475,0.658,2.409,1.139c-1.044,0.529-1.912,1.047-2.779,1.616c0.033,0.115,0.066,0.23,0.099,0.345
	c0.54,0.168,1.077,0.322,1.622,0.553c0.456,0.19,1.048,0.004,1.303,1.142c0.216,0.962,0.203,1.677-0.703,1.472
	c-0.344-0.075-0.386,0.146-0.281,0.67c0.237,1.177,0.139,1.263-0.692,0.988c-0.113-0.037-0.229-0.066-0.329-0.053
	c-1.243,0.162-2.501,0.37-3.715,0.791c-0.574,0.199-1.107,0.119-1.773-0.261c-1.428-0.81-2.79-1.128-3.615,0.773
	c-0.095,0.217-0.469,0.217-0.71,0.129c-1.006-0.362-1.005-0.389-1.203,1.206c1.791,0.19,3.578,0.427,5.365,1.642
	c0.021,0.119,0.042,0.238,0.064,0.357c-0.345,0.226-0.689,0.46-1.028,0.697c0.307,0.287,0.618,0.58,0.93,0.875
	c-0.002,0.106-0.004,0.211-0.006,0.317c-0.305,0.085-0.6,0.233-0.918,0.257c-0.887,0.07-1.786,0.106-2.675,0.221
	c-0.4,0.052-0.823,0.068-1.177,0.287c-0.954,0.593-1.966,0.181-2.984-0.201c-0.076-0.028-0.144-0.173-0.227-0.277
	c0.26-0.309,0.495-0.588,0.819-0.963c-2.234-0.632-2.612-0.392-3.074,1.733c0.319,0.199,0.633,0.396,0.848,0.534
	c0.061,0.802,0.003,1.598,0.2,2.216c0.191,0.6,0.643,1.014,1.146,1.76c-0.933,0.222-1.71,0.445-2.493,0.645
	c-0.557,0.144-1.124,0.233-1.682,0.384c-0.448,0.121-0.898,0.246-1.332,0.45c-0.472,0.221-0.929,0.525-1.388,0.817
	c-0.441,0.279-0.864,0.65-1.317,0.87c-1.033,0.502-2.072,1.022-3.127,1.433c-0.399,0.156-0.85-0.076-1.277-0.089
	c-0.284-0.008-0.623-0.11-0.845,0.111c-0.9,0.899-1.867,1.116-2.879,1.18c-1.083,0.069-2.156,0.15-3.175,1.164
	c-0.633,0.631-1.338,0.274-1.994-0.271c-0.408-0.339-0.895-0.5-1.357-0.522c-0.53-0.025-1.051,0.17-1.474-0.586
	c-0.125-0.223-0.43-0.228-0.651-0.192c-2.455,0.394-4.856,0.198-7.223-0.457c-0.338-0.093-0.784,0.168-1.124,0.472
	c-0.569,0.511-1.024,0.558-1.559,0.095c-0.423-0.365-0.96-0.43-1.457-0.564c-0.637-0.171-1.293-0.235-1.925-0.414
	c-0.526-0.15-1.021-0.452-1.545-0.599c-0.557-0.155-1.016,0.172-1.542,0.868c-0.607,0.804-1.365,1.406-2.093,1.846
	c-1.716,1.035-3.453,1.948-5.184,2.898c-0.474,0.259-0.958,0.424-1.52,0.424c0.158-0.238,0.297-0.541,0.477-0.704
	c0.448-0.405,0.91-0.775,1.376-1.107c1.242-0.887,2.492-1.733,3.731-2.629c0.122-0.089,0.299-0.551,0.265-0.653
	c-0.084-0.249-0.287-0.582-0.425-0.525c-0.277,0.113-0.54,0.474-0.814,0.711c-0.484,0.418-0.966,1-1.459,1.188
	c-0.832,0.317-1.579,0.757-2.314,1.629c-0.481,0.57-1.105,0.814-1.643,1.281c-0.812,0.705-1.642,1.39-2.396,2.233
	c-0.771,0.862-0.988,0.864-1.135-0.337c-0.159-1.296-0.587-1.35-1.357-0.213c-0.072,0.107-0.139,0.218-0.21,0.326
	c-0.77,1.181-0.886,1.181-1.191-0.027c-0.137-0.547-0.47-0.439-0.7-0.115c-1.375,1.937-2.668,1.682-4.11,1.578
	c-1.663-0.132-3.381-0.211-5.229,0.941c-0.241,0.15-0.567,0.148-0.77,0.049c-0.195-0.096-0.28-0.411-0.413-0.628
	c0.214-0.225,0.416-0.511,0.644-0.665c0.359-0.243,0.735-0.411,1.106-0.586c0.539-0.253,0.738-0.668,0.631-1.333
	c-2.026,0.778-4.043,1.662-6.03,3.003c-0.49,0.33-0.768,0.362-1.057,0.065c-0.292-0.299-0.651-0.508-1.051-0.797
	c-0.815,2.066-2.519,2.594-3.728,3.98c0.995-0.504,1.989-1.009,2.983-1.515c0.014,0.075,0.027,0.151,0.041,0.226
	c-0.068,0.119-0.125,0.293-0.207,0.349c-1.173,0.793-2.345,1.58-3.526,2.307c-0.447,0.276-0.808,0.375-0.943-0.227
	c-0.062-0.278-0.669-0.236-1.066-0.232c-0.344,0.003-0.809,0.277-1.099,0.207c-0.63-0.152-1.26,0.128-1.982,0.544
	c-0.699,0.405-1.441,0.769-2.126,0.952c-0.702,0.188-1.162,0.522-1.648,1.215c-0.993,1.415-1.901,1.847-3.291,1.795
	c0.232-0.389,0.49-0.779,0.676-1.173c0.078-0.165,0.065-0.393-0.023-0.475c-0.068-0.064-0.356,0.004-0.479,0.109
	c-0.154,0.132-0.354,0.425-0.336,0.536c0.116,0.727-0.58,1.04-1.138,1.416c-0.875,0.587-1.753,1.156-2.626,1.837
	c0.215-0.055,0.441-0.135,0.641-0.154c0.13-0.013,0.314,0.028,0.31,0.109c-0.005,0.096-0.175,0.263-0.29,0.39
	c-0.045,0.05-0.139,0.071-0.2,0.119c-0.311,0.249-0.619,0.499-0.928,0.744c0.29,0.041,0.571,0.1,0.873,0.126
	c0.283,0.024,0.588,0.012,1.076,0.024c-1.258,1.266-2.313,2.348-3.481,3.288c-0.425,0.341-1.13,0.518-1.688,0.656
	c-0.67,0.161-1.076,0.007-0.974-0.559c0.033-0.188,0.012-0.364,0.004-0.541c-0.012-0.273,0.128-0.494,0.535-0.746
	c0.228-0.14,0.387-0.4,0.577-0.609c-0.049-0.027-0.099-0.054-0.148-0.081c-0.329,0.175-0.656,0.377-0.986,0.508
	c-0.176,0.069-0.356,0.018-0.534,0.022c0.099-0.143,0.195-0.288,0.299-0.432c0.271-0.379,0.546-0.765,0.819-1.156
	c-0.073-0.029-0.146-0.058-0.219-0.086c-0.367,0.339-0.784,0.658-1.088,1.003c-0.365,0.414-0.768,0.669-1.247,0.784
	c-0.212,0.051-0.544,0.058-0.557-0.033c-0.023-0.167,0.094-0.433,0.261-0.644c0.145-0.181,0.454-0.332,0.668-0.514
	c0.416-0.354,0.515-0.654,0.295-0.885c-0.219-0.232-0.591-0.224-1.011,0.141c-1.105,0.956-2.54,1.637-3.382,2.701
	c-0.061,0.077-0.196,0.184-0.288,0.214c-0.836,0.276-1.089,0.727-1.374,1.212c-0.132,0.225-0.468,0.525-0.772,0.683
	c-0.971,0.506-1.916,0.769-2.78,0.719c-0.266-0.016-0.628,0.076-1.002,0.128c0.096-0.191,0.124-0.402,0.316-0.594
	c0.173-0.171,0.547-0.403,0.792-0.467c0.385-0.101,0.715-0.132,0.959-0.48c0.234-0.335,0.177-0.54-0.166-0.607
	c-0.082-0.015-0.158-0.037-0.309-0.073c1.047-0.918,2.105-1.837,3.456-2.537c0.283-0.146,0.594-0.098,0.906-0.198
	c0.206-0.066,0.548-0.237,0.638-0.365c0.458-0.653,0.657-0.788,1.413-0.867c0.298-0.031,0.64-0.118,0.972-0.241
	c0.509-0.188,1.018-0.415,0.898-0.927c-0.016-0.068,0.239-0.324,0.404-0.457c0.269-0.217,0.57-0.399,0.852-0.607
	c0.564-0.417,0.979-0.888,1.41-1.436c1.142-1.449,2.504-2.829,4.242-3.691c0.16-0.079,0.368-0.178,0.474-0.307
	c0.889-1.078,1.955-1.551,2.915-2.091c-0.06-0.254-0.237-0.602-0.148-0.697c0.301-0.319,0.694-0.577,1.057-0.804
	c0.221-0.139,0.45-0.173,0.677-0.255c0.332-0.122,0.48-0.284,0.56-0.672c0.06-0.287,0.299-0.734,0.552-0.992
	c0.926-0.948,1.869-1.836,2.677-2.992c0.826-1.182,1.866-2.279,2.749-3.483c0.42-0.573,0.688-1.248,1.037-1.882
	c0.231-0.42,0.496-0.836,0.723-1.26c0.138-0.256,0.312-0.57,0.317-0.763c0.003-0.117-0.27-0.112-0.448-0.056
	c-1.129,0.357-1.114,0.364-0.896-0.929c0.13-0.776,0.195-1.522,0.305-2.403c-0.301,0.316-0.623,0.623-0.917,0.965
	c-0.837,0.972-1.607,1.554-2.388,1.462c-0.296-0.035-0.751,0.166-1.15,0.389c-0.609,0.34-1.005,0.329-1.165-0.081
	c-0.183-0.469-0.561-0.403-1.19,0.127c-0.297,0.25-0.602,0.452-0.903,0.672c-0.352,0.256-0.607,0.329-0.568-0.073
	c0.049-0.509-0.248-0.401-0.678-0.112c-0.904,0.607-1.808,1.205-2.711,1.779c-0.261,0.167-0.517,0.253-0.812,0.393
	c0.47-1.3,0.857-2.507,1.349-3.756c0.758-1.934,0-2.543-0.604-3.276c-0.068-0.082-0.41,0.011-0.5,0.126
	c-0.686,0.877-1.617,1.462-2.127,2.534c-0.907,1.902-1.321,3.548-1.402,5.01c-0.039,0.716-0.365,1.285-1.088,1.942
	c-0.626,0.569-1.265,1.134-1.852,1.747c-0.69,0.72-1.333,1.488-1.992,2.223c-0.571,0.639-1.135,1.274-1.684,1.879
	c-0.194,0.506-0.386,1.047-0.62,1.593c-0.468,1.086-0.154,1.614,0.831,1.375c0.496-0.122,0.533,0.172,0.045,0.754
	c-0.438,0.521-0.927,1.014-1.386,1.513c-0.647,0.704-1.214,1.387-1.267,2.045c-0.01,0.116-0.117,0.281-0.17,0.42
	c-0.246,0.647-0.538,1.298-0.718,1.898c-0.143,0.481-0.364,0.794-1.024,1.107c-1.296,0.613-2.646,1.147-3.879,1.912
	c-1.429,0.881-2.517,1.076-3.275,0.851c-0.64-0.193-1.346,0.148-2.126,0.417c-0.217,0.076-0.534,0.121-0.578,0.042
	c-0.049-0.087,0.112-0.345,0.273-0.515c0.863-0.905,1.235-1.72,1.092-2.334c-0.493,0.038-0.865,0.026-1.285,0.109
	c-0.352,0.07-0.785,0.185-1.141,0.397c-0.579,0.345-1.172,0.753-1.673,1.172c-0.552,0.461-1.034,0.961-1.497,1.436
	c-0.458,0.469-0.829,0.943-1.286,1.39c-0.471,0.457-0.787,0.523-0.983,0.226c-0.285-0.432-0.534-0.897-0.797-1.367
	c-0.197-0.35-0.397-0.705-0.589-1.072c-0.191-0.364-0.082-0.737,0.797-1.083c0.177-0.442,0.039-0.629-0.478-0.564
	c-0.589,0.072-1.236,0.194-1.287-0.324c-0.004-0.035-0.096-0.065-0.127-0.047c-0.978,0.544-1.464,0.042-2.34,0.322
	c-0.717,0.226-0.865,0.076-0.654-0.471c0.216-0.562-0.012-0.75-0.728-0.503c-0.512,0.174-0.752,0.072-0.916-0.159
	c-0.374-0.526-0.047-1.544,0.824-2.253c0.772-0.627,1.592-1.328,2.451-1.809c1.615-0.907,2.836-2.156,4.062-3.52
	c0.269-0.3,0.647-0.641,0.976-0.806c3.182-1.598,6.364-3.362,9.546-5.313c0.243-0.149,0.53-0.416,0.72-0.663
	c0.396-0.515,0.702-1.081,1.117-1.59c0.461-0.564,1.002-1.086,1.508-1.634c1.187-1.287,2.374-2.605,3.561-3.95
	c-0.024-0.059-0.049-0.117-0.073-0.175c-0.247,0.19-0.516,0.345-0.737,0.575c-0.516,0.533-1.057,1.071-1.504,1.648
	c-1.581,2.04-3.432,3.424-5.252,4.814c-0.709,0.54-1.324,0.464-1.393-0.058c-0.052-0.394,0.781-1.591,1.463-2.077
	c0.368-0.261,0.744-0.457,1.114-0.714c0.259-0.18,0.515-0.41,0.816-0.655c-0.195-0.377-0.498-0.164-0.907,0.199
	c-0.282,0.25-0.605,0.399-0.909,0.591c0.078-0.319,0.095-0.632,0.244-0.964c0.424-0.94,0.202-1.954-0.606-1.749
	c-0.908,0.23-1.913,0.731-2.861,1.037c-0.456,0.148-0.88,0.17-1.318,0.244c0.36-0.493,0.672-1.076,1.09-1.476
	c1.137-1.091,2.331-2.107,3.477-3.238c0.64-0.632,1.233-1.364,1.839-2.072c0.446-0.521,0.863-1.084,1.32-1.595
	c0.477-0.534,0.915-0.72,1.212-0.479c0.298,0.241,0.262,0.629-0.134,1.333c-0.45,0.799-0.924,1.483-1.567,2.149
	c-0.434,0.449-0.791,1.02-1.183,1.531C88.483,97.456,88.532,97.498,88.581,97.541"/>
<path class="st0" d="M97.907,128.453c-0.72,0.921-1.57,1.684-2.758,2.254c-1.412,0.678-2.847,1.284-4.295,1.825
	c-0.437,0.163-0.952,0.225-1.423,0.306c-0.134,0.022-0.298-0.033-0.338-0.092c-0.023-0.031,0.165-0.169,0.294-0.224
	c0.474-0.202,0.957-0.403,1.447-0.595c1.046-0.41,1.515-0.95,1.792-1.547c0.147-0.32-0.082-0.458-0.571-0.383
	c-0.185,0.028-0.429,0.183-0.646,0.279c0.116,0.059,0.221,0.127,0.352,0.176c0.048,0.018,0.156-0.008,0.307-0.018
	c-0.474,0.611-1.07,1.099-1.94,1.569c-1.117,0.6-2.364,0.892-3.534,1.311c-1.46,0.51-2.252,0.491-2.744,0.064
	c0.46-0.231,0.929-0.475,1.397-0.728c-0.028-0.014-0.057-0.028-0.085-0.042c-0.223,0.098-0.439,0.212-0.672,0.284
	c-0.358,0.113-0.739,0.226-1.088,0.283c-0.47,0.078-0.847,0.204-1.098,0.413c-0.278,0.23-0.646,0.321-1.088,0.394
	c-0.389,0.064-0.787,0.125-1.174,0.219c-1.091,0.263-1.904,0.287-2.433,0.081c-0.315-0.125-0.684-0.134-1.348,0.106
	c-0.528,0.189-0.998,0.22-1.388,0.175c-0.545-0.063-1.181-0.032-1.968,0.114c-0.554,0.101-1.003,0.117-1.275-0.001
	c-0.261-0.115-0.412-0.232,0.093-0.448c-0.164-0.051-0.309-0.097-0.453-0.143c0.256-0.09,0.505-0.204,0.767-0.271
	c0.561-0.143,1.128-0.265,1.692-0.4c0.032-0.047,0.065-0.094,0.097-0.141c-0.229-0.014-0.429-0.067-0.691-0.034
	c-0.698,0.087-1.416,0.189-2.14,0.312c-0.641,0.109-1.269,0.247-1.324-0.06c-0.009-0.052-0.288-0.065-0.474-0.04
	c-0.562,0.076-1.16,0.201-1.703,0.249c-0.293,0.026-0.505-0.054-0.753-0.088c0.259-0.129,0.51-0.264,0.78-0.396
	c0.206-0.101,0.478-0.191,0.645-0.299c0.496-0.316,0.865-0.694,1.817-0.795c0.132-0.014,0.5-0.2,0.537-0.274
	c0.122-0.241,0.422-0.374,0.869-0.478c0.532-0.126,1.018-0.244,1.386-0.118c0.412,0.141,0.901,0.251,1.472,0.273
	c0.648,0.024,1.04-0.158,1.639-0.663c0.442-0.374,0.29-0.543-0.159-0.582c-0.323-0.029-0.719,0.003-1.087,0.012
	c-0.075,0.002-0.236,0.054-0.251,0.036c-0.202-0.242-0.428-0.481-0.539-0.771c-0.024-0.063,0.404-0.294,0.578-0.455
	c0.311-0.286,0.588-0.58,0.874-0.881c0.092-0.097,0.167-0.196,0.183-0.215c0.419-0.046,0.798-0.093,1.17-0.132
	c0.124-0.013,0.282-0.036,0.339,0c0.457,0.288,1.411-0.055,2.153-0.138c0.081-0.009,0.213-0.09,0.432-0.188
	c-0.4-0.229-1.032-0.169-1.612-0.161c-0.189,0.003-0.459,0.057-0.548-0.004c-0.16-0.111-0.21-0.291-0.307-0.445
	c0.451-0.212,0.923-0.508,1.349-0.634c0.756-0.223,1.487-0.353,2.222-0.516c0.258-0.057,0.615-0.163,0.725-0.1
	c0.365,0.208,0.977-0.043,1.557-0.213c0.335-0.098,0.662-0.175,0.993-0.262c-0.209,0.253-0.419,0.503-0.686,0.816
	c0.083-0.006,0.253-0.001,0.444-0.037c0.455-0.085,0.926-0.212,1.013,0.104c0.017,0.059,0.416-0.016,0.626-0.112
	c1.383-0.633,2.762-1.315,4.142-2.021c0.136-0.069,0.269-0.181,0.403-0.241c0.458-0.206,1.072-0.74,1.254-0.319
	c0.158,0.37-0.208,0.853-0.916,1.27c-0.176,0.105-0.386,0.225-0.502,0.348c-0.553,0.589-1.166,0.791-1.843,0.923
	c-1.276,0.251-2.504,0.994-3.768,1.583c0.37,0.374,0.349,0.406-0.498,0.932c-0.917,0.565-1.829,1.108-2.737,1.627
	c-0.453,0.263-0.447,0.865,0.025,0.877c0.479,0.014,0.983,0.011,1.504-0.015c0.114-0.006,0.38-0.137,0.523-0.229
	c0.582-0.374,1.164-0.603,1.796-0.641c-0.225,0.405-0.424,0.535-1.388,0.933c0.789,0.068,1.618,0.144,2.51,0.238
	c0.165-0.614,1.121-0.949,1.896-1.196c1.452-0.467,2.908-0.861,4.356-1.263c1.748-0.486,3.494-0.964,5.231-1.403
	c0.485-0.123,0.937-0.09,1.449-0.127c-0.466,0.608-1.015,0.754-1.543,0.919c-0.528,0.163-1.055,0.307-1.582,0.459
	c-0.02,0.052-0.039,0.105-0.059,0.157C96.344,128.682,97.08,128.571,97.907,128.453"/>
<path class="st0" d="M80.953,135.712c-0.163,0.152-0.27,0.25-0.442,0.401c0.412-0.065,0.752-0.122,1.092-0.176
	c0.659-0.103,1.319-0.207,1.979-0.312c0.161-0.026,0.325-0.033,0.485-0.062c1.431-0.263,2.86-0.548,4.291-0.845
	c0.323-0.067,0.653-0.134,0.971-0.172c0.155-0.018,0.378,0.011,0.408,0.063c0.026,0.045-0.146,0.182-0.281,0.223
	c-0.802,0.251-1.611,0.483-2.435,0.68c-0.389,0.093-0.715,0.152-0.954,0.336c-0.15,0.115-0.569,0.212-0.882,0.304
	c-0.36,0.106-0.832,0.182-1.083,0.298c-0.407,0.185-0.843,0.233-1.371,0.284c-1.428,0.138-2.857,0.283-4.143,0.402
	c0.397,0.068,0.875,0.154,1.405,0.256c0.532-0.287,1.468-0.367,2.355-0.487c1.39-0.199,2.906-0.36,4.109-0.718
	c1.261-0.386,2.344-0.453,3.533-0.518c0.135-0.008,0.294-0.015,0.387,0.009c0.193,0.051,0.348,0.124,0.519,0.19
	c-0.223,0.076-0.439,0.182-0.672,0.218c-0.622,0.095-1.254,0.148-1.876,0.238c-0.296,0.043-0.579,0.132-0.868,0.198
	c0.018,0.026,0.035,0.052,0.053,0.078c0.474-0.07,0.948-0.168,1.42-0.213c0.847-0.079,1.708-0.158,2.533-0.17
	c0.615-0.01,0.652,0.211,0.135,0.412c-0.163,0.064-0.369,0.11-0.565,0.15c-1.297,0.265-2.593,0.5-3.899,0.69
	c-0.482,0.071-0.991,0.12-1.491,0.148c-0.252,0.014-0.598-0.008-0.748-0.055c-0.416-0.132-0.804-0.238-1.574-0.17
	c-0.148,0.012-0.325-0.085-0.515-0.137c-0.168,0.052-0.34,0.118-0.558,0.16c-0.2,0.039-0.449,0.055-0.677,0.08
	c0.004-0.059-0.017-0.119,0.022-0.181c0.02-0.034,0.144-0.07,0.133-0.14c-0.436,0.1-0.86,0.2-1.315,0.279
	c-0.286,0.049-0.62,0.085-0.933,0.106c-1.083,0.071-2.166,0.13-3.249,0.196c-0.166,0.01-0.33,0.049-0.465,0.1
	c0.238-0.006,0.475-0.007,0.714-0.018c1.67-0.08,3.341-0.163,5.012-0.254c1.182-0.064,1.382-0.056,2.137,0.219
	c-0.806,0.047-1.551,0.097-2.295,0.121c-1.933,0.062-3.837,0.167-5.721,0.275c-0.47,0.026-1.022,0.005-1.528,0.022
	c-0.379,0.011-0.85,0.035-1.094,0.064c-0.402,0.047-0.825,0.057-1.358,0.064c-2.339,0.03-4.678,0.05-7.016,0.061
	c-2.617,0.013-5.236,0.03-7.85,0.048c-1.41,0.009-2.813,0.024-4.218,0.034c-0.136,0.001-0.295,0.003-0.396,0.007
	c-0.187,0.007-0.338,0.016-0.504,0.023c0.2,0.005,0.396,0.012,0.601,0.012c1.483-0.002,2.968-0.011,4.453-0.026
	c0.408-0.004,0.829-0.008,0.962-0.002c0.034,0.001,0.4-0.004,0.632-0.008c0.24-0.003,0.509-0.008,0.755-0.013
	c1.348-0.025,2.693-0.065,4.037-0.122c0.223-0.01,0.445-0.021,0.647-0.034c1.14-0.073,2.277-0.141,3.458-0.147
	c1.371-0.011,1.666-0.009,2.582-0.187c0.434-0.087,0.768-0.203,1.324-0.302c0.559-0.098,1.354-0.211,2.015-0.261
	c0.984-0.071,1.521-0.275,2.336-0.407c0.154-0.025,0.314-0.114,0.342-0.165c0.064-0.116,0.318-0.187,0.767-0.267
	c1.246-0.221,2.482-0.477,3.723-0.752C80.455,135.807,80.612,135.78,80.953,135.712"/>
<path class="st0" d="M132.02,116.102c0.467,0.035,0.933,0.073,1.577,0.136c-0.324,0.421-0.543,0.836-0.825,1.044
	c-1.399,1.031-2.81,2-4.226,2.921c-0.687,0.446-1.393,0.825-2.094,1.206c-0.279,0.152-0.569,0.247-0.986,0.424
	c0.211-0.484,0.351-0.806,0.491-1.129c-0.024-0.049-0.047-0.097-0.07-0.145c-0.359,0.274-0.713,0.555-1.077,0.811
	c-0.558,0.395-1.042,0.769-1.659,0.425c-0.457-0.253-1.161,0.11-1.762,0.653c-0.274,0.248-0.702,0.423-1.01,0.434
	c-0.676,0.023-0.742-0.264-0.443-1.019c0.107-0.27,0.087-0.555,0.125-0.834c-0.319,0.226-0.687,0.406-0.94,0.688
	c-0.188,0.211-0.237,0.556-0.331,0.839c-0.429,1.298-1.448,2.198-2.463,2.198c-0.216,0-0.529-0.096-0.545-0.247
	c-0.091-0.816-0.225-1.622,0.551-2.596c0.65-0.819,0.51-1.163-0.331-1.103c-0.681,0.047-1.325-0.016-1.985-0.018
	c0.016-0.096,0.033-0.193,0.049-0.289c0.318-0.187,0.632-0.394,0.952-0.559c0.321-0.165,0.655-0.255,0.972-0.433
	c0.694-0.389,0.786-0.628,0.448-1.164c0.221-0.149,0.426-0.311,0.638-0.427c0.712-0.39,1.427-0.763,2.14-1.152
	c0.877-0.478,1.696-0.779,2.403-0.413c0.182,0.094,0.554,0.012,0.811-0.14c0.95-0.561,1.883-1.234,2.834-1.803
	c1.873-1.12,3.751-2.229,5.632-3.316c0.407-0.235,0.837-0.277,1.394-0.447c-0.325,0.707-0.547,1.186-0.897,1.937
	c0.758-0.302,1.326-0.555,1.892-0.744c0.505-0.168,1.014-0.305,1.506-0.363c0.137-0.017,0.285,0.248,0.306,0.45
	c0.011,0.11-0.228,0.455-0.368,0.523c-1.06,0.525-2.122,1.037-3.186,1.495c-1.019,0.438-2.043,0.791-3.063,1.228
	c-0.213,0.091-0.42,0.366-0.63,0.555c0.201,0.136,0.388,0.442,0.605,0.384c0.689-0.182,1.39-0.469,2.085-0.769
	c0.971-0.419,1.94-0.891,2.91-1.332c0.161-0.073,0.349-0.167,0.479-0.13c0.179,0.052,0.315,0.22,0.469,0.341
	c-0.15,0.193-0.286,0.456-0.454,0.563c-0.358,0.23-0.734,0.371-1.101,0.564c-0.261,0.137-0.52,0.299-0.78,0.45
	C132.049,115.9,132.034,116.001,132.02,116.102"/>
<path class="st0" d="M72.4,113.99c-0.639,0.327-1.036,0.323-1.16-0.145c-0.026-0.096-0.38-0.116-0.516-0.028
	c-0.488,0.316-0.949,0.687-1.408,1.019c-0.791-0.211-0.868-0.433-0.47-1.256c0.057-0.118,0.152-0.325,0.109-0.343
	c-0.661-0.27-0.055-0.863,0.201-1.379c0.029-0.058,0.013-0.119,0.026-0.272c-0.334,0.203-0.629,0.388-0.929,0.555
	c-0.428,0.239-0.599,0.114-0.459-0.249c0.127-0.332,0.358-0.672,0.558-1.011c0.1-0.169,0.261-0.33,0.347-0.5
	c0.405-0.806,0.87-1.095,1.604-0.992c0.41,0.055,0.545,0.252,0.227,0.747c-0.163,0.253-0.285,0.514-0.514,0.927
	c0.912-0.422,1.347-1.015,1.751-1.675c0.566-0.926,1.265-1.242,1.794-0.826c0.021,0.017,0.003,0.074,0.003,0.069
	c-0.418,0.418-0.817,0.812-1.218,1.202c0.026,0.052,0.053,0.105,0.079,0.157c0.218-0.073,0.436-0.126,0.653-0.226
	c1.273-0.592,2.545-1.227,3.817-1.909c0.322-0.173,0.642-0.396,0.962-0.6c0.39-0.247,0.71-0.338,0.79,0
	c0.072,0.305-0.079,0.635-0.504,0.92c-0.485,0.326-0.658,0.691-0.786,1.124c-0.082,0.282-0.28,0.614-0.495,0.896
	c-0.585,0.771-1.219,1.509-1.812,2.246c-0.93,1.156-1.809,2.292-2.778,3.346c-0.36,0.392-0.901,0.706-1.378,1.013
	c-0.163,0.105-0.381,0.111-0.574,0.161c0.056-0.196,0.038-0.418,0.181-0.587c0.365-0.433,0.816-0.844,1.206-1.285
	c0.277-0.315,0.51-0.652,0.763-0.984C72.447,114.067,72.423,114.028,72.4,113.99"/>
<path class="st0" d="M141.274,114.963c-0.445,0.363-0.859,0.656-1.245,1.016c-1.295,1.207-2.586,2.397-3.863,3.587
	c-0.195,0.182-0.363,0.546-0.443,0.845c-0.236,0.884-0.64,1.471-1.342,1.598c-1.377,0.256-2.762,0.708-4.095,0.364
	c-0.461-0.116-1.139,0.242-1.675,0.554c-0.81,0.473-1.456,0.396-2.059,0.007c-0.428-0.276-0.401-0.559,0.124-0.895
	c0.461-0.294,0.958-0.46,1.426-0.735c1.827-1.084,3.753-1.821,5.408-3.616c0.167-0.182,0.395-0.259,0.594-0.391
	c0.35-0.231,0.808-0.367,1.03-0.721c1.286-2.057,3.11-2.101,4.598-3.406c0.38-0.337,0.73-0.261,0.852,0.428
	C140.669,114.077,140.987,114.415,141.274,114.963"/>
<path class="st0" d="M127.282,25.398c0.671-0.073,1.506-0.645,2.076-1.407c0.067-0.089,0.111-0.206,0.187-0.269
	c0.503-0.413,1.121-0.764,1.49-1.22c0.413-0.509,0.65-1.055,1.326-1.234c0.128,0.557-0.627,1.888-1.52,2.68
	c-1.566,1.38-3.197,2.354-4.851,3.103c-0.46,0.209-0.919,0.41-1.377,0.605c-0.5,0.214-0.975,0.402-0.963-0.241
	c0.002-0.107-0.276-0.093-0.449-0.076c-0.844,0.084-1.71,0.208-2.543,0.241c-0.749,0.03-1.361-0.266-2.302,0.186
	c-0.338,0.163-0.789,0.102-0.964-0.107c-0.289-0.347-0.706-0.126-1.145-0.047c-0.46,0.084-0.857-0.081-1.281-0.145
	c0.026-0.114,0.052-0.228,0.078-0.342c0.337-0.263,0.672-0.596,1.013-0.772c1.295-0.671,2.592-1.3,3.888-1.927
	c0.515-0.248,0.934-0.302,1.162,0.105c0.096,0.171,0.406,0.142,0.584,0.247c0.172,0.103,0.38,0.205,0.431,0.406
	c0.198,0.79,0.372,0.857,1.369,0.375c0.324-0.157,0.65-0.32,0.971-0.454c0.128-0.053,0.249-0.034,0.422-0.054
	c-0.086,0.224-0.16,0.421-0.263,0.693c0.736-0.314,1.444-0.617,2.153-0.922c0.091-0.039,0.202-0.122,0.274-0.124
	c0.227-0.009,0.439,0.011,0.657,0.019C127.563,24.944,127.421,25.173,127.282,25.398"/>
<path class="st0" d="M91.945,132.924c0.097-0.003,0.156,0.005,0.181-0.007c1.009-0.523,2.001-0.613,2.986-0.632
	c0.199-0.005,0.488-0.009,0.529,0.064c0.043,0.077-0.127,0.256-0.27,0.369c-0.187,0.148-0.457,0.268-0.655,0.41
	c-0.15,0.107-0.243,0.233-0.361,0.348c0.245,0.025,0.482,0.106,0.736,0.07c0.71-0.103,1.432-0.283,2.141-0.384
	c0.327-0.046,0.637,0.029,0.955,0.052c-0.004,0.052-0.008,0.104-0.012,0.156c-0.308,0.106-0.619,0.256-0.924,0.302
	c-1.084,0.165-2.167,0.299-3.25,0.441c-0.482,0.064-0.969,0.131-1.444,0.17c-0.573,0.046-1.134,0.066-1.66,0.099
	c0.09-0.267,0.154-0.461,0.247-0.746c-0.339,0.143-0.505,0.231-0.687,0.281c-0.306,0.085-0.688,0.213-0.922,0.203
	c-0.808-0.037-1.534,0.101-2.435,0.384c-1.02,0.318-2.144,0.519-3.227,0.734c-0.687,0.135-1.39,0.247-2.073,0.331
	c-0.393,0.048-0.814,0.056-1.13,0.03c-0.574-0.046-0.413-0.221,0.209-0.446c1.092-0.395,2.234-0.673,3.432-0.867
	c0.16-0.026,0.327-0.053,0.473-0.059c1.852-0.073,3.725-0.518,5.602-1.128c0.316-0.102,0.625-0.225,0.944-0.321
	C91.906,132.603,91.917,132.611,91.945,132.924"/>
<path class="st0" d="M112.383,24.871c0.143,1.22,0.427,2.053,1.817,1.395c-0.02,0.094-0.039,0.189-0.059,0.283
	c-0.263,0.253-0.516,0.585-0.79,0.75c-2.297,1.372-4.544,2.525-6.471,1.506c-0.258-0.138-0.695,0.063-1.028,0.04
	c-0.252-0.016-0.679-0.073-0.666-0.227c0.041-0.51,0.194-1.086,0.415-1.598c0.073-0.169,0.502-0.311,0.732-0.318
	c0.37-0.01,0.709,0.1,1.112,0.162c0.374-0.729,0.775-1.293,1.482-1.121c0.392,0.092,0.644-0.479,0.838-0.941
	c0.508-1.215,0.633-1.217,1.453-0.902c0.382,0.145,0.945-0.016,1.439-0.154c0.804-0.226,1.623-0.582,2.426-0.806
	c0.259-0.071,0.681,0.016,0.689,0.188c0.019,0.464-0.399,0.77-0.797,0.915c-0.414,0.15-0.823,0.225-1.236,0.356
	C113.308,24.535,112.874,24.7,112.383,24.871"/>
<path class="st0" d="M120.754,126.645c0.745-0.22,1.497-0.389,2.232-0.679c0.729-0.288,1.441-0.703,2.335-1.163
	c-0.244,1.004-0.788,1.296-1.29,1.605c-0.881,0.541-1.768,1.048-2.657,1.537c-1.347,0.744-2.638,0.988-3.943,0.601
	c-0.692-0.205-1.51-0.191-2.296-0.139c-0.634,0.045-0.936,0.516-0.624,0.943c0.271,0.372,0.082,0.619-0.325,0.802
	c-0.507,0.23-1.033,0.449-1.554,0.562c-0.662,0.142-0.754-0.028-0.488-0.603c0.093-0.2,0.11-0.412,0.162-0.62
	c-0.247,0.108-0.503,0.199-0.74,0.327c-0.191,0.104-0.369,0.334-0.538,0.358c-0.299,0.042-0.587-0.027-0.879-0.047
	c0.101-0.222,0.152-0.576,0.312-0.651c0.989-0.464,1.995-1.007,3.011-1.311c1.834-0.547,3.642-1.148,5.427-2.062
	c0.824-0.423,1.686-0.723,2.534-1.065c0.225-0.09,0.482-0.161,0.683-0.127c0.153,0.025,0.241,0.229,0.358,0.356
	c-0.151,0.126-0.301,0.319-0.454,0.362c-0.476,0.132-0.96,0.195-1.293,0.711C120.736,126.443,120.745,126.544,120.754,126.645"/>
<path class="st0" d="M95.399,120.287c0.434-0.177,0.786-0.285,1.133-0.47c1.051-0.563,1.891-0.701,2.491-0.493
	c1.107-0.945,2.13-1.865,3.175-2.783c0.157-0.138,0.58-0.272,0.601-0.211c0.112,0.337,0.473,0.13,0.849-0.053
	c0.332-0.161,0.662-0.293,1.045-0.461c-0.154,0.664-0.628,1.045-1.146,1.337c-0.453,0.255-0.697,0.56-1.033,0.946
	c-1.015,1.167-2.134,2.25-3.235,3.29c-0.1,0.094-0.4,0.139-0.547,0.125c-0.308-0.03-0.534-0.181-0.868-0.156
	c-0.619,0.048-1.19,0.086-1.459-0.282c-0.072-0.099-0.399-0.054-0.637,0.023c-0.839,0.272-0.929,0.226-0.572-0.499
	C95.258,120.472,95.368,120.335,95.399,120.287"/>
<path class="st0" d="M108.317,126.901c0.499,0.11,0.841,0.192,1.182,0.275c-0.02,0.051-0.04,0.102-0.06,0.153
	c-0.518,0.184-1.034,0.377-1.552,0.544c-1.225,0.395-2.451,0.776-3.676,1.143c-0.366,0.109-0.866,0.268-0.798-0.114
	c0.029-0.165,0.492-0.449,0.796-0.633c0.336-0.203,0.716-0.35,1.155-0.562c-0.695-0.308-0.659-0.522,0.038-1.129
	c0.915-0.799,2-1.278,3.071-1.79c0.251-0.12,0.505-0.228,0.754-0.357c0.374-0.194,0.613-0.213,0.868-0.012
	c0.356,0.281,0.868,0.422,1.28,0.672c0.175,0.106,0.265,0.305,0.394,0.464c-0.316,0.164-0.68,0.455-0.938,0.459
	c-0.574,0.01-1.108-0.052-1.729,0.343C108.879,126.498,108.668,126.659,108.317,126.901"/>
<path class="st0" d="M95.153,131.471c0.24-0.182,0.377-0.326,0.564-0.428c0.927-0.509,1.847-1.06,2.811-1.578
	c0.424-0.228,0.965-0.402,1.419-0.48c0.62-0.106,1.045-0.33,1.502-0.749c0.343-0.315,0.806-0.621,1.255-0.854
	c0.484-0.252,0.813-0.164,0.789,0.228c-0.026,0.419-0.251,0.793-0.777,1.191c-2.169,1.623-4.6,2.079-7.027,2.644
	C95.548,131.477,95.409,131.46,95.153,131.471"/>
<path class="st0" d="M123.325,127.805c0.913-0.437,1.816-0.968,2.743-1.326c0.856-0.33,1.739-0.482,2.609-0.662
	c0.146-0.03,0.289,0.196,0.432,0.305c-0.156,0.198-0.289,0.476-0.471,0.577c-0.839,0.469-1.71,0.825-2.534,1.313
	c-0.839,0.496-1.629,1.117-2.459,1.612c-0.188,0.112-0.452,0.04-0.679,0.039c-0.367-0.004-0.746-0.117-1.097-0.004
	c-0.798,0.257-1.58,0.62-2.372,0.912c-0.218,0.08-0.479,0.176-0.666,0.13c-0.207-0.051-0.352-0.254-0.524-0.388
	c0.193-0.159,0.37-0.355,0.581-0.475c1.065-0.606,2.128-1.253,3.215-1.846c0.37-0.202,0.809-0.192,1.216-0.277
	C123.321,127.745,123.323,127.775,123.325,127.805"/>
<path class="st0" d="M182.113,50.144c-0.667-0.164-1.343-0.283-2-0.457c-0.344-0.092-0.647-0.326-0.984-0.445
	c-0.791-0.28-1.375-0.736-1.389-1.863c-0.003-0.223-0.226-0.387-0.319-0.599c-0.154-0.35-0.384-0.687-0.399-1.075
	c-0.022-0.539,0.286-0.873,0.793-0.785c0.88,0.154,1.715,0.333,2.223,1.322c0.342,0.664,0.975,1.099,1.408,1.73
	c0.36,0.521,0.618,1.156,0.921,1.755C182.282,49.865,182.198,50.004,182.113,50.144"/>
<path class="st0" d="M102.451,132.589c-0.402-0.019-0.795-0.07-1.21-0.037c-0.248,0.021-0.527,0.184-0.798,0.251
	c-0.229,0.058-0.466,0.073-0.699,0.107c0.031-0.149-0.026-0.339,0.107-0.441c1.191-0.907,2.473-1.851,4.228-2.146
	c0.847-0.144,1.209,0.482,0.671,1.084C104.174,132.049,103.388,132.368,102.451,132.589"/>
<path class="st0" d="M104.171,133.706c-0.692,1.083-1.257,1.356-2.581,1.389c-0.885,0.022-1.765-0.001-2.617-0.05
	c-0.299-0.018-0.591-0.179-0.714-0.332c-0.05-0.061,0.327-0.315,0.567-0.449c0.386-0.216,0.819-0.406,1.235-0.618
	c0.617,0.699,0.514,0.618,1.989,0.373C102.717,133.909,103.385,133.822,104.171,133.706"/>
<path class="st0" d="M113.946,119.285c-0.215,0.174-0.43,0.345-0.645,0.518c-0.578,0.466-1.181,0.897-1.725,1.386
	c-0.522,0.47-0.974,0.839-1.478,0.588c-0.102-0.05-0.32,0.034-0.419-0.018c-0.195-0.101-0.484-0.2-0.472-0.394
	c0.013-0.199,0.342-0.678,0.53-0.758c1.392-0.58,2.783-1.091,4.174-1.622C113.923,119.085,113.934,119.185,113.946,119.285"/>
<path class="st0" d="M82.122,134.375c-0.716,0.125-1.434,0.255-2.145,0.364c-0.264,0.041-0.546,0.059-0.757,0.048
	c-0.137-0.008-0.238-0.078-0.205-0.14c0.023-0.041,0.31-0.138,0.485-0.179c1.126-0.26,2.254-0.527,3.381-0.797
	c0.219-0.052,0.494-0.098,0.647-0.08c0.202,0.023,0.456,0.092,0.414,0.179c-0.045,0.093-0.388,0.259-0.638,0.332
	c-0.376,0.112-0.784,0.173-1.179,0.254C82.124,134.363,82.123,134.369,82.122,134.375"/>
<path class="st0" d="M86.871,128.178c-0.363,0.774-2.123,1.81-3.18,1.973c-0.431,0.069-0.469-0.042-0.227-0.281
	c0.454-0.451,1.015-0.889,1.83-1.181C85.814,128.504,86.333,128.353,86.871,128.178"/>
<path class="st0" d="M81.512,102.076c0.152-0.031,0.527-0.171,0.82-0.157c0.333,0.016,0.601,0.119,0.067,0.788
	c-0.49,0.612-0.863,1.288-1.339,1.897c-0.173,0.222-0.495,0.363-0.749,0.538c0.011-0.255-0.08-0.519,0.055-0.768
	c0.216-0.394,0.282-0.561,0.031-0.746C80.03,103.354,80.524,102.602,81.512,102.076"/>
<path class="st0" d="M54.387,136.504c0.578-0.016,1.209-0.121,1.336,0.071c0.081,0.12-0.075,0.211-0.634,0.255
	c-0.925,0.073-1.796,0.062-2.585-0.029c-0.165-0.019-0.234-0.077-0.347-0.118c0.176-0.025,0.343-0.063,0.527-0.075
	C53.278,136.572,53.878,136.54,54.387,136.504"/>
<path class="st0" d="M84.723,107.572c-1.285,0.897-2.366,1.064-3.427,1.184c-0.368,0.041-0.291-0.267,0.068-0.606
	c0.936-0.878,2.906-1.439,3.352-0.942C84.768,107.268,84.723,107.424,84.723,107.572"/>
<path class="st0" d="M85.976,101.926c0.001-0.576-0.442-0.443-0.947-0.196c-0.412,0.201-0.828,0.434-1.239,0.622
	c-0.227,0.105-0.447,0.155-0.759,0.257c0.439-0.544,0.758-0.963,1.098-1.369c0.57-0.675,2.49-1.128,2.607-0.601
	C86.83,101.064,86.651,101.507,85.976,101.926"/>
<path class="st0" d="M181.093,58.822c0.245,0.63,0.446,1.109,0.611,1.615c0.052,0.158,0.049,0.399-0.002,0.571
	c-0.129,0.437-0.226,0.989-0.472,1.259c-0.289,0.316-0.72,0.442-1.094,0.516c-0.074,0.014-0.295-0.65-0.226-0.93
	C180.169,60.787,180.425,59.7,181.093,58.822"/>
<path class="st0" d="M121.85,20.758c-0.974,0.22-1.785,0.409-2.585,0.549c-0.135,0.024-0.328-0.106-0.313-0.218
	c0.02-0.14,0.212-0.407,0.353-0.486c0.657-0.369,1.346-0.826,1.974-0.973c0.388-0.091,0.696,0.293,0.999,0.503
	C122.299,20.148,121.982,20.566,121.85,20.758"/>
<path class="st0" d="M101.056,115.571c0.357-0.066,0.573-0.105,0.789-0.145c-0.128,0.229-0.212,0.475-0.39,0.679
	c-0.692,0.797-1.489,1.426-2.381,1.823c-0.174,0.078-0.433,0.11-0.471,0.031c-0.039-0.08,0.103-0.372,0.241-0.493
	C99.584,116.82,100.348,116.184,101.056,115.571"/>
<path class="st0" d="M96.767,132.162c0.804-0.355,1.416-0.64,2.03-0.929c0.064-0.03,0.136-0.059,0.204-0.075
	c0.529-0.119,1.246-0.341,1.325,0.045c0.087,0.419-0.667,0.561-1.135,0.696C98.42,132.121,97.631,132.297,96.767,132.162"/>
<path class="st0" d="M114.019,131.344c-0.323,0.221-0.626,0.506-0.974,0.637c-0.797,0.301-1.612,0.547-2.428,0.742
	c-0.227,0.053-0.484-0.114-0.727-0.177c0.193-0.122,0.373-0.281,0.582-0.364c0.792-0.314,1.587-0.639,2.394-0.921
	c0.336-0.118,0.704-0.1,1.057-0.143C113.955,131.193,113.987,131.269,114.019,131.344"/>
<path class="st0" d="M100.216,29.374c0.631-1.326,2.376-2.146,2.997-1.547c0.283,0.273,0.179,0.951-0.224,1.137
	C102.036,29.4,101.094,29.631,100.216,29.374"/>
<path class="st0" d="M113.732,126.382c-0.365,0.066-0.765,0.172-1.141,0.193c-0.182,0.009-0.39-0.101-0.446-0.235
	c-0.035-0.083,0.163-0.383,0.309-0.471c0.477-0.283,0.974-0.553,1.473-0.764c0.443-0.19,1.015,0.193,0.942,0.604
	c-0.023,0.124-0.209,0.324-0.349,0.398C114.279,126.233,114.015,126.288,113.732,126.382"/>
<path class="st0" d="M111.741,133.076c-0.221,0.128-0.435,0.323-0.662,0.366c-0.841,0.157-1.687,0.276-2.53,0.37
	c-0.116,0.013-0.269-0.176-0.318-0.3c-0.024-0.06,0.15-0.267,0.238-0.282c1.019-0.168,2.038-0.312,3.057-0.464
	C111.598,132.869,111.669,132.972,111.741,133.076"/>
<path class="st0" d="M92.984,135.241c0.517-0.125,0.904-0.26,1.289-0.312c0.595-0.081,1.192-0.115,1.78-0.141
	c0.143-0.007,0.368,0.082,0.351,0.137c-0.031,0.096-0.186,0.225-0.347,0.289C95.474,135.444,93.624,135.461,92.984,135.241"/>
<path class="st0" d="M227.286,79.591c-0.076-0.177-0.287-0.554-0.313-0.767c-0.02-0.164,0.163-0.233,0.308-0.144
	c0.658,0.403,1.326,0.862,2.01,1.436c0.196,0.163,0.569,0.706,0.663,0.98c0.196,0.568,0.023,0.595-0.356,0.281
	c-0.596-0.493-1.168-0.851-1.755-1.256C227.716,80.034,227.568,79.86,227.286,79.591"/>
<path class="st0" d="M181.673,57.047c0.391-0.417,0.78-0.778,1.126-1.196c0.543-0.654,1.09-0.527,1.627,0.442
	C183.832,57.443,182.679,57.718,181.673,57.047"/>
<path class="st0" d="M178.837,64.448c0.18-0.206,0.333-0.48,0.522-0.577c0.506-0.259,1.026-0.461,1.546-0.614
	c0.101-0.029,0.227,0.224,0.342,0.349c-0.342,0.462-0.64,1.071-1.04,1.357c-0.316,0.225-0.763,0.079-1.143,0.04
	C178.983,64.995,178.94,64.713,178.837,64.448"/>
<path class="st0" d="M107.031,131.571c-0.527,0.083-0.953,0.045-0.958-0.345c-0.004-0.217,0.198-0.538,0.431-0.74
	c0.278-0.242,0.609-0.241,0.743,0.041c0.05,0.103,0.103,0.207,0.177,0.298c0.107,0.135,0.234,0.259,0.353,0.388
	C107.528,131.334,107.28,131.453,107.031,131.571"/>
<path class="st0" d="M219.219,83.797c0.333-0.159,0.597-0.335,0.903-0.398c0.517-0.107,1.053,0.552,1.223,1.474
	c0.038,0.206-0.028,0.448-0.133,0.498C220.897,85.516,219.755,84.65,219.219,83.797"/>
<path class="st0" d="M205.306,69.749c0.687-0.187,1.296-0.331,1.953-0.467c0.338,0.547,0.51,1.029,0.115,1.409
	C206.893,71.154,205.958,70.797,205.306,69.749"/>
<path class="st0" d="M118.861,36.093c0,0.729,0.014,1.336-0.015,1.968c-0.004,0.101-0.271,0.461-0.299,0.461
	c-0.232-0.007-0.53,0.026-0.631-0.144C117.71,38.031,118.134,36.956,118.861,36.093"/>
<path class="st0" d="M235.282,85.494c-0.102,0.718-0.421,0.736-0.955,0.224c-0.219-0.21-0.556-0.901-0.84-1.369
	c0.104-0.093,0.149-0.363,0.322-0.237C234.217,84.41,234.686,84.905,235.282,85.494"/>
<path class="st0" d="M92.688,134.664c1.071-0.128,1.99-0.422,2.922-0.316C94.935,134.789,93.27,134.953,92.688,134.664"/>
<path class="st0" d="M100.758,107.678c0.019-0.519,0.882-1.629,1.334-1.8c0.091-0.034,0.199-0.017,0.221,0.045
	c0.108,0.313-0.766,1.619-1.204,1.786C100.95,107.771,100.834,107.688,100.758,107.678"/>
<path class="st0" d="M106.741,97.989c0.328-0.722,1.131-1.594,1.598-1.726c0.103-0.028,0.245,0.035,0.219,0.11
	c-0.088,0.264-0.196,0.605-0.379,0.816C107.662,97.785,107.165,98.038,106.741,97.989"/>
<path class="st0" d="M183.796,52.518c0.143,0.372,0.302,0.737,0.427,1.125c0.373,1.171,0.209,1.431-0.972,1.441
	c0.132-0.856,0.26-1.685,0.389-2.504C183.692,52.559,183.744,52.539,183.796,52.518"/>
<path class="st0" d="M129.651,22.003c0.246,0.042,0.491,0.083,0.736,0.122c-0.299,0.312-0.577,0.684-0.905,0.93
	c-0.31,0.233-0.728,0.412-0.75,0.002C128.706,22.563,129.17,22.388,129.651,22.003"/>
<path class="st0" d="M113.402,131.998c0.496-0.229,0.984-0.492,1.493-0.687c0.153-0.058,0.361,0.088,0.544,0.142
	c-0.14,0.189-0.261,0.495-0.423,0.54c-0.504,0.14-1.023,0.181-1.536,0.261C113.453,132.168,113.427,132.083,113.402,131.998"/>
<path class="st0" d="M88.247,129.191c-0.74,0.436-1.391,0.805-2.107,1.197c-0.12-0.252,0.273-0.49,0.618-0.712
	C87.18,129.406,87.632,129.112,88.247,129.191"/>
<path class="st0" d="M97.183,117.327c0.004,0.486-0.392,0.98-0.944,1.251c-0.16,0.079-0.313,0.045-0.47,0.063
	c0.354-0.447,0.705-0.901,1.08-1.356C96.86,117.271,97.119,117.318,97.183,117.327"/>
<path class="st0" d="M90.975,134.964c-0.687,0.35-1.332,0.464-2.001,0.538c-0.098,0.011-0.221-0.031-0.262-0.068
	c-0.022-0.02,0.09-0.104,0.172-0.127C89.51,135.131,90.143,134.936,90.975,134.964"/>
<path class="st0" d="M205.666,70.944c-0.697,0.999-1.455,1.054-1.782,0.256c-0.076-0.185,0.015-0.692,0.068-0.684
	C204.467,70.589,204.99,70.748,205.666,70.944"/>
<path class="st0" d="M105.914,133.234c-0.166-0.485,0.042-0.969,0.482-1.075c0.2-0.048,0.61,0.075,0.6,0.161
	C106.948,132.77,106.56,133.07,105.914,133.234"/>
<path class="st0" d="M110.255,128.955c-0.256,0.609-0.709,0.839-1.601,0.85C108.86,129.245,109.588,128.845,110.255,128.955"/>
<path class="st0" d="M119.583,33.496c0.346-0.468,0.562-0.757,0.777-1.046c0.171,0.13,0.423,0.193,0.476,0.414
	c0.025,0.106-0.35,0.676-0.5,0.745C120.106,33.714,119.914,33.566,119.583,33.496"/>
<path class="st0" d="M82.987,130.175c-0.552,0.213-1.068,0.449-1.318,0.26c-0.042-0.031,0.292-0.328,0.481-0.402
	C82.676,129.829,82.901,129.931,82.987,130.175"/>
<path class="st0" d="M117.05,35.381c0.29,0.245,0.478,0.401,0.733,0.61c-0.255,0.236-0.546,0.588-0.81,0.718
	c-0.142,0.07-0.342-0.187-0.329-0.401C116.658,36.078,116.889,35.729,117.05,35.381"/>
<path class="st0" d="M114.413,31.524c-0.099,0.561-0.17,0.959-0.248,1.405c-0.409,0.076-0.815,0.108-0.68-0.49
	C113.621,31.842,114.042,31.624,114.413,31.524"/>
<path class="st0" d="M115.718,32.379c0.037,0.427,0.074,0.853,0.125,1.429c-0.623-0.167-0.668-0.503-0.346-1.305
	C115.571,32.462,115.644,32.42,115.718,32.379"/>
<path class="st0" d="M237.826,89.094c-0.27-0.119-0.541-0.231-0.836-0.345C236.613,87.567,236.806,87.588,237.826,89.094"/>
<path class="st0" d="M92.664,121.97c-0.204-0.038-0.408-0.075-0.612-0.112c0.147-0.146,0.295-0.292,0.443-0.44
	c0.166,0.066,0.332,0.132,0.498,0.198C92.883,121.735,92.773,121.853,92.664,121.97"/>
<path class="st0" d="M76.42,127.111c-0.193-0.075-0.387-0.092-0.358-0.151c0.072-0.139,0.249-0.299,0.384-0.452
	c0.113,0.017,0.33,0.004,0.317,0.059C76.731,126.696,76.589,126.858,76.42,127.111"/>
<path class="st0" d="M91.058,122.966c-0.231-0.061-0.465-0.118-0.682-0.19c-0.01-0.003,0.195-0.229,0.199-0.229
	c0.269,0.021,0.527,0.055,0.787,0.089C91.261,122.747,91.159,122.857,91.058,122.966"/>
<path class="st0" d="M81.678,105.663c0.239-0.498,0.4-0.839,0.592-1.244C82.618,104.719,82.521,104.941,81.678,105.663"/>
</svg>
