<?xml version="1.0" encoding="utf-8"?>
<!-- Generator: Adobe Illustrator 24.2.0, SVG Export Plug-In . SVG Version: 6.00 Build 0)  -->
<svg version="1.0" id="Layer_1" xmlns="http://www.w3.org/2000/svg" xmlns:xlink="http://www.w3.org/1999/xlink" x="0px" y="0px"
	 viewBox="0 0 810.915 156.767" style="enable-background:new 0 0 810.915 156.767;" xml:space="preserve">
<style type="text/css">
	.st0{fill:#FFFFFF;}
</style>
<path class="st0" d="M509.702,145.619c-9.025-3.742-6.315-11.371-4.419-17.128c3.539-10.742,2.637-21.363,1.613-32.103
	c-0.33-3.458-1.724-6.814-2.966-11.473c-7.605,6.621-13.496,12.569-20.226,17.335c-4.878,3.454-9.943,9.016-17.062,5.491
	c-7.75-3.838-6.403-11.474-5.52-17.824c1.618-11.637,8.628-21.085,15.383-30.222c4.047-5.474,10.589-8.309,17.604-8.556
	c5.147-0.181,10.828-0.8,15.318,1.067c3.328,1.384,6.717,6.193,7.316,9.92c2.058,12.813,3.297,25.798,4.075,38.764
	c0.555,9.252,0.094,18.59-0.336,27.87C520.14,136.175,516.984,142.16,509.702,145.619z M477.218,90.889
	c10.16-5.072,14.655-12.729,19.857-19.525c1.136-1.484,0.302-4.476,0.376-6.773c-2.58,0.405-6.282-0.126-7.541,1.382
	c-4.667,5.589-8.663,11.765-12.578,17.931C476.546,85.14,477.218,87.3,477.218,90.889z"/>
<path class="st0" d="M141.858,69.468c2.976-0.382,4.901-0.127,6.264-0.884c10.227-5.68,18.012-3.726,23.347,6.151
	c3.884,7.192,7.744,14.398,11.508,21.652c1.872,3.608,0.274,6.511-3.741,6.931c-3.374,0.353-6.495-0.104-8.441-3.435
	c-2.362-4.042-4.81-8.035-7.166-12.08c-1.747-2.999-3.407-6.049-4.86-8.64c-4.601-0.362-5.84,1.922-6.845,5.077
	c-5.325,16.726-7.637,33.841-7.115,51.361c0.105,3.541,0.482,7.094,0.305,10.62c-0.285,5.681-3.105,8.252-8.247,8.019
	c-4.545-0.206-5.926-1.736-5.93-7.871c-0.007-13.873,0.349-27.747,0.319-41.62c-0.025-11.498-0.419-22.994-0.595-34.492
	c-0.059-3.837-0.336-7.734,0.223-11.495c0.366-2.463,1.634-5.109,3.298-6.95c1.112-1.23,3.948-2.031,5.427-1.473
	c1.412,0.533,2.825,3.039,2.904,4.739C142.717,59.427,142.175,63.81,141.858,69.468z"/>
<path class="st0" d="M251.829,70.768c4.353-0.364,7.646-1.156,10.792-0.765c3.493,0.434,7.456,1.14,10.145,3.154
	c5.731,4.292,4.437,10.084-2.393,12.457c-2.061,0.716-4.365,0.852-6.575,1c-9.808,0.656-10.71,2.116-11.653,12.202
	c-1.317,14.081-3.322,28.103-5.283,42.115c-0.405,2.891-1.915,5.626-2.904,8.437c-1.773,5.041-5.269,6.957-10.47,5.776
	c-5.175-1.174-9.243-3.656-9.121-9.594c0.153-7.453,0.374-14.945,1.285-22.332c1.002-8.125,2.47-16.233,4.404-24.186
	c1.292-5.314-1.027-7.241-5.358-9.034c-3.972-1.644-8.183-3.554-11.194-6.474c-4.106-3.982-2.333-8.675,3.43-9.478
	c4.721-0.658,9.606-0.134,15.214-0.134c1.149-3.022,2.776-5.967,3.375-9.108c2.582-13.545,4.84-27.151,7.262-40.727
	c1.049-5.876,1.844-11.833,3.443-17.562c1.154-4.134,3.907-7.11,9.06-6.415c5.231,0.706,6.842,4.148,6.725,8.668
	c-0.116,4.466-0.314,9.007-1.221,13.361c-2.797,13.422-6.011,26.757-8.899,40.161C251.437,64.402,251.829,66.698,251.829,70.768z"/>
<g>
	<path class="st0" d="M321.572,101.591c-3.624,13.886-7.087,27.818-11.013,41.618c-0.75,2.635-2.855,5.649-5.183,6.865
		c-2.558,1.337-6.856,2.032-8.988,0.72c-2.014-1.24-3.368-5.638-2.933-8.308c0.753-4.613,2.754-9.146,4.881-13.387
		c4.163-8.298,4.442-17.083,4.365-26.036c-0.028-3.29-0.169-6.912,1.094-9.789c1.318-3.003,1.986-7.693,7.169-7.187
		c5.168,0.504,7.786,4.002,9.048,8.501c0.578,2.062,0.098,4.421,0.098,6.646C320.597,101.353,321.084,101.472,321.572,101.591z"/>
	<path class="st0" d="M330.719,30.285c4.383,0.107,8.782,4.757,8.716,9.669c-0.072,5.332-2.999,8.935-7.853,10.9
		c-4.958,2.007-9.445,1.048-13.085-2.857c-0.927-0.994-1.582-2.578-1.684-3.942C316.481,39.589,326.147,30.173,330.719,30.285z"/>
</g>
<path class="st0" d="M440.501,56.605c-4.812,1.55-9.825,2.662-14.39,4.752c-7.025,3.216-13.823,6.96-20.548,10.779
	c-2.51,1.425-5.772,3.28-6.561,5.648c-2.274,6.821-6.8,10.911-12.497,14.908c-6.452,4.526-5.224,9.005,1.98,12.867
	c7.71,4.133,14.843,9.064,13.466,19.456c-0.369,2.787-1.264,5.925-2.982,8.037c-5.617,6.907-11.578,13.554-17.702,20.021
	c-3.41,3.601-7.812,4.154-12.339,1.904c-3.759-1.868-5.182-4.98-5.033-9.16c0.165-4.612,1.899-7.36,6.499-9.176
	c3.615-1.428,7.052-4.179,9.628-7.156c3.571-4.126,1.789-8.824-3.449-10.116c-2.497-0.616-5.211-0.285-7.798-0.61
	c-7.713-0.968-10.727-6.418-7.938-13.461c3.109-7.852,5.583-15.961,8.831-23.751c1.373-3.293,3.427-6.824,6.178-8.936
	c18.887-14.502,40.39-24.086,62.742-31.751c3.482-1.194,8.245-0.679,11.741,0.726c4.002,1.607,5.895,5.972,4.55,10.36
	c-1.143,3.728-3.956,6.277-8.383,6.096c-1.862-0.076-3.729-0.013-5.594-0.013C440.766,57.556,440.634,57.081,440.501,56.605z"/>
<path class="st0" d="M69.505,138.42c1.361-3.639,2.771-7.41,4.017-10.74c-8.35-12.931-20.293-18.169-35.542-19.518
	c-1.058,2.433-2.658,5.094-3.385,7.976c-1.913,7.579-2.927,15.422-5.323,22.829c-1.498,4.633-4.257,9.19-7.501,12.85
	c-5.254,5.929-10.647,6.306-15.799,2.335c-5.325-4.105-8.134-12.426-3.956-17.15c12.278-13.88,10.909-31.52,15.045-47.713
	c3.505-13.72,8.803-26.979,13.206-40.475c2.694-8.256,5.05-16.624,7.838-24.848c1.681-4.959,1.707-11.605,9.512-11.572
	c5.908,0.025,14.511,7.627,15.213,13.837c0.463,4.097,0.145,8.292,0.04,12.44c-0.315,12.487-0.462,24.965,5.267,36.543
	c1.956,3.954,4.306,7.727,6.676,11.455c0.703,1.105,2.545,1.555,3.091,2.68c6.347,13.077,13.24,25.959,18.456,39.483
	c2.204,5.716-1.892,11.756-7.255,15.192C83.948,147.33,76.509,144.936,69.505,138.42z M41.96,90.444
	c3.718-2.262,7.382-3.3,7.625-4.866c0.682-4.4-1.523-7.738-7.625-8.658C41.96,81.256,41.96,84.901,41.96,90.444z"/>
<path class="st0" d="M785.761,156.767c-13.668-1.124-27.926-2.006-38.252-13.849c-5.618-6.444-9.501-12.343-4.257-22
	c12.686-23.365,9.423-49.168,8.437-74.347c-0.25-6.379,1.439-11.308,4.818-16.231c3.222-4.694,8.16-6.965,12.522-3.991
	c3.393,2.313,5.698,7.371,6.701,11.629c0.658,2.793-2.255,6.262-2.884,9.558c-1.341,7.028-3.899,14.363-2.987,21.176
	c2.255,16.857,0.287,32.817-5.525,48.612c-4.041,10.981,0.009,18.101,12.017,19.824c5.023,0.721,10.482-0.983,15.648-2.047
	c4.959-1.022,9.276-1.509,13.528,2.508c8.061,7.616,7.184,13.092-3.346,16.995c-1.821,0.675-3.735,1.257-5.653,1.474
	C793.14,156.462,789.715,156.533,785.761,156.767z"/>
<path class="st0" d="M571.421,54.382c5.937,2.503,10.773,4.294,12.504,11.682c1.754,7.493,8.718,8.104,13.231,1.793
	c2.29-3.204,4.358-7.198,4.723-11.007c0.644-6.722,4.18-10.907,9.217-14.519c4.797-3.439,9.176-2.469,13.326,1.109
	c3.75,3.233,4.584,8.575,1.697,13.295c-6.623,10.83-13.348,21.6-20.229,32.267c-3.794,5.882-9.373,6.689-15.516,2.487
	c-2.444-1.672-4.508-3.911-6.984-5.523c-2.485-1.618-5.27-2.778-8.461-4.415c-7.287,5.806-9.466,13.97-11.229,22.387
	c-0.76,3.628-1.361,7.355-2.693,10.782c-1.753,4.511-5.706,5.619-10.191,4.933c-5.221-0.798-7.063-4.832-6.361-9.082
	c1.267-7.672,2.681-15.554,5.689-22.647c4.075-9.611,9.526-18.668,14.795-27.726C566.327,57.81,569.219,56.297,571.421,54.382z"/>
<path class="st0" d="M708.105,68.587c-1.775,13.203-0.467,25.576,9.221,36.705c8.34,9.58,4.993,21.231,1.027,31.696
	c-1.122,2.96-6.678,6.456-9.537,5.952c-3.189-0.562-6.836-4.984-8.052-8.498c-1.281-3.702,0.133-8.313,0.267-12.531
	c0.414-12.906-4.474-16.366-16.167-11.382c-3.893,1.659-7.579,3.826-11.515,5.362c-9.224,3.6-17.66,2.66-24.704-4.962
	c-6.903-7.47-8.662-16.499-3.873-24.969c11.435-20.222,22.918-40.666,48.096-47.43c8.73-2.345,13.547-1.231,14.998,7.633
	C709.043,53.345,708.105,60.873,708.105,68.587z M678.397,73.259c-11.907,8.278-12.513,9.882-8.207,21.711
	C682.768,86.128,682.768,86.128,678.397,73.259z"/>
</svg>
