<?xml version="1.0" encoding="utf-8"?>
<!-- Generator: Adobe Illustrator 24.2.0, SVG Export Plug-In . SVG Version: 6.00 Build 0)  -->
<svg version="1.0" id="Layer_1" xmlns="http://www.w3.org/2000/svg" xmlns:xlink="http://www.w3.org/1999/xlink" x="0px" y="0px"
	 viewBox="0 0 163.133 167.636" style="enable-background:new 0 0 163.133 167.636;" xml:space="preserve">
<style type="text/css">
	.st0{fill:#FFFFFF;}
</style>
<path class="st0" d="M3.048,0c0.166,0.57,0.368,1.133,0.513,1.712c0.063,0.254,0.238,0.627-0.263,0.712
	C3.214,2.439,3.15,2.649,3.118,2.781C2.949,3.48,3.106,4.282,2.522,4.837C2.446,4.909,2.44,5.161,2.51,5.258
	c0.434,0.603,0.188,1.03-0.154,1.458C2.289,6.799,2.285,6.94,2.272,7.059C2.226,7.474,2.149,7.886,2.177,8.307
	c0.02,0.286,0.188,0.585,0.292,0.878c0.208-0.116,0.43-0.216,0.62-0.354C3.285,8.689,3.451,8.51,3.688,8.294
	c0.513,0.99-0.711,1.888,0.612,2.721c0.063-0.054,0.176-0.107,0.224-0.201c0.2-0.395-0.287-1.085,0.359-1.298
	C4.578,8.975,4.992,8.648,5.088,8.227c0.246-1.079,0.534-2.154,0.867-3.222C6.004,4.85,6.162,4.738,6.27,4.606
	c0.136,0.125,0.281,0.241,0.407,0.375C7.01,5.335,6.969,5.687,6.888,6.113c-0.064,0.343,0.12,0.762,0.225,1.145
	c0.034,0.121,0.198,0.228,0.22,0.346c0.202,1.042,1.184,1.249,1.885,1.775c0.433,0.324,0.81,0.735,1.237,1.124
	c-0.152,0.476-0.424,0.956-0.421,1.491c0.002,0.44,0.255,0.976,0.535,1.41c0.338,0.522,0.654,1.072,0.996,1.561
	c0.474,0.683,0.523,1.731,1.561,2.021c0.426-0.305,0.803-0.621,1.237-0.865c0.349-0.197,0.46-0.422,0.436-0.903
	c-0.025-0.47-0.218-1.155,0.461-1.352c0.149-0.044,0.202-0.364,0.211-0.58c0.017-0.392,0.201-0.498,0.585-0.592
	c0.568-0.138,1.05-0.477,1.557-0.751c0.28-0.152,0.516-0.375,0.81-0.505c0.076-0.033,0.331,0.134,0.432,0.259
	c0.128,0.16,0.182,0.37,0.308,0.641c0.191-0.052,0.396-0.075,0.56-0.159c0.47-0.242,0.94-0.416,1.577-0.258
	c0.244,0.06,0.509-0.114,0.751-0.207c0.296-0.112,0.578-0.25,0.906-0.394c0.133,0.244,0.206,0.407,0.307,0.554
	c0.61,0.886,0.565,1.489-0.248,1.855c-0.752,0.338-1.016,1.076-1.387,1.695c-0.475,0.787-0.735,1.711-1.144,2.523
	c-0.15,0.298-0.566,0.413-0.796,0.667c-0.497,0.552-0.899,1.183-1.422,1.695c-0.266,0.26-0.597,0.605-1.188,0.343
	c-1.077-0.479-2.1-0.848-3.163-0.779c-0.404,0.026-1-0.401-1.497-0.653c-0.663-0.338-1.055-0.209-1.387,0.207
	c-0.339,0.424-0.784,0.759-1.156,1.111c0.27,0.327,0.444,0.593,0.676,0.8c0.28,0.251,0.642,0.689,0.882,0.241
	c0.2-0.371,0.55-0.159,0.851,0.083c0.364,0.292,0.932,0.662,0.616,1.054c-0.691,0.854-0.194,2.118-0.095,3.222
	c0.056,0.627,0.735,1.047,1.491,1.119c0.301,0.029,0.658,0.237,0.978,0.303c0.611,0.126,1.228,0.233,1.358-0.385
	c0.128,0.065,0.245,0.094,0.3,0.157c0.901,1.029,1.664,2.04,1.415,3.101c-0.095,0.403,0.04,0.926,0.081,1.397
	c0.005,0.059,0.015,0.136,0.06,0.191c0.536,0.672,1.163,1.328,1.622,2.014c0.441,0.66,0.938,1.427,1.012,2.009
	c0.102,0.809,0.516,1.583,1.219,2.277c0.854,0.845,1.868,1.633,2.888,2.337c0.43,0.297,1.039,0.364,1.532,0.448
	c0.564,0.097,1.065,0.009,1.637,0.16c0.575,0.153,1.205,0.502,1.812,0.766c0.223,0.096,0.445,0.197,0.594,0.262
	c-0.057-0.5-0.203-0.969-0.122-1.313c0.181-0.777-0.215-1.706-0.636-2.633c-0.172-0.376-0.616-0.797-0.979-1.172
	c-0.716-0.737-0.948-2.056-0.415-2.424c0.087-0.061,0.138-0.167,0.166-0.275c0.134-0.524,0.221-1.079,0.415-1.572
	c0.08-0.201,0.372-0.272,0.567-0.402c0.291-0.195,0.595-0.379,0.869-0.592c0.127-0.1,0.263-0.227,0.274-0.394
	c0.04-0.618,0.027-1.267,0.808-1.36c0.937-0.111,1.519-0.857,2.899-0.196c0.502,0.24,0.955,0.219,1.264-0.135
	c0.179-0.204,0.783-0.173,1.211-0.03c0.693,0.232,1.366,0.525,2.014,0.485c0.202-0.013,0.533,0.234,0.805,0.337
	c0.579,0.219,1.159,0.402,1.739,0.636c1.033,0.417,1.522,1.147,1.751,1.967c0.129,0.465,0.183,0.913,0.28,1.39
	c0.106,0.063,0.243,0.184,0.336,0.194c0.881,0.098,1.756,0.782,2.63,1.083c0.228,0.078,0.545,0.011,0.625-0.126
	c0.313-0.529,0.975-0.453,1.736,0.253c0.473,0.439,0.947,0.877,1.537,1.417c0.195-0.165,0.517-0.265,0.567-0.51
	c0.165-0.815,0.258-1.676,0.369-2.532c0.099-0.768,0.225-1.54,0.771-2.02c0.367-0.321,0.91-0.494,1.43-0.661
	c0.122-0.04,0.535,0.169,0.696,0.336c0.722,0.751,1.404,1.532,2.134,2.291c0.106,0.111,0.313,0.164,0.661,0.337
	c-0.766,0.372-1.402,0.736-2.109,1.014c-0.898,0.354-1.115,1.217-1.474,1.956c-0.089,0.183,0.238,0.629,0.331,0.943
	c0.098,0.331,0.216,0.685,0.192,0.964c-0.022,0.265-0.158,0.484-0.731,0.141c-0.187-0.113-0.558-0.106-0.655-0.002
	c-0.745,0.802-0.049,2.32,1.55,3.453c0.331,0.235,0.641,0.506,0.976,0.771c0.097,0.743-0.471,0.87-1.209,0.843
	c-0.549-0.02-0.509,0.365-0.49,0.752c0.017,0.351,0.181,0.63,0.701,0.893c0.796,0.4,1.591,0.821,2.39,1.229
	c0.1,0.051,0.229,0.057,0.299,0.118c0.44,0.382,0.887,0.765,1.299,1.165c0.549,0.532,1.06,0.722,1.167,0.31
	c0.134-0.512,0.067-1.146,0.033-1.754c-0.027-0.5-0.14-1.037-0.22-1.634c-0.206-0.114-0.484-0.22-0.682-0.39
	c-0.359-0.31-0.82-0.679-0.964-0.986c-0.316-0.67-0.471-1.321-0.645-1.97c-0.043-0.159,0.061-0.278,0.097-0.416
	c0.196,0.149,0.396,0.294,0.587,0.448c0.237,0.189,0.461,0.392,0.701,0.578c0.379,0.293,0.777,0.567,1.152,0.866
	c0.887,0.709,1.765,0.876,2.615,1.107c0.527,0.143,0.715-0.385,0.416-1.028c-0.173-0.372-0.109-0.468,0.169-0.62
	c0.673-0.367,1.281-0.831,1.682-1.427c0.252-0.375,0.072-1.064,0.106-1.606c0.008-0.125,0.034-0.253,0.109-0.334
	c0.309-0.335,0.618-0.68,1.363,0.317c0.096,0.127,0.377,0.22,0.707,0.402c-0.04-0.225-0.068-0.419-0.11-0.619
	c-0.081-0.378-0.153-0.756-0.254-1.141c-0.128-0.494,0.218-0.403,0.664-0.269c0.447,0.133,0.872,0.165,1.316,0.279
	c0.244,0.063,0.51,0.213,0.766,0.313c0.185,0.072,0.375,0.145,0.553,0.185c0.732,0.165,1.463,0.323,2.191,0.474
	c0.519,0.107,1.084,0.286,1.538,0.281c0.905-0.011,1.768,0.591,2.669,1.114c0.451,0.261,0.919,0.467,1.381,0.694
	c1.061,0.521,2.005,1.204,2.7,2.117c0.569,0.745,1.211,1.411,2.049,2.031c0.367,0.272,0.634,0.68,1.043,1.128
	c0.037,1.268,3.876,3.952,5.265,4.302c0.191,0.474-0.09,0.599-0.472,0.648c-0.708,0.09-0.488,1.12,0.336,1.775
	c0.513,0.407,0.902,0.95,1.428,1.324c0.869,0.617,1.797,1.192,2.719,1.693c0.377,0.204,0.796,0.167,1.328,0.264
	c0.398-0.29,0.977-0.572,1.332-1.018c0.274-0.346,0.376-0.849,0.366-1.371c-0.018-0.921,0.328-1.604,0.896-2.147
	c0.5-0.476,1.076-0.893,1.637-1.322c0.071-0.054,0.243-0.023,0.37-0.027c0.474-0.018,0.907-0.028,1.209-0.299
	c0.232-0.209,0.998-0.016,1.57,0.092c0.502,0.095,1.075,0.238,1.598,0.51c0.474,0.247,1.033,0.677,1.364,1.064
	c0.752,0.877,1.64,1.554,2.647,1.855c0.835,0.249,1.414,0.864,2.12,1.283c0.177,0.105,0.347,0.234,0.52,0.353
	c0.069,0.721-0.138,0.761-1.136,0.398c-0.314-0.114-0.826-0.153-0.827-0.024c-0.004,0.278,0.139,0.749,0.445,1.03
	c0.901,0.825,0.95,0.831,0.153,0.946c0.057,0.42,0.231,0.909-0.391,0.917c-0.113,0.001-0.13,0.167-0.127,0.286
	c0.019,0.643,0.077,1.303,0.09,1.94c0.005,0.225-0.004,0.475-0.158,0.589c-0.419,0.309,0.025,0.964,0.22,1.508
	c0.034,0.094,0.636,0.469,0.811,0.479c0.436,0.022,0.825-0.045,1.145-0.16c0.44-0.159,0.888-0.205,1.667,0.054
	c0.901,0.3,1.781,0.446,2.569,0.508c0.36,0.028,0.695-0.21,0.664-0.492c-0.095-0.858,0.965-0.758,1.364-1.193
	c0.217-0.235,0.275-0.591,0.381-0.907c0.027-0.078-0.07-0.227-0.061-0.318c0.068-0.699,0.259-1.344,0.204-2.101
	c-0.049-0.676,0.653-0.697,1.036-0.995c0.294-0.227,0.629-0.426,1.011-0.574c0.419-0.163,0.918-0.247,1.372-0.376
	c0.27-0.077,0.521-0.174,0.831-0.279c0.023,0.023,0.102,0.127,0.201,0.193c0.349,0.233,1.004,0.579,1.012,0.656
	c0.061,0.559,0,1.065-0.033,1.58c-0.009,0.133-0.17,0.231-0.087,0.36c0.458,0.706,0.029,0.876-0.284,1.129
	c-0.428,0.344-0.828,0.71-1.246,1.061c-0.045,0.039-0.139,0.038-0.211,0.054c-0.599,0.129-1.245,0.211-1.785,0.398
	c-0.903,0.313-1.405,0.886-0.98,2.076c0.169,0.475,0.095,0.895-0.015,1.252c-0.038,0.122-0.517,0.001-0.819-0.055
	c-0.699-0.129-1.416-0.291-2.118-0.426c-0.08-0.015-0.156,0.035-0.161,0.093c-0.044,0.481-0.63,0.253-1.22-0.005
	c-1.321-0.578-2.37-0.412-2.642,0.276c-0.131,0.332-0.583,0.473-0.941,0.655c-0.352,0.18-0.81,0.265-1.144,0.458
	c-0.541,0.312-1.101,0.617-1.501,1.037c-0.413,0.435-0.208,0.68,0.875,1.282c0.247,0.137,0.505,0.242,0.743,0.393
	c0.539,0.343,1.329,0.53,1.427,1.179c0.056,0.37,0.601,0.998-0.176,0.919c-0.111-0.011-0.091,0.171-0.151,0.306
	c-1.076-0.688-1.407-0.362-1.771-0.059c-0.565,0.47-1.188,0.895-1.706,1.4c-0.137,0.134-0.019,0.474,0.05,0.746
	c0.103,0.399,0.306,0.836,0.388,1.225c0.032,0.154-0.129,0.237-0.233,0.33c-0.3,0.265-0.658,0.487-0.909,0.787
	c-0.179,0.215-0.244,0.513-0.313,0.801c-0.033,0.139,0.041,0.339,0.079,0.591c0.456,0.318,1.034,0.685,1.555,1.095
	c0.516,0.405,0.998,0.848,1.455,1.286c0.779,0.747,1.505,1.511,2.295,2.254c0.549,0.515,1.029,0.516,1.441,0.506
	c0.31-0.008,0.558-0.09,0.866-0.145c0.875,0.699,1.668,1.425,2.546,2.003c0.641,0.421,1.394,0.637,2.099,0.964
	c0.327,0.151,0.674,0.322,0.983,0.529c0.679,0.454,1.324,0.988,2.012,1.39c0.406,0.237,0.861,0.26,1.307,0.423
	c0.361,0.132,0.807,0.276,1.098,0.505c1.204,0.948,2.469,1.758,3.777,2.52c0.617,0.36,1.02,0.489,1.329,0.241
	c0.71-0.568,1.786-0.708,3.55,0.035c0.266,0.112,0.513,0.074,0.758,0.09c0.967,0.064,1.699-0.232,3.018,0.375
	c0.76,0.35,1.52,0.714,2.278,1.063c0.231,0.106,0.474,0.215,0.685,0.269c0.925,0.232,1.702,0.835,1.968,1.543
	c0.068,0.182,0.115,0.359,0.213,0.547c0.284,0.546,0.304,0.893-0.456,0.755c-0.194-0.036-0.304,0.085-0.434,0.151
	c-0.087,0.043-0.104,0.19-0.216,0.165c-1.003-0.225-1,0.475-1.59,0.627c-0.105,0.027-0.049,0.209-0.131,0.268
	c-0.665,0.479-1.331,0.958-2.027,1.413c-0.896,0.588-1.859,1.122-2.72,1.741c-0.497,0.357-0.758,0.911-1.293,1.234
	c-0.429,0.26-1.115,0.3-1.673,0.452c-0.171,0.046-0.246,0.205-0.447,0.203c-0.533-0.007-1.075,0-1.681-0.137
	c-0.637-0.144-1.228-0.325-1.321,0.156c-0.025,0.13-0.349,0.084-0.465,0.176c-0.126,0.1-0.169,0.265-0.248,0.402
	c0.341,0.19,0.766,0.517,1.008,0.548c1.259,0.159,2.059,0.64,2.858,1.803c0.03,0.044,0.077,0.092,0.09,0.13
	c0.028,0.077,0.077,0.176,0.048,0.218c-0.342,0.492,0.386,1.685-0.829,1.608c-1.385-1.377-1.525-1.434-1.829-0.76
	c0.93,0.708,1.019,0.95,0.923,1.609c-0.084,0.574,0.005,1.242,0.014,1.994c-0.305,0.105-0.873,0.197-0.711,0.865
	c0.043,0.177,0.095,0.36,0.098,0.521c0.015,0.692,0.406,1.337,1.442,2.082c0.924,0.664,1.411,1.427,1.523,2.162
	c0.029,0.182,0.155,0.41,0.274,0.62c0.267,0.472,0.514,0.949,0.845,1.421c0.219,0.31,0.54,0.654,0.877,0.914
	c0.735,0.567,0.975,1.117,1.19,1.694c0.136,0.367,0.318,0.744,0.474,1.116c0.281,0.669,0.561,1.341,0.809,2.006
	c0.027,0.073-0.123,0.1-0.159,0.169c-0.277,0.526-0.574,1.044-0.811,1.601c-0.048,0.113,0.093,0.396,0.24,0.577
	c0.571,0.709,1.173,1.408,1.753,2.11c0.687,0.833,0.41,1.431,0.546,2.122c0.143,0.727,0.037,1.386-0.025,2.051
	c-0.017,0.187-0.201,0.307-0.348,0.421c-0.323,0.248-0.594,0.581-1.028,0.688c-1.019,0.251-0.627,1.331-0.716,2.102
	c-0.026,0.238,0.76,0.957,1.254,1.31c0.334,0.238,0.946,0.379,1.214,0.283c0.511-0.183,0.869-0.56,1.273-0.872
	c0.094-0.072,0.151-0.19,0.178-0.312c0.117-0.539,0.818-0.591,1.025-0.976c0.301-0.564,1.308-0.101,1.606-0.624
	c0.157-0.276,0.593-0.391,0.128-0.887c-0.32-0.339-0.802-0.592-1.245-0.832c-0.376-0.51-0.24-0.832,0.413-1.001
	c0.149-0.039,0.282-0.102,0.446-0.113c0.335-0.021,0.841,0.109,0.639-0.404c-0.203-0.518-0.482-1.047-0.75-1.571
	c-0.037-0.075-0.198-0.154-0.241-0.231c-0.57-1.006-1.608-1.409-2.55-2.035c-0.702-0.466-1.36-0.818-2.068-1.136
	c-0.149-0.067-0.296-0.242-0.442-0.365c0.157-0.185,0.293-0.346,0.443-0.523c1.312,0.533,1.811,0.357,1.724-0.719
	c-0.077-0.95-0.253-1.928,0.202-2.619c0.162-0.244,0.045-0.681,0.086-1.012c0.066-0.546,0.621-0.458,1.313-0.069
	c0.61,0.343,1.202,0.76,1.796,1.152c0.996,0.658,1.969,0.938,2.948,1.273c0.143,0.049,0.298,0.138,0.441,0.226
	c0.661,0.407,1.259,0.773,2.001,0.994c0.64,0.19,1.41,0.89,2.107,1.38c0.321,0.225,0.63,0.477,0.922,0.733
	c0.219,0.193,0.438,0.407,0.598,0.622c0.99,1.327,2.011,2.518,3.742,3.224c0.614,0.25,1.265,0.856,1.839,1.351
	c0.604,0.521,1.139,1.102,1.696,1.658c0.324,0.322,0.761,0.641,0.94,0.969c0.463,0.848,1.326,1.436,1.967,2.153
	c0.663,0.742,1.391,1.447,2.06,2.178c0.22,0.241,0.39,0.512,0.573,0.772c0.224,0.317,0.527,0.646,0.628,0.954
	c0.133,0.402,0.17,0.82,0.114,1.171c-0.037,0.237-0.245,0.443-0.473,0.533c-0.606,0.238-1.261,0.413-1.908,0.597
	c-0.366,0.105-0.749,0.184-1.133,0.262c-0.212,0.044-0.426,0.11-0.663,0.083c-0.875-0.1-1.339,0.258-1.547,0.906
	c-0.224,0.695-0.841,0.995-1.461,1.32c-0.338,0.177-0.701,0.442-0.783,0.799c-0.201,0.867-0.845,1.29-1.519,1.753
	c-0.496,0.339-1.05,0.446-1.683,0.549c-0.621,0.101-1.281,0.285-1.659,0.799c-0.47,0.638-0.804,1.424-1.699,1.676
	c-0.018,0.005-0.028,0.025-0.04,0.039c-0.632,0.721-1.253,1.464-1.941,2.154c-0.303,0.303-0.688,0.547-1.09,0.74
	c-0.92,0.443-1.886,0.822-2.819,1.259c-0.558,0.261-1.054,0.625-1.631,0.858c-0.396,0.159-0.853,0.442-1.321-0.281
	c-0.105-0.161-0.54-0.17-0.824-0.238c-0.709-0.169-1.416-0.066-2.134-0.599c-0.244-0.181-0.686-0.059-1.038-0.079
	c-0.831-0.046-1.671-0.131-2.491-0.128c-0.488,0.001-0.782-0.149-0.923-0.672c-0.653,0.238-1.239,0.489-0.966,1.379
	c0.072,0.24,0.305,0.46,0.426,0.701c0.436,0.869,1.381,1.555,1.336,2.572c-0.01,0.218-0.125,0.419-0.207,0.62
	c-0.2,0.489-0.543,0.948-0.589,1.471c-0.031,0.369,0.263,0.88,0.542,1.224c0.404,0.499,0.628,0.906,0.174,1.406
	c-0.077,0.084-0.033,0.28-0.047,0.424c-0.088,0.855-0.277,1.616-1.217,1.986c-0.659,0.259-1.259,0.582-2.019,0.607
	c-0.309,0.01-0.594,0.516-0.893,0.798c-0.159,0.15-0.315,0.303-0.474,0.455c-0.123-0.143-0.251-0.282-0.366-0.431
	c-0.051-0.067-0.054-0.178-0.113-0.23c-0.511-0.442-0.436-0.852,0.051-1.244c-0.376-0.833-0.644-1.756-1.68-1.901
	c-0.17-0.465-0.325-0.879-0.524-1.392c0.413-0.87,0.228-1.354-0.735-2.189c-0.322-0.278-0.587-0.758-0.68-1.162
	c-0.162-0.717-0.475-1.492-0.04-2.131c0.01-0.014,0.013-0.045,0.004-0.062c-0.487-0.901,0.083-1.576,0.019-2.381
	c-0.005-0.065-0.038-0.16-0.006-0.189c0.695-0.637,0.26-1.71,0.447-2.533c0.1-0.435,0.038-0.901-0.524-1.32
	c-0.178-0.133-0.301-0.434-0.359-0.654c-0.143-0.536-0.528-0.824-1.025-1.043c-0.372-0.163-0.759-0.429-1.111-0.481
	s-0.668,0.105-1.094,0.189c-0.039-3.844-0.072-7.43,0.219-10.801c0.736,0.263,1.38,0.494,2.18,0.781
	c1.069-0.129,1.104-1.099,1.01-2.165c-0.041-0.461,0.142-0.844,0.129-1.297c-0.015-0.52,0.015-1.075-0.26-1.619
	c-0.257-0.51-0.827-1.092-1.368-1.515c-0.446-0.349-1.043-0.511-1.594-0.765c-0.494,0.117-1.129,0.166-1.582,0.407
	c-0.319,0.171-0.347,0.64-0.59,0.909c-0.345,0.382-0.766,0.703-1.157,1.051c-0.088-0.056-0.176-0.112-0.264-0.168
	c-0.067-0.215-0.128-0.428-0.205-0.644c-0.055-0.153-0.087-0.327-0.204-0.462c-1.019-1.182-1.011-1.167-1.587-0.384
	c-0.247,0.333-0.583,0.6-0.877,0.894c0.464,0.494,0.828,0.886,1.217,1.308c-1.067,0.211-0.483,1.263-0.504,1.984
	c-0.009,0.438-0.616,1.481-1.084,1.511c-0.234,0.015-1.719-0.746-1.937-0.991c-0.278-0.314-0.605-0.619-0.823-0.945
	c-0.159-0.238-0.306-0.592-0.23-0.74c0.212-0.417-0.125-0.681-0.587-0.956c-0.234,0.243-0.55,0.431-0.682,0.737
	c-0.218,0.501-0.384,1.048-0.463,1.631c-0.071,0.528-0.179,0.951-0.685,1.214c-1.223,0.638-2.33,1.416-3.523,2.11
	c-0.156,0.091-0.453,0.072-0.699,0.007c-0.463-0.122-0.733-0.445-0.852-0.861c-0.129-0.451-0.264-0.903-0.437-1.358
	c-0.078-0.206-0.243-0.42-0.37-0.63c-0.065,0.003-0.131,0.007-0.197,0.011c0.099,0.282,0.196,0.563,0.293,0.847
	c-0.048-0.019-0.122-0.034-0.134-0.055c-0.97-1.709-2.472-3.428-2.558-5.125c-0.037-0.727,0.019-1.417,0.062-2.106
	c0.01-0.162,0.181-0.249,0.307-0.405c-0.04-0.108-0.137-0.305-0.179-0.487c-0.065-0.279,0.027-0.627-0.161-0.806
	c-0.557-0.531-1.215-1.005-1.859-1.47c-0.075-0.054-0.423,0.044-0.4,0.142c0.232,0.997-0.501,1.304-1.205,1.531
	c-0.889,0.287-1.647,0.651-2.119,1.539c0.41,0.225,0.82,0.432,1.217,0.673c0.895,0.543,1.025,0.744,0.811,1.337
	c-0.245,0.678-0.543,1.329-0.863,2.071c-0.259-0.302-0.552-0.568-0.712-0.842c-0.471-0.811-1.191-1.267-2.027-1.547
	c-0.206-0.069-0.411-0.029-0.585,0.005c-0.109,0.022-0.187,0.107-0.232,0.195c-0.481,0.944-1.6,1.097-2.957,0.94
	c-1.312-0.153-2.312,0.103-3.1,0.696c-0.577,0.435-1.264,0.768-1.888,1.165c-0.223,0.141-0.362,0.37-0.596,0.499
	c-0.513,0.281-0.766,0.172-1.392-0.505c-0.845-0.912-1.682-1.842-2.603-2.722c-0.576-0.55-1.267-1.021-2.057-1.639
	c-0.224,0.594-0.434,1.141-0.687,1.78c-0.642-1.12-0.972-2.032-0.672-2.874c-0.213-0.21-0.492-0.522-0.816-0.79
	c-0.493-0.409-0.999-0.396-0.969,0.039c0.04,0.584,0.172,1.205,0.217,1.796c0.022,0.276-0.049,0.517-0.08,0.781
	c-0.265,0.149-0.572,0.293-0.836,0.479c-0.328,0.23-0.629,0.23-1.219-0.271c-0.599-0.506-1.26-0.883-1.8-1.535
	c-0.78-0.941-1.073-2.102-0.543-2.636c0.529-0.534,0.958-1.147,1.379-1.758c0.274-0.397,0.441-0.868,0.697-1.274
	c0.28-0.446,0.994-0.41,1.893,0.033c0.495,0.245,0.992,0.471,1.52,0.722c0.45-0.354,0.412-0.474-0.412-1.157
	c-0.157-0.131-0.317-0.264-0.459-0.404c-0.559-0.554-1.083-1.146-1.873-1.144c-0.186,0-0.504-0.22-0.757-0.309
	c-0.446-0.158-0.682-0.141-0.891,0.128c-0.301,0.385-0.721,0.7-0.487,1.351c0.371,1.044-0.308,1.366-0.822,1.805
	c-0.246,0.209-0.644,0.072-0.997-0.391c-0.128-0.168-0.256-0.364-0.288-0.517c-0.357-1.695-2.183-2.802-3.798-4.001
	c-0.56-0.415-1.177-0.798-1.67-1.254c-0.926-0.857-1.931-1.696-2.08-2.717c-0.045-0.306-0.843-0.906-1.466-1.54
	c-0.209,0.235-0.333,0.4-0.489,0.54c-0.087,0.077-0.199,0.161-0.355,0.145c-0.082-0.008-0.283-0.227-0.433-0.349
	c-1.528-1.242-2.107-2.67-3.379-3.923c-0.723-0.712-1.396-1.378-1.893-2.107c-0.219-0.323-0.421-0.661-0.522-0.959
	c-0.387-1.138-0.597-1.367-2.01-2.2c-0.423-0.25-0.82-0.582-1.243-0.846c-0.411-0.256-0.838-0.473-1.486-0.832
	c0.945,1.515,1.803,2.831,3.631,4.064c-0.583,0-1.01,0-1.451,0c0.799,1.097,1.592,2.165,2.31,3.23
	c0.267,0.395,0.376,0.785,0.565,1.179c0.099,0.207,0.235,0.422,0.324,0.627c0.145,0.332,0.258,0.658,0.397,0.99
	c0.077,0.183,0.154,0.374,0.281,0.562c0.489,0.721,1.023,1.443,1.466,2.161c0.132,0.216,0.048,0.42,0.063,0.629
	c-0.239-0.129-0.537-0.36-0.706-0.371c-0.889-0.062-0.946-1.139-1.737-1.273c-0.148-0.218-0.297-0.437-0.446-0.655
	c-0.127-0.557-0.246-1.11-0.396-1.673c-0.089-0.335-0.217-0.684-0.341-1.03c-0.072-0.199-0.127-0.402-0.26-0.607
	c-0.314-0.48-0.711-0.965-1.001-1.44c-0.155-0.255-0.148-0.493-0.219-0.74c-0.098-0.338-0.107-0.668-0.323-1.019
	c-0.424-0.689-1.207-1.466-1.399-2.064c-0.184-0.571-0.525-1.106-0.904-1.68c-0.326-0.492-0.63-0.982-0.972-1.513
	c0.282,0.034,0.479,0.058,0.706,0.086c-0.08-0.145-0.115-0.249-0.196-0.351c-0.956-1.191-1.18-2.142-1.273-3.113
	c-0.044-0.462-0.671-1.366-1.291-1.842c-0.586-0.45-1.05-0.851-1.356-1.3c-0.832-1.221-1.614-2.437-2.391-3.651
	c-0.117-0.183-0.173-0.457-0.055-0.491c0.346-0.103,0.119-0.428-0.009-0.742c-0.143-0.351,0.061-0.487,0.567-0.175
	c0.644,0.398,1.421,0.851,1.841,1.318c0.734,0.815,1.888,0.916,2.434,1.878c0.114-0.142,0.209-0.188,0.175-0.231
	c-0.582-0.727-1.117-1.466-1.799-2.177c-0.681-0.709-1.616-1.377-2.244-2.084c-0.515-0.579-0.743-1.189-1.091-1.784
	c-0.033-0.056,0.025-0.095-0.006-0.152c-0.283-0.533-0.456-1.074-0.9-1.601c-0.547-0.651-1.334-1.288-1.99-1.939
	c-0.204-0.202-0.346-0.432-0.469-0.641c-0.323-0.547-0.636-1.094-0.923-1.634c-0.258-0.487-0.46-0.961-0.72-1.448
	c-0.096-0.18-0.249-0.409-0.446-0.569c-2.239-1.817-3.516-3.732-5.003-5.62c-0.336-0.426-0.642-0.9-0.735-1.267
	c-0.262-1.031-0.408-2.021-0.584-3.022c-0.042-0.24-0.077-0.481-0.054-0.69c0.064-0.608-0.793-2.015-1.56-2.579
	c-1.084-0.797-2.45-1.57-2.261-2.546c-1.003-0.997-0.892-1.981-2.215-2.984c-0.36-0.273-0.722-0.549-1.059-0.838
	c-0.6-0.516-0.877-0.577-1.003-0.2c-0.031,0.092-0.091,0.167-0.142,0.256c-0.396-0.389-0.739-0.715-1.061-1.047
	c-0.406-0.418-0.9-0.848-1.168-1.259c-0.761-1.162-1.42-2.319-2.087-3.476c-0.082-0.142-0.069-0.272-0.102-0.409
	c-0.143-0.587-0.089-1.14-1.097-1.837c-0.198-0.136-0.349-0.473-0.405-0.68c-0.266-0.964-0.428-1.898-0.722-2.875
	c-0.184-0.614-0.466-1.28-0.855-1.932c-0.687-1.151-1.49-2.308-2.198-3.463c-0.573-0.936-1.061-1.873-1.646-2.807
	c-0.561-0.898-1.426-1.741-1.131-2.613c0.259-0.767-0.182-1.914-0.598-2.941c-0.38-0.937-0.583-1.977-1.793-2.864
	c-0.095-0.069-0.167-0.212-0.208-0.316C5.361,32.235,5,31.267,4.654,30.3c-0.108-0.302-0.172-0.606-0.326-0.905
	c-0.483-0.941-0.531-1.764-0.44-2.57c0.021-0.183-0.139-0.446-0.214-0.672c-0.215,0.039-0.492,0.019-0.628,0.133
	c-0.174,0.146-0.234,0.401-0.342,0.609c-0.07-0.022-0.139-0.044-0.209-0.066c-0.402-0.802-0.826-1.602-0.848-2.403
	c-0.005-0.195-0.052-0.406-0.098-0.613c-0.194-0.872-1.289-1.874-0.577-2.626c0.03-0.032-0.062-0.168-0.087-0.254
	c-0.249-0.87-0.52-1.745-0.678-2.608c-0.097-0.53,0.112-1.055-0.076-1.559c-0.319-0.86,0.041-1.474,0.071-2.206
	c0.024-0.569,0.092-1.135,0.219-1.689c0.189-0.821,0.025-1.843-0.156-2.777c-0.192-0.988-0.057-1.805,0.385-2.6
	C0.914,7.02,1.052,6.459,1.231,5.926c0.041-0.119,0.013-0.3-0.049-0.425C0.94,5.014,0.668,4.542,0.438,4.056
	C0.389,3.953,0.402,3.798,0.444,3.692c0.215-0.555,0.412-1.131,0.717-1.643c0.222-0.372,0.541-0.733,0.908-0.96
	C2.509,0.817,2.714,0.506,2.655,0C2.786,0,2.917,0,3.048,0"/>
<path class="st0" d="M108.878,36.846c0.391,0.37,0.726,0.713,1.096,1.024c0.448,0.376,0.913,0.724,1.418,0.655
	c0.546-0.075,1.178,0.275,1.811,0.57c0.511,0.239,1.048,0.444,1.54,0.555c0.621,0.141,1.3,0.734,1.927,0.579
	c0.22-0.055,0.957,0.52,1.452,0.831c0.278,0.174,0.537,0.396,0.884,0.655c0.05,0.486,0.05,1.014,0.199,1.583
	c0.072,0.277,0.418,0.631,0.636,0.951c0.28,0.41,0.598,0.823,0.821,1.229c0.194,0.351,0.26,0.691,0.411,1.041
	c0.306,0.711,0.638,1.425,0.943,2.086c-0.311,0.165-0.789,0.206-0.809,0.474c-0.04,0.543-0.878,0.163-1.152,0.473
	c-0.319,0.362-1.125,0.352-1.722,0.502c-0.071,0.018-0.168,0.009-0.23,0.036c-0.245,0.104-0.427,0.374-0.731,0.292
	c-0.531-0.144-1.137-0.484-1.704-0.783c-0.13-0.068-0.294-0.325-0.338-0.464c-0.075-0.243-0.046-0.456-0.1-0.695
	c-0.071-0.312-0.199-0.599-0.723-0.636c-0.162-0.011-0.393-0.148-0.59-0.212c-1.421-0.468-2.337-1.599-3.411-2.508
	c-0.177-0.15-0.427-0.27-0.638-0.354c-0.561-0.224-1.119-0.396-1.679-0.635c-0.772-0.328-1.381-0.797-1.888-1.5
	c-0.657-0.912-1.672-1.526-2.677-1.967c-1.692-0.743-2.287-1.41-1.687-2.359c0.14-0.221,0.253-0.468,0.323-0.735
	c0.216-0.816,0.718-0.792,1.896-0.035c0.649,0.417,1.372,0.751,2.05,0.996c0.281,0.101,0.528-0.125,0.785-0.209
	c0.029-0.01,0.007-0.093,0.034-0.091c1.152,0.103,1.104-0.868,1.639-1.323C108.699,36.843,108.781,36.856,108.878,36.846"/>
<path class="st0" d="M124.453,69.439c-0.161-0.115-0.279-0.177-0.3-0.217c-0.451-0.894-1.115-1.847-1.139-2.631
	c-0.023-0.752-0.082-1.523-0.07-2.262c0.002-0.183,0.16-0.305,0.313-0.397c0.479-0.289,0.738-0.664,0.545-1.406
	c-0.183-0.703-0.002-1.277,0.013-1.913c0.005-0.196-0.014-0.404-0.042-0.615c-0.083-0.631-0.283-1.331,0.571-1.389
	c0.128-0.009,0.117-0.192,0.183-0.317c0.812,0.542,0.987,0.275,0.877-0.16c-0.205-0.812,0.141-1.219,0.671-1.583
	c0.339-0.234,0.243-0.836,0.383-1.25c0.057-0.167,0.178-0.307,0.337-0.398c0.123-0.071,0.385-0.013,0.526-0.071
	c0.341-0.142,0.517-0.414,1.213-0.203c1.14,0.346,2.137,0.975,3.127,1.791c0.087,0.072,0.19,0.183,0.209,0.25
	c0.108,0.398,0.213,0.795,0.284,1.179c0.032,0.168,0.073,0.416-0.054,0.436c-1.147,0.177-0.414,1.524-0.909,2.093
	c-0.328,0.375-0.488,0.945-1.063,1.049c-0.91,0.165-1.309,0.631-1.556,1.301c-0.262,0.709-0.696,1.318-1.157,1.895
	c-0.274,0.343-0.761,0.533-1.133,0.807c-0.097,0.071-0.154,0.182-0.183,0.301c-0.201,0.816-0.381,1.64-0.57,2.457
	c-0.104,0.448-0.11,0.962-0.898,0.912C124.49,69.089,124.513,69.31,124.453,69.439"/>
<path class="st0" d="M44.83,20.143c-0.786,0.5-1.564,1.041-2.397,1.508c-0.213,0.119-0.623,0.077-0.936-0.034
	c-0.184-0.064-0.523-0.491-0.496-0.617c0.088-0.426,0.372-0.761,0.47-1.185c0.11-0.467,0.337-0.822,0.719-1.067
	c0.383-0.245,0.789-0.464,1.131-0.661c0.473,0.108,0.914,0.209,1.355,0.306c0.089,0.02,0.201,0.057,0.259,0.028
	c0.517-0.252,1.04-0.498,1.534-0.783c0.779-0.448,2.304,0.296,2.971,1.219c0.568,0.785,0.74,1.511,1.022,2.282
	c0.072,0.196,0.41,0.473,0.642,0.566c0.583,0.234,1.175,0.384,1.919,0.616c-0.114,0.155-0.169,0.381-0.338,0.438
	c-1.292,0.436-0.782,1.766-0.033,2.837c0.463,0.664,0.981,1.312,1.458,1.977c0.104,0.145,0.113,0.337,0.121,0.493
	c0.014,0.29-0.005,0.568-0.008,0.89c-0.317-0.286-0.622-0.577-0.942-0.849c-0.525-0.448-1.04-0.909-1.585-1.317
	c-0.597-0.445-0.922-0.862-0.738-1.387c0.237-0.669-0.597-1.101-1.035-1.518c-0.746-0.711-1.611-1.308-2.409-1.959
	c-0.097-0.079-0.201-0.189-0.244-0.289c-0.337-0.793-1.13-0.765-1.68-1.167C45.379,20.315,45.106,20.258,44.83,20.143"/>
<path class="st0" d="M108.773,30.434c0.402,0.396,0.908,0.772,1.189,1.193c0.354,0.528,0.756,0.407,1.113,0.636
	c0.507,0.325,0.627,0.108,0.825-0.113c0.612-0.687,1.711-0.683,2.994-0.546c-0.205,0.692,0.35,1.756-0.905,1.734
	c-0.393-0.007-0.587,0.393-0.959,0.673c0.652,0.379,1.21,0.704,1.772,1.026c0.069,0.039,0.171,0.092,0.213,0.08
	c0.476-0.135,0.974-0.247,1.403-0.437c0.288-0.128,0.511-0.38,1,0.026c0.437,0.362,0.937,0.777,0.852,1.252
	c-0.079,0.44-0.481,0.479-1.033,0.193c-0.683-0.353-0.949-0.223-1.131,0.162c-0.127,0.27-0.402,0.443-0.623,0.672
	c-0.984-0.48-1.965-1.075-2.904-1.385c-0.657-0.216-1.262-0.044-1.888-0.042c-0.159,0.001-0.318,0.081-0.466,0.011
	c-0.731-0.349-1.482-0.322-2.193-0.978c-0.501-0.463-1.142-0.754-1.397-1.463c-0.32-0.895-0.916-1.829-0.825-2.664
	c0.009-0.087-0.017-0.231-0.091-0.31c-0.465-0.495-0.949-0.974-1.409-1.467c-0.249-0.266-0.472-0.547-0.705-0.821
	c0.048-0.022,0.096-0.043,0.144-0.065c0.541,0.248,1.114,0.431,1.618,0.761c0.564,0.37,1.153,0.835,1.571,1.333
	c0.222,0.265,0.176,0.729,0.115,1.031c-0.151,0.754-0.007,1.444,0.776,2.412c0.652,0.805,1.3,1.152,2.092,1.466
	c0.111,0.044,0.283,0.024,0.317-0.04c0.181-0.343,0.343-0.701,0.478-1.076c0.026-0.072-0.083-0.252-0.176-0.365
	c-0.537-0.651-1.111-1.287-1.599-1.947c-0.216-0.292-0.28-0.628-0.41-0.945C108.612,30.432,108.692,30.433,108.773,30.434"/>
<path class="st0" d="M125.831,41.957c0.681,0.112,1.216,0.521,1.324,1.191c0.162,1.008,0.881,2.034,1.545,3.071
	c0.667,1.043,1.263,2.06,1.038,2.881c-0.018,0.064,0.096,0.208,0.165,0.315c0.084,0.13,0.285,0.32,0.265,0.383
	c-0.207,0.649,0.599,1.253,1.28,1.912c0.277,0.268,0.348,0.644,0.485,0.964c0.07,0.165,0.044,0.308,0.115,0.473
	c0.332,0.771,0.689,1.547,1.042,2.314c-1.443-0.252-3.26-1.912-3.24-2.811c0.002-0.129-0.069-0.31-0.174-0.468
	c-0.456-0.685-0.749-1.3-0.412-1.725c0.06-0.076-0.047-0.326-0.172-0.481c-0.648-0.813-1.254-1.645-1.989-2.425
	c-0.896-0.952-0.645-1.518-0.568-2.122c0.039-0.309-0.013-0.569-0.162-0.941c-0.264-0.655-0.343-1.276-0.477-1.906
	C125.85,42.366,125.851,42.165,125.831,41.957"/>
<path class="st0" d="M83.259,33.473c0.707,0.263,1.257,0.468,1.807,0.67c0.047,0.017,0.091,0.007,0.138,0.017
	c0.381,0.08,0.999,0.344,1.102,0.21c0.366-0.476,0.572-1.081,0.813-1.658c0.027-0.066-0.137-0.33-0.248-0.395
	c-0.691-0.407-0.672-0.851-0.522-1.14c0.17-0.329,0.561-0.509,0.857-0.754c0.15,0.149,0.421,0.342,0.426,0.44
	c0.016,0.281-0.17,0.504-0.098,0.786c0.084,0.332,0.291,0.731,0.565,1.05c0.505,0.591,0.696,1.523,0.253,1.796
	c-0.499,0.307-0.725,0.771-0.691,1.437c0.014,0.259-0.232,0.435-0.422,0.593c-0.236,0.195-0.465,0.462-0.826,0.458
	c-0.424-0.005-0.987-0.268-1.489-0.418c-0.313-0.093-0.641-0.226-0.933-0.265c-0.507-0.067-0.975-0.026-1.49-0.125
	c-0.592-0.113-1.001-0.632-0.876-1.048C81.816,34.492,82.197,34.113,83.259,33.473"/>
<path class="st0" d="M96.59,32.449c-0.136-0.139-0.298-0.377-0.404-0.4c-1.248-0.268-1.489-1.028-1.632-1.832
	c-0.06-0.339-0.201-0.593-0.626-0.866c-0.304-0.195-0.503-0.647-0.799-0.816c-0.431-0.245-0.909-0.347-1.366-0.494
	c-0.275-0.089-0.548-0.147-1.036-0.275c0.219-0.186,0.302-0.305,0.434-0.361c0.5-0.212,1.052-0.362,1.521-0.612
	c0.675-0.359,1.338-0.728,2.282-0.695c0.081,0.003,0.173,0.031,0.372,0.069c-0.054,0.203-0.052,0.385-0.139,0.493
	c-0.257,0.316-0.075,0.622,0.386,0.932s0.64,0.193,0.715-0.154c0.032-0.148,0.225-0.214,0.325-0.301
	c0.387,0.484,0.812,0.881,1.001,1.283c0.129,0.276-0.038,0.579-0.136,0.831c-0.045,0.115-0.246,0.137-0.38,0.196
	c-0.439,0.197-0.95,0.327-1.286,0.617c-0.143,0.123,0.004,0.581,0.153,0.886c0.218,0.447,0.557,0.892,0.85,1.338
	C96.746,32.342,96.668,32.395,96.59,32.449"/>
<path class="st0" d="M30.806,25.323c0.182,0.29,0.366,0.581,0.551,0.871c0.277-0.094,0.658-0.104,0.812-0.298
	c0.415-0.525,0.707-1.154,1.123-1.688c0.243-0.313,0.615-0.525,0.989-0.83c0.379,0.691,0.519,1.159,0.315,1.694
	c-0.283,0.746-0.902,1.061-1.591,1.385c-0.557,0.262-0.864,0.847-1.461,1.027c-0.69,0.206-0.61,1.083-1.421,1.134
	c-0.148,0.009-0.193,0.236-0.26,0.38c-0.375,0.798-0.679,1.637-1.098,2.388c-0.204,0.365-0.639,0.569-0.992,0.868
	c-0.374-0.496-0.578-0.876-0.319-1.328c0.307-0.536,0.809-0.853,1.269-1.237c0.213-0.178,0.209-0.563,0.301-0.856
	c0.051-0.164,0.088-0.335,0.141-0.498c0.054-0.165,0.115-0.326,0.179-0.486c0.255-0.635-0.145-1.66,0.699-1.968
	c0.098-0.036,0.038-0.269,0.117-0.357c0.151-0.168,0.348-0.298,0.527-0.444C30.727,25.161,30.766,25.242,30.806,25.323"/>
<path class="st0" d="M39.649,22.333c0.427-0.107,0.764-0.191,1.101-0.275c0.072,0.087,0.145,0.174,0.217,0.261
	c-0.459,0.511-0.913,1.021-1.386,1.561c-0.479-0.29-0.953-0.633-1.445-0.853c-0.245-0.11-0.577-0.061-0.78,0.032
	c-0.376,0.173-0.679,0.439-1.024,0.65c-0.124,0.076-0.287,0.108-0.59,0.218c0.133-0.641,0.218-1.119,0.347-1.574
	c0.129-0.456,0.316-0.883,0.456-1.337c0.036-0.114-0.008-0.283-0.052-0.427c-0.104-0.335-0.349-0.705,0.015-0.899
	c0.045-0.023,0.044-0.169,0.001-0.231c-0.438-0.629,0.198-0.894,0.089-1.418c-0.016-0.078,0.158-0.215,0.234-0.189
	c0.159,0.054,0.406,0.189,0.453,0.306c0.317,0.794,0.815,1.189,1.65,0.947c-0.015,0.82,0.047,1.547-0.025,2.217
	C38.849,21.895,39.317,22.092,39.649,22.333"/>
<path class="st0" d="M138.211,88.799c0.419,0.361,0.775,0.687,1.159,0.994c0.772,0.616,0.865,1.034,0.189,1.04
	c-0.504,0.004-0.895,0.059-1.215,0.297c-0.32,0.236-1.312-0.055-2.028-0.143c-0.337-0.041-0.716-0.148-1.128-0.236
	c-0.047-0.154-0.202-0.398-0.122-0.439c0.733-0.382,0.468-1.487,1.584-1.607c0.354-0.038,0.27-0.56,1.111-0.036
	C137.917,88.767,138.113,88.772,138.211,88.799"/>
<path class="st0" d="M76.79,36.882c0.215,1.166-0.631,1.998-1.842,1.53c-0.827-0.319-1.708-0.594-2.435-1.339
	c-0.139-0.144-0.266-0.367-0.26-0.491c0.004-0.087,0.235-0.084,0.382-0.091c0.075-0.004,0.24,0.108,0.277,0.083
	c0.821-0.557,2.111-0.082,3.345,0.257C76.439,36.882,76.606,36.866,76.79,36.882"/>
<path class="st0" d="M118.277,25.457c0.535,0.775,0.976,1.487,1.529,2.149c0.561,0.671,0.607,0.649,0.471,1.185
	c0.486-0.202,0.879-0.022,1.278,0.515c0.137,0.183,0.479,0.292,0.639,0.478c0.267,0.31,0.471,0.655,0.679,0.989
	c0.011,0.019-0.231,0.148-0.315,0.099c-0.679-0.392-1.423-0.74-1.996-1.246c-0.901-0.795-2.011-1.571-2.232-2.668
	C118.227,26.446,118.285,25.966,118.277,25.457"/>
<path class="st0" d="M58.477,27.746c-1.016,0.036-1.477,0.611-1.698,1.404c-0.096,0.346-0.827,0.359-1.291-0.007
	c-0.454-0.358-0.367-0.634-0.137-0.849c0.037-0.034,0.079-0.088,0.066-0.142c-0.224-0.931,0.651-0.938,1.161-1.228
	C57.062,26.65,58.225,27.182,58.477,27.746"/>
<path class="st0" d="M93.363,36.3c0.389-0.355,1.095-0.091,1.643,0.12c0.699,0.267,1.411,0.825,2.127,1.147
	c0.667,0.302,0.988,0.793,1.41,1.238c0.123,0.13,0.227,0.396,0.167,0.455c-0.066,0.065-0.335,0.004-0.511-0.078
	c-0.217-0.099-0.425-0.305-0.643-0.413c-0.316-0.157-0.638-0.26-0.956-0.402c-0.264-0.118-0.54-0.233-0.788-0.396
	C95.03,37.457,94.263,36.92,93.363,36.3"/>
<path class="st0" d="M88.659,50.261c0.635,0.237,1.209,0.394,1.773,0.677c0.566,0.283,1.385,0.696,1.615,1.043
	c0.239,0.361,0.029,0.809-0.21,1.038c-0.278,0.267-1.066-0.121-1.521-0.669c-0.069-0.082-0.133-0.211-0.2-0.243
	C88.956,51.557,89.046,50.902,88.659,50.261"/>
<path class="st0" d="M100.345,22.601c0.602,0.499,1.079,0.892,1.535,1.265c0.843-0.403,1.437-1.241,2.874-0.136
	c0.102,0.943-0.299,1.196-1.372,0.738c-0.359-0.153-0.647-0.322-0.818,0.036c-0.046,0.098-0.578-0.103-0.888-0.196
	C100.881,24.07,100.398,23.601,100.345,22.601"/>
<path class="st0" d="M121.148,31.828c0.03,0.016,0.128,0.045,0.161,0.09c0.538,0.745,1.223,1.498,1.574,2.236
	c0.203,0.43-0.145,0.835-0.26,1.337c-0.749-0.681-1.405-1.169-1.197-1.783c0.011-0.031,0.03-0.076,0.009-0.107
	C120.962,32.908,121.035,32.363,121.148,31.828"/>
<path class="st0" d="M109.285,22.725c0.021,0.203,0.089,0.566,0.083,0.901c-0.002,0.111-0.183,0.216-0.32,0.208
	c-0.136-0.008-0.408-0.145-0.467-0.252c-0.184-0.333-0.335-0.683-0.416-1.017c-0.117-0.477-0.177-0.95-0.212-1.414
	c-0.01-0.133,0.128-0.228,0.199-0.341c0.134,0.11,0.331,0.21,0.394,0.332C108.785,21.611,108.985,22.087,109.285,22.725"/>
<path class="st0" d="M123.988,37.203c0.527,0.614,1.082,1.135,1.417,1.67c0.275,0.438,0.286,0.892,0.429,1.372
	c-0.928-0.277-1.332-0.921-1.674-1.513C123.818,38.143,123.506,37.513,123.988,37.203"/>
<path class="st0" d="M89.031,27.517c0.593,0.402,0.802,1.113,0.347,1.475c-0.181,0.144-0.303,0.343-0.478,0.493
	c-0.161,0.139-0.357,0.245-0.537,0.365c-0.417-0.433-0.554-1.307-0.224-1.602C88.416,28,88.717,27.772,89.031,27.517"/>
<path class="st0" d="M54.376,26.324c-0.39-0.426-0.736-0.741-0.971-1.089c-0.16-0.237-0.28-0.595-0.201-0.757
	c0.056-0.117,0.501-0.091,0.718,0.033c0.512,0.292,0.993,0.681,1.592,1.101C55.057,25.897,54.741,26.095,54.376,26.324"/>
<path class="st0" d="M133.326,156.52c1.041,0.188,1.555,0.95,1.922,1.754c0.077,0.169-0.272,0.489-0.476,0.693
	c-0.025,0.025-0.477-0.231-0.514-0.377c-0.16-0.622-0.277-1.238-0.884-1.706C133.31,156.834,133.341,156.651,133.326,156.52"/>
<path class="st0" d="M90.682,33.04c-0.156-0.385-0.324-0.807-0.501-1.259c0.737,0.31,1.374,0.578,2.121,0.891
	c-0.1,0.31-0.206,0.648-0.307,0.974C91.535,33.434,91.178,33.269,90.682,33.04"/>
<path class="st0" d="M94.322,31.687c-0.592,0.545-1.168,0.733-2.183,0.065c0.075-0.293,0.16-0.622,0.26-0.995
	C93.029,31.063,93.642,31.359,94.322,31.687"/>
<path class="st0" d="M90.593,33.903c0.24,0.739-0.069,1.136-0.55,1.415c-0.254,0.148-0.475-0.066-0.598-0.359
	C89.281,34.57,90.102,33.819,90.593,33.903"/>
<path class="st0" d="M125.02,34.792c-0.013,0.77-0.015,1.334-0.013,1.956c-0.718-0.732-0.912-1.318-0.602-1.752
	C124.488,34.88,124.727,34.883,125.02,34.792"/>
<path class="st0" d="M91.974,29.471c-0.608,0.29-1.092,0.522-1.606,0.768c-0.322-0.428-0.482-0.753,0.129-0.746
	c0.175,0.003,0.384-0.055,0.431-0.175C91.075,28.944,91.39,29.14,91.974,29.471"/>
</svg>
