<?xml version="1.0" encoding="utf-8"?>
<!-- Generator: Adobe Illustrator 24.2.0, SVG Export Plug-In . SVG Version: 6.00 Build 0)  -->
<svg version="1.0" id="Layer_1" xmlns="http://www.w3.org/2000/svg" xmlns:xlink="http://www.w3.org/1999/xlink" x="0px" y="0px"
	 viewBox="0 0 560.039 44.414" style="enable-background:new 0 0 560.039 44.414;" xml:space="preserve">
<style type="text/css">
	.st0{fill:#C80000;}
</style>
<g>
	<path class="st0" d="M547.734,43.681h11.895V33.163h-11.895V43.681z M547.295,10.517l2.402,19.658h7.881l2.461-19.658V0.732
		h-12.744V10.517z M498.164,43.681h12.48V20.099l16.084,23.582h12.51V0.732h-12.51v23.762L510.556,0.732h-12.392V43.681z
		 M462.129,12.89c1.621-1.894,3.769-2.842,6.445-2.842c2.793,0,5.005,0.933,6.636,2.798c1.63,1.866,2.446,4.82,2.446,8.863
		c0,4.804-0.781,8.134-2.344,9.99c-1.563,1.856-3.769,2.783-6.621,2.783c-2.773,0-4.966-0.947-6.577-2.842
		c-1.611-1.894-2.417-5.01-2.417-9.346C459.697,17.92,460.507,14.785,462.129,12.89 M449.384,34.775
		c1.973,3.34,4.546,5.781,7.72,7.324c3.174,1.543,7.182,2.315,12.027,2.315c4.765,0,8.745-0.894,11.938-2.681s5.635-4.287,7.324-7.5
		s2.534-7.329,2.534-12.349c0-6.914-1.933-12.29-5.8-16.128C481.259,1.918,475.752,0,468.603,0c-6.972,0-12.412,1.953-16.318,5.859
		c-3.907,3.906-5.86,9.365-5.86,16.377C446.425,27.256,447.411,31.435,449.384,34.775 M412.148,12.89
		c1.621-1.894,3.769-2.842,6.445-2.842c2.793,0,5.005,0.933,6.636,2.798c1.631,1.866,2.446,4.82,2.446,8.863
		c0,4.804-0.781,8.134-2.343,9.99c-1.563,1.856-3.77,2.783-6.621,2.783c-2.774,0-4.966-0.947-6.578-2.842
		c-1.611-1.894-2.417-5.01-2.417-9.346C409.716,17.92,410.527,14.785,412.148,12.89 M399.404,34.775
		c1.972,3.34,4.546,5.781,7.72,7.324c3.173,1.543,7.182,2.315,12.026,2.315c4.765,0,8.745-0.894,11.939-2.681
		c3.193-1.787,5.634-4.287,7.324-7.5c1.689-3.213,2.534-7.329,2.534-12.349c0-6.914-1.934-12.29-5.801-16.128S425.771,0,418.623,0
		c-6.973,0-12.413,1.953-16.319,5.859c-3.906,3.906-5.859,9.365-5.859,16.377C396.445,27.256,397.431,31.435,399.404,34.775
		 M357.246,40.195c2.812,2.812,7.871,4.219,15.176,4.219c4.16,0,7.607-0.601,10.341-1.802c2.735-1.201,4.864-2.964,6.387-5.288
		c1.523-2.324,2.285-4.864,2.285-7.617c0-2.344-0.571-4.463-1.714-6.358c-1.142-1.894-2.969-3.481-5.478-4.761
		c-2.51-1.279-6.665-2.543-12.466-3.794c-2.344-0.488-3.828-1.015-4.453-1.582c-0.645-0.546-0.967-1.161-0.967-1.845
		c0-0.938,0.391-1.733,1.172-2.388c0.781-0.654,1.943-0.981,3.486-0.981c1.875,0,3.345,0.439,4.409,1.318
		c1.065,0.879,1.763,2.285,2.095,4.219l12.51-0.733c-0.547-4.453-2.261-7.7-5.142-9.741C382.006,1.02,377.822,0,372.334,0
		c-4.473,0-7.994,0.561-10.562,1.684s-4.492,2.666-5.771,4.629c-1.28,1.963-1.919,4.048-1.919,6.255c0,3.359,1.249,6.123,3.75,8.291
		c2.48,2.168,6.63,3.906,12.451,5.215c3.554,0.781,5.82,1.611,6.797,2.49c0.976,0.879,1.465,1.875,1.465,2.988
		c0,1.172-0.513,2.203-1.539,3.091c-1.025,0.889-2.485,1.333-4.379,1.333c-2.54,0-4.493-0.869-5.86-2.607
		c-0.84-1.074-1.396-2.637-1.67-4.688l-12.627,0.791C352.841,33.808,354.433,37.382,357.246,40.195 M315.263,28.125v4.043
		c-1.738,1.035-3.281,1.767-4.629,2.197c-1.347,0.43-2.764,0.644-4.248,0.644c-3.125,0-5.561-0.996-7.309-2.988
		c-1.748-1.992-2.622-5.312-2.622-9.961c0-4.375,0.864-7.573,2.593-9.595c1.728-2.021,4.047-3.032,6.958-3.032
		c1.952,0,3.559,0.43,4.819,1.289c1.26,0.86,2.153,2.1,2.681,3.721l12.802-2.285c-0.781-2.773-1.948-5.064-3.501-6.87
		c-1.552-1.807-3.506-3.14-5.859-3.999C314.594,0.429,311.045,0,306.298,0c-4.921,0-8.838,0.693-11.748,2.08
		c-3.73,1.797-6.562,4.428-8.496,7.895c-1.933,3.467-2.9,7.544-2.9,12.232c0,4.453,0.883,8.398,2.651,11.836
		c1.768,3.437,4.258,6.025,7.471,7.763c3.213,1.739,7.368,2.608,12.466,2.608c4.14,0,7.72-0.484,10.737-1.451
		c3.018-0.966,6.489-2.787,10.415-5.463V19.189h-20.508v8.936H315.263z M234.902,43.681h12.48V20.099l16.084,23.582h12.51V0.732
		h-12.51v23.762L247.295,0.732h-12.393V43.681z M211.992,43.681h13.301V0.732h-13.301V43.681z M154.687,43.681h10.869V10.927
		l8.36,32.754h9.838l8.375-32.754v32.754h10.869V0.732h-17.443l-6.683,26.133l-6.731-26.133h-17.454V43.681z M98.056,43.681h10.869
		V10.927l8.36,32.754h9.838l8.375-32.754v32.754h10.869V0.732h-17.443l-6.683,26.133L115.51,0.732H98.056V43.681z M76.172,26.93
		c0,2.381-0.65,4.22-1.949,5.518c-1.299,1.297-3.091,1.946-5.376,1.946c-2.305,0-4.106-0.658-5.405-1.976
		c-1.299-1.317-1.948-3.146-1.948-5.488V0.732H48.252v25.589c0,2.108,0.41,4.528,1.23,7.26c0.508,1.698,1.45,3.348,2.827,4.948
		c1.377,1.6,2.896,2.835,4.556,3.703c1.66,0.869,3.725,1.449,6.196,1.743c2.471,0.292,4.751,0.439,6.841,0.439
		c3.613,0,6.709-0.479,9.287-1.435c1.855-0.683,3.628-1.869,5.318-3.557c1.689-1.688,2.929-3.66,3.72-5.914
		c0.791-2.254,1.187-4.65,1.187-7.187V0.732H76.172V26.93z M27.319,32.314c-1.299,1.426-3.218,2.139-5.757,2.139
		c-2.617,0-4.648-0.883-6.094-2.648c-1.445-1.766-2.168-5.029-2.168-9.789c0-3.842,0.606-6.661,1.817-8.456
		c1.601-2.419,3.906-3.629,6.914-3.629c1.328,0,2.529,0.274,3.603,0.821c1.074,0.547,1.983,1.328,2.725,2.343
		c0.449,0.606,0.879,1.563,1.289,2.871l11.719-2.607c-1.504-4.531-3.804-7.891-6.9-10.078C31.372,1.094,27.118,0,21.709,0
		C14.795,0,9.448,1.908,5.669,5.723C1.889,9.539,0,15,0,22.104c0,5.329,1.074,9.701,3.222,13.117
		c2.149,3.416,4.702,5.801,7.661,7.158c2.959,1.356,6.773,2.035,11.441,2.035c3.847,0,7.016-0.557,9.507-1.67
		c2.49-1.114,4.575-2.764,6.255-4.951c1.679-2.188,2.91-4.912,3.691-8.174l-11.631-3.516C29.56,28.818,28.618,30.889,27.319,32.314"
		/>
</g>
</svg>
