<?xml version="1.0" encoding="utf-8"?>
<!-- Generator: Adobe Illustrator 24.2.0, SVG Export Plug-In . SVG Version: 6.00 Build 0)  -->
<svg version="1.0" id="Layer_1" xmlns="http://www.w3.org/2000/svg" xmlns:xlink="http://www.w3.org/1999/xlink" x="0px" y="0px"
	 viewBox="0 0 138.555 162.933" style="enable-background:new 0 0 138.555 162.933;" xml:space="preserve">
<style type="text/css">
	.st0{fill:#FFFFFF;}
</style>
<path class="st0" d="M63.273,56.621c-0.167,0.402-2.264,2.572-2.745,3.254c-0.291,0.422-0.288,1.29-0.179,1.894
	c0.453,2.497-0.043,3.767-2.335,5.01c0.249,0.215,0.437,0.414,0.657,0.555c0.29,0.186,0.792,0.241,0.882,0.5
	c0.651,1.867,1.223,3.782,1.905,5.661c0.458,1.253,0.051,1.808-1.246,1.757c-0.143,0.806-0.277,1.549-0.441,2.448
	c0.914,0.307,1.798,0.602,2.868,0.956c-1.187,1.081-0.471,1.593,0.457,1.968c-0.207,0.531-0.387,0.992-0.724,1.838
	c2.373-2.078,6.169-2.348,8.571-0.871c1.078,0.664,1.075,2.203-0.066,2.904c-0.322,0.199-0.699,0.32-1.012,0.533
	c-0.224,0.151-0.38,0.395-0.737,0.779c1.62,1.211,3.445,1.044,5.297,1.321c-0.345-1.211-0.59-2.22,1.211-1.555
	c0.334,0.123,0.84-0.299,1.396-0.523c1.135,1.815,1.838,3.753,1.594,5.738c-0.152,1.229,0.08,1.941,1.229,2.81
	c0.959,0.724,1.495,1.946,2.357,3.117c1.397-0.305-1.441-3.387,1.617-2.989c-0.087-2.676-2.1-4.749-3.234-7.057
	c-0.344-0.694-0.88-1.328-1.133-2.035c-0.148-0.415-0.029-1.298,0.142-1.324c1.406-0.212,1.161-1.388,1.458-2.298
	c0.14-0.427,1.025-0.988,1.172-0.882c1.837,1.326,3.258-0.02,4.865,0.071c0.552,0.032,1.349,0.118,1.667,0.478
	c1.602,1.814,3.724,2.674,5.792,3.754c0.575,0.3,1.072,0.804,1.782,1.344c1.092-0.2,2.961,0.158,2.283-2.096
	c-0.225-0.757-0.236-1.922-0.681-2.196c-1.195-0.736-2.574-1.343-3.83-1.544c-2.041-0.326-3.816-1.014-5.26-2.704
	c-0.159-0.186-0.3-0.391-0.474-0.557c-1.003-0.956-1.996-1.904-3.053-2.941c-0.014,0.027-0.175,0.336-0.399,0.759
	c-3.281-1.752-5.482-0.719-7.106,2.023c-1.96-1.071-3.605-2.131-4.162-3.784c-2.653-0.629-5.169-1.234-7.609-1.828
	c0.169-3.105-0.175-3.699-2.091-3.906c0.046-0.669,0.093-1.343,0.151-2.212c2.618-0.37,5.276-0.541,7.787-1.198
	c1.23-0.32,2.222-1.11,3.525,0.203c0.263-0.47,0.476-0.854,0.74-1.334c0.329,0.151,0.694,0.317,1.06,0.483
	c0.065-0.188,0.128-0.376,0.192-0.564c-1.029-0.536-2.045-1.071-3.051-1.607c0.105-0.067,0.209-0.134,0.314-0.201
	c-0.471-0.9-0.802-1.959-1.411-2.67c-1.336-1.561-1.158-2.288-0.136-3.974c0.779-1.287,1.247-1.079,2.182-0.4
	c0.878,0.634,1.099,0.113,0.684-1.277c0.844,0.936,1.477,1.625,2.178,2.378c0.395-1.479,0.969-1.51,2.571-0.753
	c0.909,0.429,1.91,0.48,2.847,0.695c0.58,0.761-0.341,2.328,1.238,2.483c-0.161,0.846,0.635,1.247,0.831,1.763
	c0.826,2.186,2.222,3.694,3.922,5.118c0.472,0.396,0.651,1.31,0.971,1.985c1.657,0.962,3.518,2.032,5.435,3.07
	c0.215,0.116,0.494-0.021,0.717,0.087c0.74,0.356,1.584,0.206,2.117,1.498c0.258,0.635,1.734,1.672,2.129,1.54
	c0.801-0.271,1.045,0.805,1.654,0.792c-0.189,0.156-0.377,0.311-0.515,0.424c2.511,1.529,5.103,3.059,7.326,5.382
	c1.042,0.218,1.948,0.393,2.559,1.894c0.274,0.678,1.422,1.3,2.155,1.978c0.348,0.323,0.623,0.715,0.934,1.076
	c-0.286,0.123-0.572,0.246-0.965,0.415c0.483,0.296,0.937,0.574,1.701,1.038c-0.332,0.185-0.629,0.351-0.932,0.519
	c1.089,0.459,1.934,0.813,2.783,1.166c-0.001,0.1-0.001,0.199-0.002,0.299c-0.562,0-1.123,0-1.289,0
	c0.333,1.15,0.625,2.177,0.943,3.321c-0.679-0.057-1.215-0.149-1.71-0.135c-1.4,0.039-1.694,0.959-0.885,2.274
	c0.404,0.657,0.908,1.272,0.307,2.013c-0.428,0.528-0.248,1.761,0.154,2.604c1.073,2.232,0.586,4.074,0.103,5.974
	c-0.122,0.482-0.225,0.985-0.222,1.499c0.017,1.354-1.608,3.014-2.882,2.916c-1.744-0.135-4.552-2.461-4.632-3.912
	c-0.112-1.918-0.162-3.825-0.222-5.724c-0.021-0.664,0.164-1.291,0.249-1.951c-1.57-0.037-2.725,0.905-2.539,2.327
	c0.17,1.267-0.404,1.649-1.722,1.588c-0.408-0.019-0.774,0.191-1.178,0.25c-2.951,0.437-2.686,2.784-3.073,4.728
	c-0.067,0.333,0.628,0.866,0.973,1.307c0.539-0.343,1.264-0.584,1.557-1.056c0.328-0.53,0.265-1.268,0.678-1.881
	c2.276,2.129-0.592,4.223,1.474,6.524c0.954-0.832,1.932-1.698,3.036-2.699c1.411,0.657,3.087,1.433,4.889,2.264
	c0.091,0.464,0.192,0.993,0.301,1.586c-0.372-0.037-0.725-0.071-1.175-0.116c0.2,0.654,0.377,1.242,0.624,2.086
	c1.011-1.347,4.405,0.562,4.041-2.046c1.557-0.339,2.987-0.651,4.621-1.009c1.419,1.171,0.232,2.064-0.315,3.241
	c-0.528-0.471-0.884-0.935-1.37-1.175c-0.448-0.221-1.254-0.42-1.521-0.248c-0.997,0.648-0.821,3.484,0.269,4.358
	c0.401,0.317,1.075,0.451,1.641,0.567c1.653,0.339,3.339,0.542,4.966,0.984c0.503,0.137,0.739,1.031,1.274,1.298
	c0.852,0.424,1.86,0.613,3.039,1.271c-0.802,0.142-1.604,0.283-2.602,0.459c0.426,0.449,0.758,1.043,1.309,1.338
	c1.094,0.588,2.762,0.587,2.853,2.118c0.006,0.117,0.837,0.261,1.293,0.361c0.544,0.12,1.099,0.205,1.661,0.693
	c-0.446,0.126-0.953,0.183-1.317,0.398c-0.272,0.161-0.586,0.618-0.483,0.776c0.181,0.275,0.643,0.526,1.035,0.601
	c0.673,0.13,1.384,0.118,1.802,0.146c0.92-0.405,1.696-0.998,2.519-1.021c0.467-0.013,1.04,0.895,1.496,1.42
	c0.319,0.366,0.662,0.764,0.77,1.185c0.171,0.662,0.508,1.454-0.84,1.714c-0.284,0.055-0.748,0.395-0.721,0.54
	c0.248,1.308-0.835,2.024-1.874,2.821c-0.173,0.133,0.094,0.65,0.187,1.231c-1.254,0.327-2.534,0.722-3.838,0.967
	c-0.465,0.087-0.975-0.222-1.485-0.294c-0.841-0.119-1.719-0.372-2.547-0.247c-1.771,0.269-6.259-0.51-6.739-1.122
	c-2.248,0.808-4.48,1.502-6.602,2.401c-1.576,0.668-2.965,1.689-4.536,2.396c-2.57,1.157-5.238,2.14-7.808,3.284
	c-1.899,0.846-3.668,1.961-5.59,2.702c-0.937,0.361-2.112,0.151-3.176,0.173c-0.179,0.004-0.348-0.211-0.511-0.185
	c-1.653,0.263-3.304,0.519-4.937,0.849c-1.564,0.315-1.899,1.008-1.312,2.219c0.422,0.866,0.855,1.958-0.746,2.777
	c-0.741-0.244-1.478-0.484-1.827-0.598c-0.371-0.934-0.669-1.644-0.975-2.354c-0.697,0.302-1.992,0.691-1.975,0.893
	c0.076,0.939,0.409,1.867,0.813,2.714c0.186,0.392,0.802,0.59,1.683,1.202c-1.204,0.255-2.026,0.333-2.779,0.61
	c-1.94,0.713-3.851,1.459-5.638,2.357c-0.193,0.098,0.171,1.271,0.274,2.051c-1.622,1.186-1.884,2.299-1.139,4.35
	c-1.461,1.258-2.135,1.175-2.827-0.285c-0.449-0.947-0.986-1.861-1.492-2.804c-0.097-0.183-0.182-0.546-0.082-0.636
	c1.617-1.434,0.446-1.988-0.737-2.616c-0.173-0.093-0.062-0.545-0.216-0.744c-0.658-0.841-1.38-1.649-2.367-2.762
	c0.706-1.461-1.19-3.492,0.18-5.59c0.229-0.347,0.289-2.339-1.542-2.823c-0.283-0.075-0.324-0.789-0.629-1.611
	c-1.408-0.816-3.361-1.937-5.239-3.003c-0.915,0.273-1.806,0.539-2.694,0.805c-0.132-0.128-0.264-0.255-0.396-0.382
	c0.445-0.592,0.894-1.184,1.418-1.87c-1.638-1.266-3.579-0.555-5.358-0.49c-1.127,0.041-2.224,0.418-2.981,0.573
	c-0.897,0.748-1.64,1.373-2.469,2.079c2.077,1.787-0.645,2.538-1.054,3.984c-0.615-0.163-1.133-0.299-1.552-0.41
	c-0.41,0.582-0.739,1.058-1.064,1.534c-0.897-0.597-1.808-1.185-2.698-1.796c-0.417-0.286-0.753-0.806-1.191-0.896
	c-1.442-0.297-2.918-0.501-4.384-0.614c-0.394-0.03-1.163,0.432-1.116,0.598c0.571,2.052-1.258,2.707-2.732,2.991
	c-2.704,0.52-2.697,2.605-3.636,4.072c-0.4,0.621-0.644,1.326-0.894,2.01c-0.348,0.95-0.619,1.917-0.812,2.64
	c-0.727-0.107-1.828-0.328-2.899-0.414c-1.633-0.131-3.244-0.168-4.984-0.251c-0.197-0.381-0.461-0.904-0.593-1.171
	c1.236-0.41,2.388-0.786,3.246-1.064c-0.457-2.477-4.223-1.742-4.299-3.697c-0.751-0.374-1.817-0.692-1.881-0.971
	c-0.253-1.113-0.246-2.235-0.115-3.315c0.14-1.169,0.439-2.321,0.87-3.428c0.194-0.501,0.644-1.169,1.175-1.256
	c1.772-0.29,2.897-1.915,2.255-3.432c-0.287-0.672-0.403-1.382-0.599-2.135c2.548,0.222,5.36-1.905,5.504-3.761
	c0.053-0.729,0.32-1.482,0.698-2.153c1.169-2.068,2.548-4.081,3.782-6.16c0.561-0.942,0.524-2.229,2.331-0.802
	c0.531,0.417,1.451,0.686,2.198,1.177c1.455,0.952,1.906-0.485,2.805-1.38c0.022,0.515,0.047,1.03,0.065,1.358
	c1.067,0.563,1.975,1.039,3.063,1.608c0.283-1.126-1.733-2.365,0.138-2.722c-0.983-0.833-2.406-1.787-3.391-2.985
	c-1.001-1.217-1.668-2.637-2.252-4.036c-0.426-1.023-0.543-2.151-0.749-3.238c-0.11-0.583-0.2-1.174-0.21-1.771
	c-0.007-0.458,0.117-0.93,0.184-1.397c0.419,0.015,0.845,0.097,1.256,0.029c0.609-0.101,1.205-0.308,1.548-0.4
	c-0.869-1.532-1.652-2.959-2.57-4.729c-0.234,0.415-0.49,0.868-0.745,1.321c-0.176-0.07-0.351-0.14-0.525-0.209
	c-0.151-0.697-0.298-1.393-0.485-2.329c-0.706,0.255-1.385,0.521-2.078,0.744c-1.026,0.332-1.98,0.599-1.465-0.893
	c0.081-0.239-0.47-0.726-0.859-0.805c-0.659-0.135-1.454,0.036-2.142-0.053c-0.878-0.114-2.31,0.434-2.187-1.062
	c0.017-0.213-0.726-0.357-1.144-0.485c-0.783-0.241-1.584-0.448-2.403-0.678c-1.806,1.314-3.736,2.699-5.344,3.845
	c-0.72-1.887-1.406-3.876-2.016-5.864c0.119-0.082,0.238-0.165,0.357-0.247c0.054,0.363,0.111,0.725,0.189,1.207
	c2.205-2.82,3.329-5.345,2.618-8.059c-0.679,0.545-1.352,1.081-2.193,1.748c0.157-0.552,0.273-0.955,0.389-1.358
	c-0.177-0.055-0.354-0.111-0.53-0.166c0.933-0.863,1.859-1.725,2.985-2.788c-0.109-1.113-0.797-1.03-3.401,0.643
	c-0.94-0.271-1.721-0.497-2.486-0.721c-1.284,1.623-2.337,3.313-4.39,3.607c0.167-0.728,0.411-1.323,0.356-1.795
	c-0.017-0.143-0.868,0.054-1.652,0.122c0.23-0.356,0.604-0.933,1.087-1.682c-1.115,0.453-2.319,0.938-3.532,1.423
	C0.111,86.895,0.056,86.813,0,86.731c0.513-0.431,1.023-0.861,1.574-1.329c-0.191-0.1-0.432-0.226-0.914-0.48
	c0.903-0.456,1.612-0.818,2.312-1.175c-0.182-0.168-0.416-0.383-0.749-0.694c1.747-0.487,3.269-0.914,5.261-1.48
	c-0.693,1.503-1.439,3.113-2.267,4.912c2.2-1.369,2.808-3.002,3.453-4.663c0.182-0.471,0.62-0.947,0.938-1.42
	c0.26,0.276,0.524,0.553,0.61,0.642c1.6-1.127,3.145-2.227,4.651-3.341c1.992-1.48,3.279-0.421,4.89-0.475
	c0.427-0.014,1.051-0.124,1.363-0.42c2.344-2.224,4.562-4.484,6.639-6.781c0.686-0.758,1.102-1.992,1.814-2.42
	c1.124-0.673,2.185-1.86,3.543-1.667c0.428,0.061,1.092-0.601,1.82-1.041c-0.536-0.564-0.9-0.951-1.262-1.338
	c0.06-0.155,0.119-0.311,0.178-0.467c0.761,0.094,1.523,0.187,2.66,0.326c0.144-0.104,0.443-0.376,0.155-1.154
	c-0.24-0.65-0.065-1.562-0.147-2.332c-0.029-0.281-0.208-0.66-0.41-0.696c-0.764-0.135-1.559-0.175-2.353-0.202
	c-1.167-0.04-1.504,1.221-2.228,2.005c-0.708,0.77-1.789,1.41-2.691,1.612c-1.893,0.427-3.789,1.994-4.6,4.123
	c-0.48,1.267-0.799,1.42-1.513,0.696c-1.985,2.014-2.989,5.018-5.854,6.331c-0.349,0.16-0.747-0.052-1.162-0.097
	c1.167-1.23,2.178-2.322,3.14-3.38c-0.721-1.663-1.081-1.652-2.734-0.436c-0.432,0.317-1.352,0.407-1.605,0.152
	c-0.675-0.675-1.137-1.565-1.579-2.439c-0.132-0.261,0.034-0.75,0.46-1.438c0.508,0.43,0.896,1.217,1.57,1.21
	c1.082-0.011,2.813-0.194,3.415-0.936c1.161-1.434,2.607-1.94,3.701-3.171c2.51-2.825,4.851-5.712,7.659-7.591
	c1.853-1.239,3.79-2.09,5.732-3.17c0.028-0.18,0.003-0.701,0.19-1.115c0.537-1.193,0.582-1.949-0.131-3.007
	c-0.74-1.1-0.89-2.874-1.251-4.394c-0.074-0.32,0.1-1.003,0.318-1.205c0.962-0.889,1.309-2.092,1.653-3.411
	c0.736-2.858-0.065-4.233-2.303-4.195c-0.443,0.008-1.084-0.468-1.291-0.963c-0.377-0.91-0.79-2.046-0.738-3.007
	c0.165-3.261-2.185-4.591-3.627-6.68c-0.393-0.561-1.63-0.26-2.372-0.343c-0.798-0.925-1.684-1.889-2.583-2.892
	c-0.207-0.231-0.433-0.624-0.46-0.897c-0.138-1.418-0.832-2.398-2.303-2.974c-0.181-2.074-0.315-4.049-0.926-6.093
	c-0.306-1.029-1.365-2.18-2.103-3.285c-0.319-0.483-0.74-1.135-0.682-1.442c0.048-0.245,0.816-0.025,1.184-0.117
	c0.449-0.113,0.96-0.221,1.193-0.54c0.396-0.542,0.594-1.247,0.825-1.767C17.511,2.563,19.309,1.432,18.03,0
	c2.25,0.335,5.154,2.851,6.551,0.756c1.525,0.875,3.142,2.001,4.725,2.8c1.717,0.867,3.422,1.428,5.064,2.126
	c0.735,0.312,1.478,0.767,2.167,0.912c0.762,0.159,1.483,0.036,2.51,0.036c0.03,1.43,1.825,2.899,1.036,4.937
	c-0.741,1.984-0.485,4.688-0.831,7.053c-0.186,1.32-0.485,2.603-0.795,3.884c-0.258,1.062-0.079,1.87,0.852,2.486
	c1.331,0.881,2.612,1.829,3.858,2.733c-0.123,0.105-0.445,0.38-0.715,0.611c1.084,0,2.191,0,3.373,0
	c0.524-0.777,0.913-2.028,2.315-1.22c0.359,0.208,1.194-0.431,1.531-0.974c0.64-1.031,1.072-2.274,1.624-3.516
	c0.386,0.233,0.831,0.503,1.57,0.956c-0.437,2.085-0.91,4.276-1.472,6.692c0.957,0,1.848,0,2.764,0
	c-0.515,0.896-1.034,1.545-1.315,2.34c-0.313,0.884-0.412,1.901-0.681,3.176c0.448-0.293,0.67-0.439,0.892-0.584
	c0.259,0.968,0.518,1.953,0.795,3.028c0.376,0.103,0.791,0.184,1.188,0.338c0.231,0.09,0.619,0.293,0.62,0.454
	c0.005,1.249-0.078,2.501-0.132,3.752c-0.027,0.623-0.034,1.246-0.051,1.869c0.132-0.138,0.264-0.277,0.396-0.416
	c1.144,0.84,2.295,1.681,3.458,2.522c-0.052,0.139-0.104,0.278-0.156,0.416c-0.462-0.178-0.923-0.356-1.517-0.586
	c-0.024,2.011,1.177,1.396,2.055,1.663c0.085,0.843,0.176,1.746,0.276,2.733c-0.232,0.193-0.527,0.437-1.117,0.921
	c0.66,0.114,0.994,0.171,1.75,0.302c-0.486,0.999-0.896,1.827-1.35,2.73c0.485,0.302,1.618,0.445,0.713,1.972
	c1.105-1.304,2.164-1.101,3.265-0.239C63.255,56.649,63.264,56.635,63.273,56.621"/>
<path class="st0" d="M60.793,37.258c0.02,0.594,0.088,0.909,0.028,1.177c-0.156,0.691-0.369,1.361-0.562,2.039
	c-0.578-0.433-1.266-0.735-1.699-1.34c-0.388-0.54-0.495-1.416-0.848-2.521c-0.376,0.803-0.651,1.385-0.921,1.955
	c-1.118-1.007-0.557-2.126-0.15-4.593c0.273-1.657,0.633-3.293,0.804-4.966c0.061-0.594-0.288-1.266-0.447-1.875
	c0.056-1.114,0.111-2.291,0.17-3.699c0.478,1.863,2.036,3.019,1.302,5.298c-0.289,0.903,0.4,2.038,1.398,2.444
	c-1.004-1.482-0.447-2.275,0.422-3.154c0.418-0.424,0.532-1.344,0.897-2.345c0.098,0.991,0.154,1.606,0.217,2.22
	c0.097,0.952,0.477,1.467,1.256,1.556c1.101,0.126,1.381,0.832,0.756,2.071c-0.106,0.211-0.139,0.486-0.142,0.496
	c0.752,0.466,1.423,0.882,2.163,1.341c1.358-1.587,1.697-1.513,2.159,1.04c0.226-1.679,0.41-3.011,0.665-4.783
	c0.719,1.164,1.25,2.022,1.73,2.797c0.781-0.547,1.321-0.925,1.895-1.324c0.216,0.242,0.51,0.57,0.951,1.064
	c-0.014-0.546-0.02-0.83-0.027-1.162c0.825,0.486,1.627,0.959,2.164,1.275c0.633,0.978,1.148,1.768,1.738,2.663
	c-0.155,0.665-0.369,1.594-0.655,2.9c-0.362-0.885-0.567-1.579-0.891-2.159c-0.296-0.53-0.721-0.937-1.132-1.455
	c-0.195,1.658-0.34,3.01-0.477,4.361c-0.137-0.007-0.273-0.014-0.41-0.022c-0.553-1.207-2.585-0.894-1.865-3.322
	c-0.865,0.167-1.278-0.103-1.027-1.307c-0.207,0.7-0.288,1.536-0.638,2.072c-0.713,1.092-1.763,1.01-2.785,0.992
	c-0.394-0.007-0.851,0.228-1.174,0.536c-0.672,0.641-1.546,0.643-2.32-0.217C62.633,38.953,61.766,38.191,60.793,37.258"/>
<path class="st0" d="M104.723,21.348c-0.287,0.339-0.571,0.679-0.906,1.089c0.305,0.144,0.525,0.266,0.76,0.353
	c0.186,0.069,0.39,0.095,0.586,0.14c-0.045,0.157-0.089,0.313-0.133,0.469c-0.548-0.09-1.136-0.092-1.637-0.294
	c-0.524-0.212-0.965-0.616-1.663-1.084c0.111,1.167,0.207,1.927,0.314,2.72c-0.187,0.095-0.432,0.219-0.762,0.388
	c0.153,0.497,0.295,0.948,0.518,1.623c-0.568-0.067-0.952-0.112-1.455-0.171c-0.042,1.357-0.037,2.648,0.001,3.845
	c-0.862,0.265-1.837,0.765-2.792,0.788c-0.57,0.014-1.492-0.573-1.594-1.147c-0.268-1.5-0.162-3.138-0.044-4.729
	c0.064-0.88,0.326-1.774,0.505-2.663c0.306-1.511,1.092-2.435,2.369-3.072c0.694-0.347,1.336-1.185,2.173-1.925
	c-0.252,1.558,0.073,2.646,1.8,2.104c-0.259,0.519-0.44,0.896-0.602,1.238c0.285,0.231,0.549,0.447,0.93,0.757
	c0.347-0.211,0.946-0.573,1.553-0.935C104.67,21.011,104.696,21.179,104.723,21.348"/>
<path class="st0" d="M70.326,26.086c-0.151-0.35-0.227-0.528-0.34-0.79c-0.053,0.245-0.077,0.402-0.12,0.549
	c-0.18,0.614-0.292,1.672-0.553,1.747c-0.599,0.171-1.649,0.144-1.849-0.304c-0.666-1.495-1.846-1.469-2.844-1.927
	c-1.155-0.529-1.849-1.197-1.676-2.993c0.111-1.125-0.166-2.313-0.281-3.472c-0.157-1.566,0.207-2.711,1.631-3.053
	c0.075,0.255,0.148,0.506,0.231,0.793c0.184-0.248,0.345-0.465,0.657-0.881c0.026,1.175,0.046,2.1,0.07,3.145
	c0.202-0.334,0.363-0.6,0.602-0.992c0.282,0.753,0.505,1.355,0.764,2.063c0.378-0.711,0.672-1.252,0.9-1.67
	c0.867,0.574,1.556,1.037,2.386,1.597c-0.343,0.383-0.619,0.722-0.915,1.027c-0.901,0.932-0.205,1.603,0.298,1.911
	c1.456,0.889,1.513,0.913,1.136,2.94C70.414,25.828,70.392,25.877,70.326,26.086"/>
<path class="st0" d="M16.112,57.383c1.332,0.053,0.558,1.45,0.125,1.993c-1.53,1.932-1.426,3.749-1.924,5.612
	c-0.057,0.21-0.187,0.429-0.127,0.295c-1.009-0.197-2.035-0.274-2.883-0.618c-0.395-0.16-0.449-0.838-0.54-1.033
	C12.77,61.406,14.429,59.462,16.112,57.383"/>
<path class="st0" d="M22.74,49.997c-0.023-0.891-0.047-1.587-0.088-2.472c0.1-0.063,0.45-0.444,0.648-0.388
	c1.161,0.331,2.319,0.586,3.627-0.231c0.061-0.039,0.371,0.452,0.408,0.761c0.09,0.775,0.084,1.588,0.11,2.549
	C25.478,51.709,24.256,49.707,22.74,49.997"/>
<path class="st0" d="M28.907,108.644c3.308,2.182,0.982,4.241-0.674,6.297c-2.064-0.673-3.596-2.958-2.759-4.325
	C27.542,111.295,28.034,109.638,28.907,108.644"/>
<path class="st0" d="M63.246,56.663c1.516-0.472,3.018-0.944,4.366-1.371c0.366,1.699,0.646,2.944,0.891,4.017
	c-0.474,0.444-0.953,0.887-1.21,1.124c-1.202-1.033-2.328-2.007-3.416-3.009c-0.236-0.216-0.406-0.533-0.604-0.803
	C63.273,56.622,63.246,56.663,63.246,56.663"/>
<path class="st0" d="M28.481,49.616c0.805-0.124,1.661-0.437,2.385-0.29c0.349,0.071,0.45,1.01,0.66,1.556
	c-0.135,0.179-0.27,0.358-0.405,0.536c-0.922-0.399-1.84-0.797-2.753-1.196C28.406,50.02,28.444,49.818,28.481,49.616"/>
<path class="st0" d="M65.909,63.452c-0.694-0.277-1.497-0.6-2.359-0.95c0.126-0.654,0.223-1.165,0.316-1.656
	c0.356-0.035,0.679-0.067,0.872-0.086C65.102,61.612,65.451,62.42,65.909,63.452"/>
<path class="st0" d="M126.721,113.642c-0.027,0.449-0.058,0.902-0.095,1.371c-0.77,0-1.416,0-2.082,0
	C124.659,113.414,124.926,113.232,126.721,113.642"/>
</svg>
