<?xml version="1.0" encoding="utf-8"?>
<!-- Generator: Adobe Illustrator 24.2.0, SVG Export Plug-In . SVG Version: 6.00 Build 0)  -->
<svg version="1.0" id="Layer_1" xmlns="http://www.w3.org/2000/svg" xmlns:xlink="http://www.w3.org/1999/xlink" x="0px" y="0px"
	 viewBox="0 0 675.819 93.384" style="enable-background:new 0 0 675.819 93.384;" xml:space="preserve">
<style type="text/css">
	.st0{fill:#FFFFFF;}
</style>
<g>
	<path class="st0" d="M26.948,37.086h50.16c2.134,0,3.202,0.98,3.202,2.935v15.609c0,1.958-1.068,2.935-3.202,2.935h-50.16v31.883
		c0,1.958-1.065,2.935-3.202,2.935H3.068C1.023,93.384,0,92.407,0,90.449V2.936c0-1.955,1.023-2.935,3.068-2.935h84.578
		c2.046,0,3.068,0.98,3.068,2.935v15.609c0,1.955-1.023,2.932-3.068,2.932H26.948V37.086z"/>
	<path class="st0" d="M125.934,90.448c0,1.958-1.065,2.935-3.202,2.935h-20.678c-2.046,0-3.068-0.977-3.068-2.935V2.935
		c0-1.955,1.023-2.935,3.068-2.935h20.678c2.137,0,3.202,0.98,3.202,2.935V90.448z"/>
	<path class="st0" d="M167.287,71.905h58.297c2.046,0,3.069,0.98,3.069,2.935v15.609c0,1.955-1.023,2.935-3.069,2.935h-82.177
		c-2.046,0-3.068-0.98-3.068-2.935V2.936c0-1.955,1.023-2.935,3.068-2.935h20.678c2.137,0,3.202,0.98,3.202,2.935V71.905z"/>
	<path class="st0" d="M263.471,90.448c0,1.958-1.065,2.935-3.202,2.935h-20.678c-2.046,0-3.068-0.977-3.068-2.935V2.935
		c0-1.955,1.023-2.935,3.068-2.935h20.678c2.137,0,3.202,0.98,3.202,2.935V90.448z"/>
	<path class="st0" d="M304.69,43.489h34.554c1.955,0,3.512-0.088,4.668-0.267c1.156-0.176,2.045-0.552,2.668-1.132
		c0.622-0.58,1.044-1.357,1.266-2.337c0.222-0.977,0.337-2.267,0.337-3.867v-6.805c0-1.599-0.115-2.889-0.337-3.87
		c-0.222-0.977-0.643-1.754-1.266-2.334c-0.622-0.577-1.511-0.953-2.668-1.132c-1.156-0.179-2.714-0.267-4.668-0.267H304.69V43.489z
		 M352.851,0c7.824,0,13.494,1.669,17.008,5.002c3.512,3.336,5.272,8.787,5.272,16.344v22.277c0,7.56-1.76,13.008-5.272,16.344
		c-3.514,3.332-9.184,5.002-17.008,5.002H304.69v25.479c0,1.958-1.065,2.935-3.202,2.935h-20.675c-2.049,0-3.071-0.977-3.071-2.935
		V2.935c0-1.955,1.023-2.935,3.071-2.935H352.851z"/>
	<path class="st0" d="M411.547,43.489h34.554c1.955,0,3.512-0.088,4.668-0.267c1.156-0.176,2.045-0.552,2.668-1.132
		c0.622-0.58,1.044-1.357,1.266-2.337c0.225-0.977,0.337-2.267,0.337-3.867v-6.805c0-1.599-0.112-2.889-0.337-3.87
		c-0.222-0.977-0.643-1.754-1.266-2.334c-0.622-0.577-1.511-0.953-2.668-1.132c-1.156-0.179-2.713-0.267-4.668-0.267h-34.554V43.489
		z M459.707,0c7.824,0,13.494,1.669,17.008,5.002c3.512,3.336,5.272,8.787,5.272,16.344v22.277c0,7.56-1.76,13.008-5.272,16.344
		c-3.514,3.332-9.184,5.002-17.008,5.002h-48.161v25.479c0,1.958-1.065,2.935-3.202,2.935H387.67c-2.049,0-3.068-0.977-3.068-2.935
		V2.935c0-1.955,1.02-2.935,3.068-2.935H459.707z"/>
	<path class="st0" d="M518.402,90.448c0,1.958-1.065,2.935-3.202,2.935h-20.678c-2.046,0-3.068-0.977-3.068-2.935V2.935
		c0-1.955,1.023-2.935,3.068-2.935H515.2c2.137,0,3.202,0.98,3.202,2.935V90.448z"/>
	<path class="st0" d="M596.443,93.383c-2.134,0-3.56-0.801-4.271-2.401l-34.952-69.637v69.102c0,1.958-1.023,2.935-3.068,2.935
		h-18.675c-2.046,0-3.068-0.977-3.068-2.935V2.935c0-1.955,1.023-2.935,3.068-2.935h35.085c2.134,0,3.554,0.801,4.267,2.401
		l34.952,69.77V2.935c0-1.955,1.068-2.935,3.202-2.935h18.544c2.043,0,3.068,0.98,3.068,2.935v87.513
		c0,1.958-1.026,2.935-3.068,2.935H596.443z"/>
	<path class="st0" d="M675.819,90.448c0,1.958-1.065,2.935-3.202,2.935h-20.678c-2.046,0-3.068-0.977-3.068-2.935V2.935
		c0-1.955,1.023-2.935,3.068-2.935h20.678c2.137,0,3.202,0.98,3.202,2.935V90.448z"/>
</g>
</svg>
