<?xml version="1.0" encoding="utf-8"?>
<!-- Generator: Adobe Illustrator 24.2.0, SVG Export Plug-In . SVG Version: 6.00 Build 0)  -->
<svg version="1.0" id="Layer_1" xmlns="http://www.w3.org/2000/svg" xmlns:xlink="http://www.w3.org/1999/xlink" x="0px" y="0px"
	 viewBox="0 0 647.584 337.827" style="enable-background:new 0 0 647.584 337.827;" xml:space="preserve">
<style type="text/css">
	.st0{fill:#FFFFFF;}
</style>
<path class="st0" d="M7.805,0h23.889v58.271h37.283v19.037H7.805V0z"/>
<path class="st0" d="M102.713,0h23.941v77.309h-23.941V0z"/>
<path class="st0" d="M165.77,0h44.719c7.453,0,13.174,1.846,17.165,5.537c3.99,3.691,5.985,8.262,5.985,13.711
	c0,4.571-1.424,8.49-4.271,11.76c-1.898,2.18-4.676,3.902-8.332,5.168c5.554,1.336,9.641,3.63,12.261,6.882
	c2.619,3.252,3.929,7.339,3.929,12.261c0,4.008-0.932,7.612-2.795,10.811c-1.864,3.2-4.413,5.731-7.646,7.594
	c-2.004,1.16-5.028,2.004-9.07,2.531c-5.379,0.704-8.948,1.055-10.705,1.055H165.77V0z M189.87,30.322h10.389
	c3.726,0,6.319-0.641,7.778-1.925c1.458-1.283,2.188-3.138,2.188-5.563c0-2.25-0.73-4.008-2.188-5.273
	c-1.459-1.266-4-1.898-7.62-1.898H189.87V30.322z M189.87,60.697h12.182c4.113,0,7.014-0.729,8.701-2.188
	c1.688-1.458,2.531-3.418,2.531-5.88c0-2.285-0.835-4.122-2.505-5.511c-1.67-1.388-4.597-2.083-8.78-2.083H189.87V60.697z"/>
<path class="st0" d="M271.594,0h64.019v16.506h-40.078v12.287h37.177v15.768h-37.177v15.24h41.238v17.508h-65.179V0z"/>
<path class="st0" d="M371.882,77.309V0h39.814c7.383,0,13.025,0.633,16.928,1.898s7.048,3.612,9.439,7.04
	c2.391,3.428,3.586,7.603,3.586,12.524c0,4.29-0.915,7.989-2.744,11.101s-4.345,5.634-7.545,7.567
	c-2.04,1.231-4.837,2.25-8.39,3.059c2.845,0.951,4.918,1.901,6.219,2.85c0.878,0.634,2.151,1.988,3.82,4.065
	c1.669,2.076,2.784,3.677,3.347,4.803l11.568,22.401h-26.992l-12.77-23.625c-1.617-3.059-3.059-5.044-4.324-5.959
	c-1.723-1.195-3.674-1.793-5.854-1.793h-2.109v31.377H371.882z M395.876,31.324h10.072c1.089,0,3.198-0.351,6.328-1.055
	c1.582-0.316,2.874-1.125,3.876-2.426c1.002-1.3,1.503-2.795,1.503-4.482c0-2.496-0.791-4.412-2.373-5.748
	c-1.582-1.335-4.554-2.004-8.912-2.004h-10.494V31.324z"/>
<path class="st0" d="M525.023,64.547h-27.121l-3.768,12.762h-24.392L498.8,0h26.058l29.05,77.309h-25.016L525.023,64.547z
	 M520.068,47.83l-8.533-27.791l-8.444,27.791H520.068z"/>
<path class="st0" d="M583.425,0h23.889v58.271h37.283v19.037h-61.172V0z"/>
<path class="st0" d="M0,129.6h26.535l15.576,26.081L57.719,129.6h26.393l-30.059,44.93v32.379H30.111V174.53L0,129.6z"/>
<path class="st0" d="M137.945,168.307c0-12.621,3.515-22.447,10.547-29.479c7.031-7.031,16.822-10.547,29.373-10.547
	c12.867,0,22.781,3.454,29.742,10.362s10.441,16.585,10.441,29.03c0,9.036-1.521,16.445-4.562,22.228
	c-3.042,5.784-7.436,10.283-13.184,13.5s-12.912,4.825-21.489,4.825c-8.719,0-15.935-1.388-21.647-4.166
	c-5.713-2.777-10.345-7.172-13.896-13.184C139.72,184.866,137.945,177.343,137.945,168.307z M161.833,168.413
	c0,7.805,1.45,13.413,4.351,16.822c2.9,3.411,6.846,5.115,11.839,5.115c5.132,0,9.105-1.669,11.918-5.01
	c2.812-3.339,4.219-9.334,4.219-17.982c0-7.277-1.468-12.594-4.403-15.952c-2.936-3.357-6.917-5.036-11.944-5.036
	c-4.817,0-8.684,1.706-11.602,5.115C163.292,154.896,161.833,160.538,161.833,168.413z"/>
<path class="st0" d="M336.736,129.6h23.836v46.06c0,4.567-0.713,8.88-2.137,12.937c-1.424,4.058-3.656,7.607-6.697,10.646
	c-3.041,3.039-6.23,5.173-9.57,6.402c-4.641,1.722-10.213,2.583-16.717,2.583c-3.763,0-7.867-0.264-12.314-0.79
	c-4.448-0.528-8.166-1.572-11.153-3.136c-2.989-1.563-5.722-3.785-8.2-6.666c-2.479-2.88-4.175-5.849-5.089-8.906
	c-1.477-4.918-2.215-9.275-2.215-13.069V129.6h23.836v47.156c0,4.215,1.168,7.509,3.507,9.879c2.337,2.371,5.581,3.556,9.73,3.556
	c4.113,0,7.338-1.167,9.676-3.503s3.508-5.647,3.508-9.932V129.6z"/>
<path class="st0" d="M426.473,129.6h72.615v19.09h-24.363v58.219h-23.889V148.69h-24.363V129.6z"/>
<path class="st0" d="M565.516,129.6h23.889v27.053h26.104V129.6h23.994v77.309h-23.994v-31.271h-26.104v31.271h-23.889V129.6z"/>
<path class="st0" d="M7.541,259.2h31.417l12.116,47.039L63.103,259.2H94.5v77.309H74.936v-58.957l-15.075,58.957H42.152
	l-15.046-58.957v58.957H7.541V259.2z"/>
<path class="st0" d="M118.142,259.2h23.941v77.309h-23.941V259.2z"/>
<path class="st0" d="M166.832,259.2h22.307l29.109,42.771V259.2h22.518v77.309h-22.518l-28.951-42.448v42.448h-22.465V259.2z"/>
<path class="st0" d="M265.04,259.2h23.941v77.309H265.04V259.2z"/>
<path class="st0" d="M309.406,310.932l22.729-1.424c0.492,3.691,1.494,6.505,3.006,8.438c2.459,3.13,5.977,4.693,10.547,4.693
	c3.408,0,6.037-0.799,7.883-2.399c1.846-1.6,2.77-3.454,2.77-5.563c0-2.004-0.879-3.797-2.637-5.379
	c-1.76-1.582-5.836-3.076-12.234-4.482c-10.477-2.354-17.948-5.484-22.413-9.387c-4.5-3.902-6.75-8.877-6.75-14.924
	c0-3.973,1.151-7.726,3.454-11.259c2.302-3.533,5.765-6.31,10.388-8.332c4.623-2.021,10.961-3.032,19.012-3.032
	c9.879,0,17.41,1.838,22.596,5.511c5.186,3.674,8.271,9.519,9.256,17.534l-22.518,1.318c-0.6-3.48-1.855-6.012-3.771-7.594
	s-4.561-2.373-7.936-2.373c-2.777,0-4.871,0.589-6.275,1.767c-1.406,1.179-2.109,2.61-2.109,4.298c0,1.231,0.58,2.339,1.74,3.322
	c1.125,1.021,3.797,1.97,8.016,2.848c10.441,2.25,17.92,4.527,22.438,6.829c4.518,2.303,7.805,5.16,9.861,8.569
	c2.057,3.41,3.086,7.225,3.086,11.443c0,4.957-1.371,9.527-4.113,13.711c-2.742,4.185-6.574,7.356-11.496,9.519
	c-4.924,2.162-11.127,3.243-18.615,3.243c-13.15,0-22.254-2.531-27.317-7.594S310.073,318.737,309.406,310.932z"/>
<path class="st0" d="M393.586,259.2h72.615v19.09h-24.363v58.219h-23.889V278.29h-24.363V259.2z"/>
<path class="st0" d="M484.78,336.508V259.2h39.814c7.383,0,13.025,0.633,16.928,1.898s7.048,3.612,9.439,7.04
	c2.391,3.428,3.586,7.603,3.586,12.524c0,4.29-0.915,7.989-2.744,11.101s-4.345,5.635-7.545,7.567
	c-2.04,1.231-4.837,2.25-8.39,3.059c2.845,0.951,4.918,1.901,6.219,2.851c0.878,0.633,2.151,1.987,3.82,4.064
	c1.669,2.076,2.784,3.677,3.347,4.803l11.568,22.401h-26.992l-12.77-23.625c-1.617-3.059-3.059-5.044-4.324-5.959
	c-1.723-1.194-3.674-1.793-5.854-1.793h-2.109v31.377H484.78z M508.774,290.524h10.072c1.089,0,3.198-0.351,6.328-1.055
	c1.582-0.316,2.874-1.125,3.876-2.426c1.002-1.3,1.503-2.795,1.503-4.482c0-2.496-0.791-4.411-2.373-5.748
	c-1.582-1.336-4.554-2.004-8.912-2.004h-10.494V290.524z"/>
<path class="st0" d="M563.473,259.2h26.535l15.576,26.08l15.607-26.08h26.393l-30.059,44.93v32.379h-23.941v-32.379L563.473,259.2z"
	/>
</svg>
