<?xml version="1.0" encoding="utf-8"?>
<!-- Generator: Adobe Illustrator 24.2.0, SVG Export Plug-In . SVG Version: 6.00 Build 0)  -->
<svg version="1.0" id="Layer_1" xmlns="http://www.w3.org/2000/svg" xmlns:xlink="http://www.w3.org/1999/xlink" x="0px" y="0px"
	 viewBox="0 0 132.781 67.77" style="enable-background:new 0 0 132.781 67.77;" xml:space="preserve">
<style type="text/css">
	.st0{fill:#C8FF00;}
</style>
<g>
	<path class="st0" d="M121.717,61.011v6.495h4.905v-6.495l6.159-9.013h-5.408l-3.197,5.231l-3.191-5.231h-5.437L121.717,61.011z
		 M104.326,55.129h2.15c0.893,0,1.502,0.134,1.826,0.402c0.324,0.268,0.486,0.652,0.486,1.153c0,0.338-0.103,0.638-0.308,0.899
		c-0.205,0.261-0.47,0.423-0.794,0.487c-0.641,0.141-1.073,0.211-1.296,0.211h-2.064V55.129z M104.326,67.506v-6.294h0.432
		c0.447,0,0.846,0.12,1.199,0.359c0.26,0.184,0.555,0.582,0.886,1.196l2.616,4.739h5.53l-2.37-4.494
		c-0.115-0.226-0.343-0.547-0.685-0.963c-0.342-0.417-0.603-0.689-0.783-0.816c-0.266-0.19-0.691-0.381-1.274-0.571
		c0.728-0.163,1.301-0.367,1.719-0.614c0.656-0.388,1.171-0.894,1.546-1.518c0.374-0.624,0.562-1.366,0.562-2.227
		c0-0.987-0.245-1.825-0.735-2.512c-0.49-0.688-1.134-1.159-1.934-1.413c-0.799-0.254-1.955-0.38-3.468-0.38H99.41v15.508H104.326z
		 M80.712,55.827h4.991v11.679h4.894V55.827h4.992v-3.829H80.712V55.827z M65.211,66.247c1.037,1.016,2.903,1.523,5.597,1.523
		c1.534,0,2.805-0.216,3.813-0.65c1.009-0.434,1.794-1.07,2.356-1.91c0.561-0.839,0.842-1.756,0.842-2.75
		c0-0.846-0.21-1.612-0.632-2.296c-0.421-0.684-1.095-1.257-2.02-1.719c-0.926-0.462-2.458-0.918-4.597-1.37
		c-0.864-0.176-1.412-0.366-1.642-0.571c-0.238-0.197-0.357-0.419-0.357-0.666c0-0.339,0.144-0.626,0.432-0.863
		c0.288-0.236,0.717-0.354,1.286-0.354c0.691,0,1.233,0.159,1.626,0.476c0.392,0.317,0.65,0.825,0.772,1.523l4.614-0.264
		c-0.202-1.608-0.834-2.78-1.896-3.517c-1.063-0.737-2.606-1.106-4.63-1.106c-1.649,0-2.948,0.203-3.895,0.608
		c-0.947,0.406-1.656,0.963-2.128,1.672s-0.708,1.461-0.708,2.258c0,1.213,0.461,2.211,1.383,2.994
		c0.915,0.783,2.445,1.411,4.592,1.883c1.311,0.282,2.146,0.582,2.506,0.899c0.36,0.318,0.541,0.677,0.541,1.079
		c0,0.424-0.19,0.796-0.568,1.116c-0.378,0.321-0.916,0.482-1.615,0.482c-0.936,0-1.657-0.314-2.161-0.942
		c-0.309-0.388-0.515-0.952-0.615-1.692l-4.657,0.285C63.587,63.941,64.174,65.232,65.211,66.247 M54.345,67.506h4.905V51.998
		h-4.905V67.506z M34.21,67.506h4.602v-8.515l5.932,8.515h4.613V51.998h-4.613v8.58l-5.964-8.58h-4.57V67.506z M24.219,67.506h4.905
		V51.998h-4.905V67.506z M1.545,67.506h4.008V55.679l3.083,11.827h3.628l3.088-11.827v11.827h4.009V51.998h-6.433l-2.464,9.436
		l-2.483-9.436H1.545V67.506z"/>
	<path class="st0" d="M115.948,41.507h4.894v-6.273h5.348v6.273h4.916V25.999h-4.916v5.427h-5.348v-5.427h-4.894V41.507z
		 M87.434,29.828h4.991v11.679h4.894V29.828h4.992v-3.829H87.434V29.828z M69.021,35.459c0,0.859-0.24,1.523-0.719,1.992
		c-0.479,0.469-1.139,0.703-1.982,0.703c-0.85,0-1.514-0.238-1.993-0.714c-0.479-0.475-0.719-1.136-0.719-1.981v-9.46h-4.883v9.24
		c0,0.761,0.151,1.635,0.454,2.621c0.187,0.614,0.534,1.209,1.042,1.787c0.508,0.578,1.068,1.024,1.68,1.337
		c0.612,0.314,1.374,0.523,2.285,0.629c0.911,0.106,1.752,0.159,2.523,0.159c1.332,0,2.474-0.173,3.425-0.518
		c0.684-0.247,1.338-0.675,1.961-1.285c0.623-0.609,1.08-1.321,1.372-2.135c0.291-0.814,0.437-1.679,0.437-2.595v-9.24h-4.883
		V35.459z M34.057,30.389c0.597-0.684,1.39-1.026,2.377-1.026c1.029,0,1.845,0.337,2.447,1.01c0.601,0.674,0.902,1.74,0.902,3.2
		c0,1.735-0.288,2.938-0.865,3.608c-0.576,0.67-1.39,1.005-2.441,1.005c-1.023,0-1.831-0.342-2.426-1.026
		c-0.594-0.684-0.891-1.809-0.891-3.375C33.16,32.205,33.459,31.073,34.057,30.389 M29.357,38.291
		c0.727,1.206,1.676,2.088,2.847,2.645c1.17,0.557,2.648,0.836,4.435,0.836c1.757,0,3.225-0.323,4.402-0.968
		c1.178-0.645,2.078-1.548,2.701-2.708c0.623-1.16,0.935-2.647,0.935-4.459c0-2.497-0.713-4.438-2.139-5.824
		c-1.426-1.386-3.457-2.079-6.094-2.079c-2.571,0-4.577,0.706-6.017,2.116c-1.441,1.411-2.161,3.382-2.161,5.914
		C28.266,35.576,28.629,37.085,29.357,38.291 M6.169,35.012v6.495h4.905v-6.495l6.158-9.013h-5.407l-3.198,5.232l-3.191-5.232H0
		L6.169,35.012z"/>
	<path class="st0" d="M119.6,15.509h12.532V11.69h-7.638V0H119.6V15.509z M103.13,9.595l1.729-5.575l1.749,5.575H103.13z
		 M108.415,15.509h5.125L107.589,0h-5.339l-5.953,15.509h4.998l0.771-2.56h5.557L108.415,15.509z M81.152,3.132h2.15
		c0.893,0,1.502,0.134,1.826,0.402c0.324,0.268,0.486,0.652,0.486,1.153c0,0.338-0.103,0.638-0.308,0.899
		c-0.205,0.261-0.47,0.423-0.794,0.487c-0.641,0.141-1.073,0.211-1.296,0.211h-2.064V3.132z M81.152,15.509V9.215h0.432
		c0.447,0,0.846,0.12,1.199,0.359c0.26,0.184,0.555,0.582,0.886,1.196l2.616,4.739h5.531l-2.371-4.494
		c-0.115-0.226-0.343-0.547-0.685-0.963c-0.342-0.417-0.603-0.689-0.783-0.816c-0.266-0.19-0.691-0.381-1.274-0.571
		c0.728-0.163,1.301-0.367,1.719-0.614c0.656-0.388,1.171-0.894,1.546-1.518c0.374-0.624,0.562-1.366,0.562-2.227
		c0-0.987-0.245-1.825-0.735-2.512c-0.49-0.688-1.134-1.159-1.934-1.413C87.062,0.127,85.906,0,84.393,0h-8.157v15.509H81.152z
		 M55.678,15.509h13.354v-3.512h-8.449V8.94H68.2V5.777h-7.617V3.312h8.211V0H55.678V15.509z M38.923,9.035h2.485
		c0.857,0,1.457,0.139,1.799,0.418c0.342,0.278,0.513,0.647,0.513,1.105c0,0.494-0.173,0.887-0.519,1.18
		c-0.345,0.292-0.94,0.439-1.782,0.439h-2.496V9.035z M38.923,3.142h2.161c0.742,0,1.262,0.127,1.561,0.381
		c0.299,0.254,0.448,0.607,0.448,1.058c0,0.487-0.149,0.859-0.448,1.116c-0.299,0.258-0.83,0.386-1.594,0.386h-2.128V3.142z
		 M33.986,15.509h8.448c0.36,0,1.092-0.07,2.194-0.212c0.828-0.105,1.447-0.275,1.858-0.507c0.662-0.374,1.185-0.882,1.566-1.524
		c0.382-0.641,0.573-1.364,0.573-2.168c0-0.988-0.268-1.808-0.805-2.46c-0.537-0.652-1.374-1.112-2.512-1.38
		c0.749-0.254,1.318-0.6,1.707-1.037c0.584-0.656,0.875-1.442,0.875-2.359c0-1.093-0.409-2.01-1.226-2.751
		C45.846,0.371,44.674,0,43.147,0h-9.161V15.509z M21.055,15.509h4.905V0h-4.905V15.509z M1.599,15.509h12.533V11.69H6.493V0H1.599
		V15.509z"/>
</g>
</svg>
