<?xml version="1.0" encoding="utf-8"?>
<!-- Generator: Adobe Illustrator 24.2.0, SVG Export Plug-In . SVG Version: 6.00 Build 0)  -->
<svg version="1.0" id="Layer_1" xmlns="http://www.w3.org/2000/svg" xmlns:xlink="http://www.w3.org/1999/xlink" x="0px" y="0px"
	 viewBox="0 0 430.212 30.441" style="enable-background:new 0 0 430.212 30.441;" xml:space="preserve">
<style type="text/css">
	.st0{fill:#FFFFFF;}
</style>
<g>
	<path class="st0" d="M0,0.502h9.116v29.437H0V0.502z"/>
	<path class="st0" d="M13.574,0.502h27.65v7.269h-9.277v22.168h-9.096V7.771h-9.277V0.502z"/>
	<path class="st0" d="M43.734,0h8.734v6.727c0,2.477-0.515,4.435-1.546,5.874c-1.031,1.439-2.791,2.701-5.281,3.785l-1.907-3.575
		c1.553-0.723,2.62-1.442,3.203-2.158c0.582-0.716,0.907-1.563,0.974-2.54h-4.176V0z"/>
	<path class="st0" d="M55.18,20.2l8.654-0.542c0.188,1.405,0.569,2.477,1.145,3.212c0.937,1.192,2.276,1.787,4.016,1.787
		c1.298,0,2.299-0.304,3.002-0.914c0.703-0.609,1.054-1.315,1.054-2.118c0-0.763-0.335-1.446-1.004-2.048
		c-0.67-0.603-2.223-1.171-4.659-1.707c-3.989-0.897-6.834-2.088-8.534-3.574c-1.713-1.486-2.57-3.38-2.57-5.683
		c0-1.513,0.438-2.942,1.315-4.287c0.876-1.346,2.195-2.403,3.956-3.173C63.315,0.385,65.728,0,68.794,0
		c3.761,0,6.629,0.699,8.604,2.098s3.149,3.625,3.524,6.677l-8.574,0.502c-0.228-1.325-0.707-2.289-1.436-2.892
		s-1.737-0.904-3.022-0.904c-1.058,0-1.854,0.225-2.39,0.673c-0.535,0.449-0.803,0.994-0.803,1.637c0,0.469,0.221,0.89,0.663,1.265
		c0.429,0.389,1.446,0.75,3.052,1.084c3.976,0.857,6.824,1.724,8.544,2.601s2.972,1.964,3.755,3.263
		c0.783,1.299,1.174,2.751,1.174,4.357c0,1.888-0.522,3.628-1.566,5.221c-1.044,1.593-2.503,2.801-4.377,3.625
		c-1.875,0.823-4.237,1.235-7.088,1.235c-5.007,0-8.474-0.964-10.401-2.892S55.434,23.172,55.18,20.2z"/>
	<path class="st0" d="M118.276,25.08h-10.327l-1.435,4.859h-9.288l11.064-29.437h9.922l11.062,29.437h-9.525L118.276,25.08z
		 M116.389,18.714L113.14,8.132l-3.215,10.582H116.389z"/>
	<path class="st0" d="M145.941,0.502h8.494l11.084,16.286V0.502h8.574v29.437h-8.574l-11.024-16.163v16.163h-8.554V0.502z"/>
	<path class="st0" d="M180.499,0.502h9.116v29.437h-9.116V0.502z"/>
	<path class="st0" d="M215.739,17.891l7.972,2.41c-0.536,2.235-1.379,4.103-2.53,5.602c-1.151,1.5-2.58,2.63-4.287,3.394
		s-3.879,1.145-6.516,1.145c-3.2,0-5.813-0.465-7.842-1.395c-2.028-0.93-3.778-2.565-5.25-4.906
		c-1.473-2.341-2.209-5.338-2.209-8.99c0-4.869,1.295-8.612,3.885-11.227S205.216,0,209.956,0c3.708,0,6.623,0.75,8.745,2.249
		c2.121,1.5,3.697,3.802,4.729,6.908l-8.032,1.787c-0.281-0.896-0.575-1.553-0.884-1.968c-0.509-0.696-1.131-1.231-1.867-1.606
		c-0.736-0.375-1.56-0.562-2.47-0.562c-2.062,0-3.642,0.829-4.739,2.487c-0.83,1.23-1.244,3.162-1.244,5.796
		c0,3.263,0.495,5.499,1.485,6.709s2.383,1.815,4.177,1.815c1.74,0,3.056-0.488,3.945-1.466
		C214.691,21.171,215.336,19.752,215.739,17.891z"/>
	<path class="st0" d="M228.108,0.502h24.377v6.285h-15.261v4.679h14.156v6.004h-14.156v5.803h15.702v6.667h-24.818V0.502z"/>
	<path class="st0" d="M271.662,0.502h13.514c2.663,0,4.815,0.361,6.455,1.084c1.64,0.723,2.995,1.761,4.066,3.113
		s1.848,2.925,2.329,4.719c0.482,1.794,0.724,3.694,0.724,5.703c0,3.146-0.358,5.585-1.074,7.319
		c-0.717,1.734-1.711,3.186-2.982,4.357s-2.638,1.951-4.097,2.339c-1.994,0.536-3.802,0.803-5.421,0.803h-13.514V0.502z
		 M280.757,7.168v16.084h2.229c1.9,0,3.253-0.211,4.056-0.633c0.803-0.421,1.433-1.158,1.888-2.208s0.683-2.754,0.683-5.11
		c0-3.119-0.509-5.254-1.526-6.406c-1.018-1.151-2.704-1.727-5.06-1.727H280.757z"/>
	<path class="st0" d="M303.649,29.939V0.502h15.16c2.811,0,4.96,0.241,6.445,0.723c1.486,0.482,2.684,1.375,3.595,2.681
		c0.91,1.305,1.365,2.895,1.365,4.769c0,1.633-0.349,3.042-1.045,4.227c-0.696,1.185-1.654,2.145-2.873,2.881
		c-0.776,0.469-1.842,0.857-3.194,1.165c1.083,0.362,1.873,0.724,2.368,1.085c0.334,0.241,0.818,0.757,1.454,1.547
		c0.636,0.791,1.061,1.4,1.274,1.829l4.405,8.53h-10.278l-4.862-8.996c-0.615-1.165-1.164-1.921-1.646-2.269
		c-0.656-0.455-1.398-0.683-2.229-0.683h-0.804v11.948H303.649z M312.785,12.429h3.836c0.414,0,1.218-0.134,2.409-0.401
		c0.603-0.121,1.095-0.428,1.476-0.924c0.382-0.495,0.572-1.064,0.572-1.707c0-0.95-0.301-1.68-0.903-2.188
		s-1.733-0.763-3.394-0.763h-3.996V12.429z"/>
	<path class="st0" d="M335.496,0.502h24.377v6.285h-15.261v4.679h14.156v6.004h-14.156v5.803h15.702v6.667h-24.818V0.502z"/>
	<path class="st0" d="M383.311,25.08h-10.327l-1.435,4.859h-9.287l11.063-29.437h9.922l11.062,29.437h-9.525L383.311,25.08z
		 M381.424,18.714l-3.249-10.582l-3.216,10.582H381.424z"/>
	<path class="st0" d="M397.1,0.502h11.963l4.613,17.911l4.581-17.911h11.955v29.437h-7.449V7.49l-5.74,22.449h-6.743L404.55,7.49
		v22.449h-7.45V0.502z"/>
</g>
</svg>
